<svg xmlns="http://www.w3.org/2000/svg" xmlns:xlink="http://www.w3.org/1999/xlink" width="445" height="334" xmlns:v="https://vecta.io/nano"><style><![CDATA[.AR{stroke-miterlimit:10}.AS{fill:#f2a5c7}.AT{fill:none}.AU{fill:#cf388d}.AV{fill:#fff}.AW{fill:#9087f4}.AX{fill:#171754}.AY{fill:#bcb6f9}.AZ{stroke-width:3}.Aa{fill:#f25299}.Ab{fill:#786cf2}.Ac{stroke:#aea7fa}.Ad{fill:#8648a8}.Ae{fill:#6c2196}.Af{fill:#2f3f88}.Ag{fill:#fc5d9c}.Ah{fill:#d4d5fd}.Ai{stroke-linecap:round}.Aj{fill:#b06350}.Ak{fill:#ca725c}.Al{fill:#aea7fa}.Am{stroke:#9087f4}.An{fill:#ff9549}.Ao{stroke:#4424af}.Ap{stroke-width:1.324}.Aq{fill:#5a6ec4}.Ar{stroke-linejoin:round}.As{fill:#cc7070}.At{fill:#d481a6}.Au{fill:#ffccea}.Av{fill:#fafbff}.Aw{stroke-width:1.09}.Ax{fill:#fffd8b}.Ay{stroke-width:.5}.Az{stroke-width:.486}]]></style><path d="M48.5 303.9c-1 0-1.7-.8-1.7-1.7h0c0-1 .8-1.7 1.7-1.7H166c1 0 1.7.8 1.7 1.7h0c0 1-.8 1.7-1.7 1.7M9.3 131.4l50.6 17.8v108.1H9.3z" class="AY"/><path d="M427.4 299.8H353v3.4h74.4c.7 0 1.2-.5 1.2-1.2v-1c.1-.6-.5-1.2-1.2-1.2z" fill="#2e282e"/><path d="M34.5 113.6H20.4a2.22 2.22 0 0 1-2.2-2.2v-1.6a2.22 2.22 0 0 1 2.2-2.2h14.2a2.22 2.22 0 0 1 2.2 2.2v1.6c-.1 1.2-1.1 2.2-2.3 2.2zm0 10.1H32a3.01 3.01 0 0 1-3-3h0a3.01 3.01 0 0 1 3-3h2.6a3.01 3.01 0 0 1 3 3h0c-.1 1.7-1.4 3-3.1 3z" class="AV"/><g fill="#342c39"><path d="M139.4 106h46.2v26.6h-46.2z"/><path d="M150.2 99.6h24.5v26.6h-24.5z"/></g><g class="AY"><path d="M218.3 122.7V31.6h36.2v56.8h34.9v-43l41.1 16.8v81.2h41.3V92.9h34.7L401 206.6H218.5l5.5-83.9z"/><path d="M228.3 26.1h16v7.5h-16zm149 61.5h24.5v7.5h-24.5z"/><path d="M382.6 81.7h13.9v7.5h-13.9z"/><path d="M388.3 59.1h2.6v24.3h-2.6zM79.2 67.5h59.5v178.1H79.2z"/></g><g fill="#d0cfff"><path d="M105.7,87.3v176.3h234.2c13,0,23.6-10.6,23.6-23.6V110.8c0-13-10.6-23.6-23.6-23.6H105.7z"/><path d="M347,87.1v176.3H112.7c-13,0-23.6-10.6-23.6-23.6V110.6c0-13,10.6-23.6,23.6-23.6H347z"/></g><path d="M227.8 260.5l7.1 27.7h38.7l-7.1-27.7z" class="Af"/><path d="M222 260.5l7 27.7h38.7l-7.1-27.7z" class="Aq"/><path d="M222 260.5l1.7 6.6 38.4 2.2c.3 0 .5 0 .8.1l-2.3-8.8-38.6-.1z" class="Af"/><path d="M284.7 286.6h-97.1c-3.8 0-6.9 3.1-6.9 6.9v1.2h110.9v-1.2c0-3.8-3.1-6.9-6.9-6.9z" class="AV"/><path d="M312.5 286.6h-38.3c-3.8 0-6.9 3.1-6.9 6.9v1.2h52.4v-1c-.1-3.9-3.3-7.1-7.2-7.1z" class="AY"/><path d="M225.5 91.4a1.79 1.79 0 1 0 3.6 0 1.79 1.79 0 0 0-1.8-1.8c-1-.1-1.8.8-1.8 1.8z" fill="#485cb5"/><path d="M105.7 255.5V99.1c0-2.2 1.8-3.9 3.9-3.9h228.5c2.2 0 3.9 1.8 3.9 3.9v156l-236.3.4z" class="AW"/><path d="M324.3 117.5H247c-4.1 0-7.4 3.3-7.4 7.4v52.7c0 4.1 3.3 7.4 7.4 7.4h77.3c4.1 0 7.4-3.3 7.4-7.4v-52.7c0-4.1-3.3-7.4-7.4-7.4z" stroke="#786cf2" class="AR AT AZ Ar"/><g class="Ab"><path d="M261 131.5h2.1v10H261z"/><use xlink:href="#B"/><path d="M257 135.5h10v2.1h-10z"/><use xlink:href="#C"/><path d="M276.9 131.5h2.1v10h-2.1z"/><use xlink:href="#B" x="15.899" y="-0.002"/><path d="M272.9 135.5h10v2.1h-10z"/><use xlink:href="#C" x="15.897" y="-0.008"/><path d="M292.8 131.5h2.1v10h-2.1z"/><use xlink:href="#B" x="31.796" y="-0.009"/><path d="M288.8 135.5h10v2.1h-10z"/><use xlink:href="#C" x="31.796" y="-0.009"/><path d="M308.7 131.5h2.1v10h-2.1z"/><use xlink:href="#B" x="47.695" y="-0.01"/><path d="M304.7 135.5h10v2.1h-10z"/><use xlink:href="#C" x="47.693" y="-0.017"/></g><path d="M313.6 145.3h-56c-5.1 0-9.2-4.1-9.2-9.2h0c0-5.1 4.1-9.2 9.2-9.2h56c5.1 0 9.2 4.1 9.2 9.2h0c0 5.1-4.1 9.2-9.2 9.2z" stroke="#786cf2" class="AR AT AZ"/><path d="M110.9 117.5h122.3v134.3H110.9z" class="Al"/><path d="M169.5 146.9h58.9v2.8h-58.9zm0 8.6h58.9v2.8h-58.9zm0 8.7h58.9v2.8h-58.9z" class="Ah"/><g class="AW"><use xlink:href="#D"/><use xlink:href="#D" x="39.3" y="-38.5"/><use xlink:href="#D" x="38.7"/><use xlink:href="#D" y="-38.5"/></g><path d="M149.5 122.6h-20.3c-7.9 0-14.4 6.4-14.4 14.4v17.7c0 7.9 6.4 14.4 14.4 14.4h20.3c7.9 0 14.4-6.4 14.4-14.4V137c-.1-8-6.5-14.4-14.4-14.4z" class="Ah"/><g class="AW"><path d="M127.8 138.8h23.1v-5.1c0-2.4-1.9-4.3-4.3-4.3h-14.5c-2.4 0-4.3 1.9-4.3 4.3v5.1zm25.2 2.1h-27.3v-7.1c0-3.5 2.9-6.4 6.4-6.4h14.5c3.5 0 6.4 2.9 6.4 6.4v7.1z"/><path d="M127.972 140.167l1.769-.332 4.292 22.902-1.769.332zm16.67 22.563l4.292-22.902 1.769.332-4.292 22.902zm-6.848-22.663l1.797-.096 1.216 22.868-1.797.096z"/></g><g class="Al"><path d="M123.6 154.2h30.6v1.8h-30.6zm-2.4-7.3h37v1.8h-37z"/><path d="M160.6 139.2c-.3-.3-.7-.5-1.1-.5h-40.4c-.4 0-.8.2-1.1.5s-.3.8-.2 1.2l5.9 22.9c.2.6.7 1 1.3 1h28.5c.6 0 1.2-.4 1.3-1l6-22.9a1.64 1.64 0 0 0-.2-1.2zm-8.1 22.3h-26.3l-5.2-20.2h36.8l-5.3 20.2z"/></g><g class="AW"><path d="M198.5 173.3h25a4.91 4.91 0 0 1 4.9 4.9v25a4.91 4.91 0 0 1-4.9 4.9h-25a4.91 4.91 0 0 1-4.9-4.9v-25a4.91 4.91 0 0 1 4.9-4.9z"/><g class="AZ Ac"><g class="AR"><path d="M119.3 181.5h15.5v14.3h-15.5z"/><path d="M134.8 188.4h-15.5"/><path d="M134.8 188.4h-15.5"/><path d="M127 196.2v-14.7m18.2 6v8.2h-10.4v-12.2h5.9l.3.2z"/><path d="M145.2 187.5v1.1h-4.6v-4.9h.4z"/></g><circle cx="123.7" cy="196.3" r="3.7"/></g></g><circle cx="123.7" cy="196.3" r="1.5" class="Al"/><circle cx="140.9" cy="196.3" r="3.7" class="AW AZ Ac"/><circle cx="140.9" cy="196.3" r="1.5" class="Al"/><g class="AW"><g class="AR AZ Ac"><path d="M199.4 184.9h23.3v15.9h-23.3z"/><path d="M222.7 184.9h-23.3l11.7 11.2z" class="Ar"/></g><use xlink:href="#D" x="78.7"/><g class="AR Ac"><g stroke-width="3.821"><path d="M207.3 218a3.37 3.37 0 1 0 0 6.8 3.37 3.37 0 0 0 3.4-3.4 3.44 3.44 0 0 0-3.4-3.4z"/><path d="M210.7 221.4a3.37 3.37 0 1 0 6.8 0 3.37 3.37 0 1 0-6.8 0z"/></g><g class="AZ"><path d="M200.6 224.1h20.2v17.4h-20.2z"/><path d="M200.6 222.1h20.2v4h-20.2z"/><path d="M210.7 222.2v19.3m-40.1-23.9l-8.6 4.5v18.6h17.1V222l-8.5-4.4z"/></g></g></g><path d="M166.8 225.3a2.65 2.65 0 0 0-2.6 2.6 2.65 2.65 0 0 0 2.6 2.6 2.65 2.65 0 0 0 2.6-2.6c0-1.4-1.1-2.6-2.6-2.6zm5.1 9.7a2.65 2.65 0 0 0 2.6 2.6 2.65 2.65 0 0 0 2.6-2.6 2.65 2.65 0 0 0-2.6-2.6c-1.5 0-2.6 1.1-2.6 2.6zm-7.3 2.3l12.4-12.4" class="AT AR AZ Ac"/><g class="AW AR AZ Ac"><path d="M179.3 181h-16.7l-7 3.3 2.5 5.8 4.5-2.1v14.7h16.7V188l4.6 2.1 2.4-5.8z" class="Ar"/><path d="M175.5 181a4.48 4.48 0 1 1-9 0h9z"/></g><path d="M108.4 100.7c0-1.5 1.2-2.8 2.8-2.8h229.6c.4 0 .8.1 1.1.2-.4-1.7-2-3-3.8-3H109.6c-2.2 0-3.9 1.8-3.9 3.9v156.4c0 .1.9.3 2.7.4V100.7z" class="Af"/><path d="M110.9 108.8v-3.6c0-2.6 2.1-4.8 4.8-4.8H332c2.6 0 4.8 2.1 4.8 4.8v3.6c0 2.6-2.1 4.8-4.8 4.8H115.7c-2.6 0-4.8-2.2-4.8-4.8z" class="Ab"/><path d="M329.8 110.9h-85.6c-2 0-3.6-1.6-3.6-3.6h0c0-2 1.6-3.6 3.6-3.6h85.6c2 0 3.6 1.6 3.6 3.6h0c-.1 2-1.7 3.6-3.6 3.6z" class="AW"/><circle cx="118.7" cy="107" r="4.6" class="AY"/><circle cx="118.7" cy="107" r="1.8" class="Ab"/><circle cx="132.2" cy="107" r="4.6" class="AY"/><circle cx="132.2" cy="107" r="1.8" class="Ab"/><circle cx="145.7" cy="107" r="4.6" class="AY"/><g class="Ab"><circle cx="145.7" cy="107" r="1.8"/><use xlink:href="#E"/><use xlink:href="#E" y="-18.4"/><use xlink:href="#E" y="-36.8"/><circle cx="325.4" cy="236" r="2.8"/><circle cx="325.4" cy="217.6" r="2.8"/><circle cx="325.4" cy="199.2" r="2.8"/></g><path d="M226.1 128.8h-53.9a2.69 2.69 0 0 1-2.7-2.7h0a2.69 2.69 0 0 1 2.7-2.7h53.9a2.69 2.69 0 0 1 2.7 2.7h0c-.1 1.5-1.3 2.7-2.7 2.7z" class="AR AT AZ Am"/><path d="M225.7 139.5h-31.9a2.69 2.69 0 0 1-2.7-2.7h0a2.69 2.69 0 0 1 2.7-2.7h31.9a2.69 2.69 0 0 1 2.7 2.7h0a2.69 2.69 0 0 1-2.7 2.7z" class="AW"/><path d="M335.2 169.8h74.6a8.28 8.28 0 0 1 8.3 8.3v117.4a8.28 8.28 0 0 1-8.3 8.3h-74.6a8.28 8.28 0 0 1-8.3-8.3V178c0-4.5 3.7-8.2 8.3-8.2z" class="Af"/><path d="M410.2 286.6v-99.8c0-5.1-4.1-9.2-9.2-9.2h-57c-5.1 0-9.2 4.1-9.2 9.2v99.8c0 5.1 4.1 9.2 9.2 9.2h57c5.1.1 9.2-4.1 9.2-9.2z" fill="#eef"/><path d="M407.1 177.6H338a3.12 3.12 0 0 0-3 2.2c.5-.3 1-.4 1.5-.4h70a2.26 2.26 0 0 1 2.3 2.3v112.8c0 .3 0 .6-.1.9 1-.5 1.6-1.6 1.6-2.8V180.8c-.1-1.7-1.5-3.2-3.2-3.2z" opacity=".4" class="Ab"/><g class="AY"><use xlink:href="#F"/><circle cx="345" cy="256.3" r="2.8"/><use xlink:href="#F" y="14.1"/><circle cx="345" cy="270.4" r="2.8"/><use xlink:href="#F" y="28.3"/><circle cx="345" cy="284.6" r="2.8"/><path d="M384.6 194.7h-24c-10.1 0-18.3 8.2-18.3 18.3v14.6c0 10.1 8.2 18.3 18.3 18.3h24c10.1 0 18.3-8.2 18.3-18.3V213c0-10.1-8.2-18.3-18.3-18.3z"/></g><g class="AV"><path d="M385.2 228.8h-26.5c-.5 0-.9-.3-1-.8l-4.8-18.3a.96.96 0 0 1 .2-.9c.2-.3.5-.4.9-.4h31.2a1.11 1.11 0 0 1 1.1 1.1v18.3c0 .5-.5 1-1.1 1zm-25.6-2.1h24.6v-16.1h-28.8l4.2 16.1z"/><path d="M360.309 209.59l1.376-.258 3.426 18.282-1.376.258zM377 209.4h1.4v18.3H377zm-8.083.053l1.398-.074.972 18.274-1.398.074z"/><path d="M357.6 220.8h27.7v1.4h-27.7zm-2-5.9h29.6v1.4h-29.6z"/><path d="M378.8 234.9h-15.6v-2.2h15.6a5.34 5.34 0 0 0 5.3-5.3v-23.6a4.23 4.23 0 0 1 4.2-4.2h5.1v2.2h-5.1c-1.1 0-2 .9-2 2v23.6c0 4.2-3.3 7.5-7.5 7.5z"/></g><circle cx="360.1" cy="235.7" r="4.3" fill="#6768bf"/><path d="M358.2 235.7c0 1 .8 1.9 1.9 1.9s1.9-.8 1.9-1.9c0-1-.8-1.9-1.9-1.9s-1.9.8-1.9 1.9z" class="AV"/><circle cx="378" cy="235.7" r="4.3" fill="#6768bf"/><path d="M376.1 235.7c0 1 .8 1.9 1.9 1.9 1 0 1.9-.8 1.9-1.9 0-1-.8-1.9-1.9-1.9-1 0-1.9.8-1.9 1.9z" class="AV"/><path d="M245.5 306.1h-51.1c-1.3 0-2.4-1.1-2.4-2.4h0c0-1.3 1.1-2.4 2.4-2.4h51.1c1.3 0 2.4 1.1 2.4 2.4h0c0 1.4-1.1 2.4-2.4 2.4zM174.4 320h-51.1c-1.3 0-2.4-1.1-2.4-2.4h0c0-1.3 1.1-2.4 2.4-2.4h51.1c1.3 0 2.4 1.1 2.4 2.4h0c-.1 1.3-1.1 2.4-2.4 2.4z" class="AY"/><path d="M126 245.9h.2c.8 0 1.5.5 1.8 1.2l.1.3c.2.4-.1.8-.5.9h0l-1.6-2.4z" class="AS"/><path d="M126.6 314.5l-3.7 2.3s.6 1.8 4.1 1.8 3.7-2.1 4.9-2.1 1.4 2 1.4 2h1c.7-1.7 1.4-3 1-4.1h-8.7z" class="AU"/><path d="M133.1 289.6l-2.5 21.4a2.37 2.37 0 0 1-.9 1.5l-3.1 2.1c1.2 1 3.7 1.3 8.7 0h0c-.9-2-.9-4.3-.1-6.3 2.8-6.8 4.8-13.5 5-18.4l-7.1-.3z" class="AS"/><path d="M138.9 289.7l-4.1-.1-1.7.7-.1 1c1.8 1.2 5 2.2 6.9 2.5.1-.8.3-1.6.3-2.3l-1.3-1.8z" class="As"/><path d="M160.9 314.2l-.9 4.2s1.7.9 4.2-1.6 1.2-4.1 2-4.9 2.4.4 2.4.4l.7-.7c-.6-1.7-1.1-3.1-2.2-3.6l-6.2 6.2z" class="AU"/><path d="M147.9 292l13.3 16.9c.4.5.5 1.1.4 1.7l-.7 3.7c1.6-.1 3.5-1.7 6.2-6.2h0c-2-.8-3.7-2.4-4.5-4.4-2.8-6.8-6.1-12.9-9.5-16.6l-5.2 4.9z" class="AS"/><path d="M154 288.1l-1.8-.2-4.4 4.1.8 1c1.8-.4 4.7-1.9 6.8-3l-1.4-1.9z" class="As"/><path d="M137.4 252.6l-1.6 4.6c-.1.2-.4.3-.6.2l-6.8-5.8-2.2 1.9 7.9 7.3c1.4 1.3 3.7.9 4.5-.8l3.1-6.1-4.3-1.3zm15.6-.7l3.6 6.9 3.2 11.6 2.4-.5-1.8-12-3.6-8.8z" class="AS"/><path d="M159 254.5l-.8-2-3.6 2.2.1.4.6 1.2c1-.8 2.2-1.5 3.7-1.8z" class="As"/><path d="M146.1 240.3c4.9 2.5 8.8-.9 8.8-.9-2.7-1.4-3.6-5.4-3.6-6.7l-2.5-1.1-2.7 8.7z" class="AX"/><path d="M144.6 239.7l-.5 2.6h5l-.8-6.6-3.6 3.5z" class="At"/><g class="AX"><path d="M138.2 232.2c.1 1.3-.9 5.3-3.4 6.6 3.5 2.4 6.8 1.1 6.8 1.1l-1.7-8-1.7.3z"/><path d="M136.9 232.2c.1-3.5 1.2-5.9 2.8-7.2 1.8-1.4 4.5-2.4 7.2-1.2s4.8 4.5 4.3 8.9l-14.3-.5z"/></g><path d="M139.4 231.4c0 3.4 1.2 8.4 2.5 9.1 1.3.6 2.3.6 3.8-.4 1.4-1 4-4.7 4.2-6.9.1-2.2-3.2-6.1-3.2-6.1l-4.9 1.7c-1.3.4-2.4 2.6-2.4 2.6z" class="AS"/><g class="AX"><path d="M145.5 229.9c-.5 1.3-1.8 2.2-3.3 2.5.3-.5.6-1.1.7-1.7-.1.2-.3.6-.6.9-.9 1.1-2.2 1.9-3.6 1.9-.6 0-1.2-.1-1.7-.3V232l3.8-4.4 4.5-1.1.2 3.4z"/><path d="M145.4 229.5c.2 1.7 1.4 3.1 3 3.7h.1c1.9.6 2.8-1.1 2.8-1.1l-5.1-5.6-1 .9.2 2.1z"/></g><path d="M147.1 233.2c0 1 .7 1.8 1.5 1.8s1.5-.8 1.5-1.8-.7-1.8-1.5-1.8c-.8.1-1.5.9-1.5 1.8z" class="AS"/><path d="M143.1 242.4h0c-2.6 1.1-4.6 3.3-5.2 6.1l-1 4.3 4.1 3.1.5-1.1.1 1.5-.8 5.6h11.6l-.5-2.3 1-6.9 2 3.8 4.3-3.3-1.5-4.1c-1-2.8-3.1-5.1-5.8-6.4-.8-.4-1.7-.6-2.6-.6h-4.6a4.53 4.53 0 0 0-1.6.3z" class="Aa"/><defs><path id="A" d="M143.1 242.4h0c-2.6 1.1-4.6 3.3-5.2 6.1l-1 4.3 4.1 3.1.5-1.1.1 1.5-.8 5.6h11.6l-.5-2.3 1-6.9 2 3.8 4.3-3.3-1.5-4.1c-1-2.8-3.1-5.1-5.8-6.4-.8-.4-1.7-.6-2.6-.6h-4.6a4.53 4.53 0 0 0-1.6.3z"/><path id="B" d="M257.755 139.375l7.071-7.071 1.485 1.485-7.071 7.071z"/><path id="C" d="M257.756 133.721l1.485-1.485 7.071 7.071-1.485 1.485z"/><path id="D" d="M144.8 211.8h-25a4.91 4.91 0 0 0-4.9 4.9v25a4.91 4.91 0 0 0 4.9 4.9h25a4.91 4.91 0 0 0 4.9-4.9v-25a4.91 4.91 0 0 0-4.9-4.9z"/><path id="E" d="M241.8 233.3h70.8a2.69 2.69 0 0 1 2.7 2.7h0a2.69 2.69 0 0 1-2.7 2.7h-70.8a2.69 2.69 0 0 1-2.7-2.7h0a2.69 2.69 0 0 1 2.7-2.7z"/><path id="F" d="M398.4 259h-43.8a2.69 2.69 0 0 1-2.7-2.7h0a2.69 2.69 0 0 1 2.7-2.7h43.8a2.69 2.69 0 0 1 2.7 2.7h0c-.1 1.5-1.3 2.7-2.7 2.7z"/><path id="G" d="M157 237.6c-.5 0-.8.4-.8.9s.4.8.9.8.8-.4.8-.9c-.1-.4-.4-.8-.9-.8z"/><path id="H" d="M157 241.9c-.5 0-.8.4-.8.9s.4.8.9.8.8-.4.8-.9-.4-.8-.9-.8z"/><path id="I" d="M157 246.2c-.5 0-.8.4-.8.9s.4.8.9.8.8-.4.8-.9c0-.4-.4-.8-.9-.8z"/><path id="J" d="M157.1 250.5c-.5 0-.8.4-.8.9s.4.8.9.8.8-.4.8-.9c-.1-.4-.5-.8-.9-.8z"/><path id="K" d="M153.5 239.8c-.5 0-.8.4-.8.9s.4.8.9.8.8-.4.8-.9c-.1-.5-.4-.8-.9-.8z"/><path id="L" d="M143.6 242.1a.68.68 0 1 0 1.4 0 .68.68 0 0 0-.7-.7c-.4 0-.7.4-.7.7z"/><path id="M" d="M144.7 242.6a.68.68 0 1 0 1.4 0 .68.68 0 1 0-1.4 0z"/><path id="N" d="M150.9 261.1c-.5.1-.8.5-.7 1s.5.8 1 .7.8-.5.7-1c-.1-.4-.5-.7-1-.7z"/><path id="O" d="M151.5 265.4c-.5.1-.8.5-.7 1s.5.8 1 .7.8-.5.7-1-.5-.8-1-.7z"/><path id="P" d="M153.2 278.2c-.5.1-.8.5-.7 1s.5.8 1 .7.8-.5.7-1-.6-.8-1-.7z"/><path id="Q" d="M147.7 263.7c-.5.1-.8.5-.7 1s.5.8 1 .7.8-.5.7-1c-.1-.4-.5-.8-1-.7z"/><path id="R" d="M150 280.8c-.5.1-.8.5-.7 1s.5.8 1 .7.8-.5.7-1c-.2-.5-.6-.8-1-.7z"/><path id="S" d="M143.9 262c-.5.1-.8.5-.7 1s.5.8 1 .7.8-.5.7-1-.5-.7-1-.7z"/><path id="T" d="M137 262.9c-.5.1-.8.5-.7 1s.5.8 1 .7.8-.5.7-1c-.1-.4-.6-.7-1-.7z"/><path id="U" d="M151.1 289.3c-.5.1-.8.5-.7 1s.5.8 1 .7.8-.5.7-1c-.1-.4-.6-.8-1-.7z"/><path id="V" d="M420.8 292.2c-.5 0-.9.4-.9.9s.4.9.9.9.9-.4.9-.9-.4-.9-.9-.9z"/><path id="W" d="M420.8 301.3c-.5 0-.9.4-.9.9s.4.9.9.9.9-.4.9-.9c0-.6-.4-.9-.9-.9z"/><path id="X" d="M406.1 310.3c-.5 0-.9.4-.9.9s.4.9.9.9.9-.4.9-.9c-.1-.5-.5-.9-.9-.9z"/><path id="Y" d="M181 193.8c0 .4.4.7.9.7.4 0 .7-.4.7-.9 0-.4-.4-.7-.9-.7-.4.1-.7.4-.7.9z"/><path id="Z" d="M185 193.3c0 .4.4.7.9.7.4 0 .7-.4.7-.9 0-.4-.4-.7-.9-.7-.4.1-.8.5-.7.9z"/><path id="a" d="M189 192.9c0 .4.4.7.9.7.4 0 .7-.4.7-.9 0-.4-.4-.7-.9-.7-.5.1-.8.5-.7.9z"/><path id="b" d="M196.9 192c0 .4.4.7.9.7.4 0 .7-.4.7-.9 0-.4-.4-.7-.9-.7-.4.1-.7.5-.7.9z"/><path id="c" d="M187.3 196.4c0 .4.4.7.9.7.4 0 .7-.4.7-.9 0-.4-.4-.7-.9-.7-.4 0-.7.4-.7.9z"/><path id="d" d="M193.7 199c0 .4.4.7.9.7.4 0 .7-.4.7-.9 0-.4-.4-.7-.9-.7s-.8.4-.7.9z"/><path id="e" d="M306.394 235.965h-34.2v-.6h34.2z"/><path id="f" d="M343.5 315.6c0 .7-.6 1.4-1.4 1.4-.7 0-1.4-.6-1.4-1.4 0-.7.6-1.4 1.4-1.4s1.4.6 1.4 1.4z"/><path id="g" d="M268.8 204l-1.5.8.3-1.7-1.2-1.2 1.7-.2.7-1.5.8 1.5 1.6.2-1.2 1.2.3 1.7z"/><path id="h" d="M173.9 61.7a.47.47 0 1 1-1 0 .47.47 0 0 1 .5-.5c.3 0 .5.3.5.5z"/><path id="i" d="M193.9 41h.8a.65.65 0 0 0 .6-.6v-.2a.65.65 0 0 0-.6-.6h-.3a.65.65 0 0 1-.6-.6v-.2a.65.65 0 0 1 .6-.6h.8"/></defs><clipPath id="j"><use xlink:href="#A"/></clipPath><g opacity=".7" clip-path="url(#j)" fill="#fee8ed"><use xlink:href="#G"/><use xlink:href="#H"/><use xlink:href="#I"/><use xlink:href="#J"/><path d="M157.1 254.8c-.5 0-.8.4-.8.9s.4.8.9.8.8-.4.8-.9c-.1-.4-.5-.8-.9-.8zm0 4.3c-.5 0-.8.4-.8.9s.4.8.9.8.8-.4.8-.9c-.1-.4-.4-.8-.9-.8z"/><use xlink:href="#K"/><path d="M153.5 244.1c-.5 0-.8.4-.8.9s.4.8.9.8.8-.4.8-.9-.4-.8-.9-.8zm0 4.3c-.5 0-.8.4-.8.9s.4.8.9.8.8-.4.8-.9-.4-.8-.9-.8zm0 4.3c-.5 0-.8.4-.8.9s.4.8.9.8.8-.4.8-.9-.4-.8-.9-.8zm.1 4.3c-.5 0-.8.4-.8.9s.4.8.9.8.8-.4.8-.9c-.1-.4-.5-.8-.9-.8zm-3.6-19.4c-.5 0-.8.4-.8.9s.4.8.9.8.8-.4.8-.9c-.1-.4-.5-.8-.9-.8zm0 8.6c-.5 0-.8.4-.8.9s.4.8.9.8.8-.4.8-.9c-.1-.4-.4-.8-.9-.8zm0 4.3c-.5 0-.8.4-.8.9s.4.8.9.8.8-.4.8-.9c0-.4-.4-.8-.9-.8zm0 4.3c-.5 0-.8.4-.8.9s.4.8.9.8.8-.4.8-.9c0-.4-.4-.8-.9-.8zm0 4.3c-.5 0-.8.4-.8.9s.4.8.9.8.8-.4.8-.9c0-.4-.4-.8-.9-.8zm-3.6-19.3c-.5 0-.8.4-.8.9s.4.8.9.8.8-.4.8-.9c0-.4-.4-.8-.9-.8zm0 5.1c-.5 0-.8.4-.8.9s.4.8.9.8.8-.4.8-.9c-.1-.4-.4-.8-.9-.8zm.1 3.5c-.5 0-.8.4-.8.9s.4.8.9.8.8-.4.8-.9c-.1-.4-.5-.8-.9-.8zm0 4.3c-.5 0-.8.4-.8.9s.4.8.9.8.8-.4.8-.9c-.1-.4-.4-.8-.9-.8zm0 4.3c-.5 0-.8.4-.8.9s.4.8.9.8.8-.4.8-.9c0-.4-.4-.8-.9-.8zm-3.6-19.3c-.5 0-.8.4-.8.9s.4.8.9.8.8-.4.8-.9-.4-.8-.9-.8zm0 8.6c-.5 0-.8.4-.8.9s.4.8.9.8.8-.4.8-.9-.4-.8-.9-.8zm.1 4.3c-.5 0-.8.4-.8.9s.4.8.9.8.8-.4.8-.9c-.1-.5-.5-.8-.9-.8zm0 4.3c-.5 0-.8.4-.8.9s.4.8.9.8.8-.4.8-.9c-.1-.5-.4-.8-.9-.8zm0 4.3c-.5 0-.8.4-.8.9s.4.8.9.8.8-.4.8-.9-.4-.8-.9-.8zm-3.6-19.4c-.5 0-.8.4-.8.9s.4.8.9.8.8-.4.8-.9c0-.4-.4-.8-.9-.8zm0 4.3c-.5 0-.8.4-.8.9s.4.8.9.8.8-.4.8-.9c0-.4-.4-.8-.9-.8zm0 4.3c-.5 0-.8.4-.8.9s.4.8.9.8.8-.4.8-.9c0-.4-.4-.8-.9-.8zm.1 4.3c-.5 0-.8.4-.8.9s.4.8.9.8.8-.4.8-.9c-.1-.4-.5-.8-.9-.8zm0 4.3c-.5 0-.8.4-.8.9s.4.8.9.8.8-.4.8-.9c-.1-.4-.5-.8-.9-.8zm17.6 6.4c-.5 0-.8.4-.8.9s.4.8.9.8.8-.4.8-.9c0-.4-.4-.8-.9-.8zm-3.5-2.1c-.5 0-.8.4-.8.9s.4.8.9.8.8-.4.8-.9c-.1-.4-.5-.8-.9-.8zm-3.5 2.1c-.5 0-.8.4-.8.9s.4.8.9.8.8-.4.8-.9c-.1-.4-.5-.8-.9-.8zm-3.6-2.1c-.5 0-.8.4-.8.9s.4.8.9.8.8-.4.8-.9c0-.4-.4-.8-.9-.8z"/><path d="M143 263.5c-.5 0-.8.4-.8.9s.4.8.9.8.8-.4.8-.9-.4-.8-.9-.8zm-3.5-2.2c-.5 0-.8.4-.8.9s.4.8.9.8.8-.4.8-.9c-.1-.4-.4-.8-.9-.8zm17.6 2.1c-.5 0-.8.4-.8.9s.4.8.9.8.8-.4.8-.9c0-.4-.4-.8-.9-.8zm0 4.3c-.5 0-.8.4-.8.9s.4.8.9.8.8-.4.8-.9c0-.4-.4-.8-.9-.8zm-3.5-2.1c-.5 0-.8.4-.8.9s.4.8.9.8.8-.4.8-.9c-.1-.4-.4-.8-.9-.8zm-3.5-2.2c-.5 0-.8.4-.8.9s.4.8.9.8.8-.4.8-.9c-.1-.4-.5-.8-.9-.8zm0 4.3c-.5 0-.8.4-.8.9s.4.8.9.8.8-.4.8-.9c-.1-.4-.5-.8-.9-.8zm-3.5-2.1c-.5 0-.8.4-.8.9s.4.8.9.8.8-.4.8-.9c-.1-.4-.5-.8-.9-.8z"/><path d="M143 263.5c-.5 0-.8.4-.8.9s.4.8.9.8.8-.4.8-.9-.4-.8-.9-.8zm0 4.3c-.5 0-.8.4-.8.9s.4.8.9.8.8-.4.8-.9c0-.4-.4-.8-.9-.8zm-3.5-2.2c-.5 0-.8.4-.8.9s.4.8.9.8.8-.4.8-.9c0-.4-.4-.8-.9-.8zm17.6 2.1c-.5 0-.8.4-.8.9s.4.8.9.8.8-.4.8-.9c0-.4-.4-.8-.9-.8zm0 4.3c-.5 0-.8.4-.8.9s.4.8.9.8.8-.4.8-.9c0-.4-.4-.8-.9-.8zm-3.5-2.1c-.5 0-.8.4-.8.9s.4.8.9.8.8-.4.8-.9c0-.4-.4-.8-.9-.8zm-3.5-2.2c-.5 0-.8.4-.8.9s.4.8.9.8.8-.4.8-.9c-.1-.4-.5-.8-.9-.8zm0 4.4c-.5 0-.8.4-.8.9s.4.8.9.8.8-.4.8-.9c-.1-.5-.4-.9-.9-.8z"/><path d="M146.6 269.9c-.5 0-.8.4-.8.9s.4.8.9.8.8-.4.8-.9c-.1-.4-.5-.8-.9-.8zm-3.6-2.1c-.5 0-.8.4-.8.9s.4.8.9.8.8-.4.8-.9c0-.4-.4-.8-.9-.8zm.1 4.3c-.5 0-.8.4-.8.9s.4.8.9.8.8-.4.8-.9c-.1-.4-.5-.8-.9-.8zm-3.6-2.2c-.5 0-.8.4-.8.9s.4.8.9.8.8-.4.8-.9c0-.4-.4-.8-.9-.8z"/></g><path d="M141.6 256l-.4-1.4-1.1-1.3c-.8-.9-1-2.3-.3-3.4l1.9-3.3.5.3-1.9 3.3c-.5.8-.4 1.9.3 2.7l1.2 1.4.5 1.6-.7.1z" class="AU"/><path d="M145.8 244.2c1.6 0 4-.2 4.9-1.9-.5-.1-.9-.2-1.4-.2h-4.6c-.6 0-1.1.1-1.6.3h0c-.2.1-.3.1-.5.2.7.7 1.7 1.6 3.2 1.6z" class="AS"/><g class="AV"><use xlink:href="#L"/><use xlink:href="#M"/><use xlink:href="#M" x="1.2" y="0.1"/><use xlink:href="#M" x="2.3"/><use xlink:href="#L" x="4.5"/></g><path d="M140.6 263.8c-1.6 8.2-6.3 12.6-9.1 26 0 0 5.3 3.7 12.1 3.4 6.8-.4 13-4.6 13-4.6l-3.1-18.1s1-4.3-.4-6.7h-12.5z" class="Aa"/><path d="M146.3 292.1l-1-3.5c-.9-3.4-1.1-7.1-.5-10.6l.6.1c-.6 3.4-.4 7 .5 10.4l1 3.5-.6.1zm-6.4-17.8l-.6-.1c.4-1.8.5-3.6.4-5.5h.6c.1 1.8 0 3.7-.4 5.6zm11.188.969l1.962-4.49.55.24-1.962 4.49z" class="AU"/><g opacity=".8"><defs><path id="k" d="M140.6 263.8c-1.6 8.2-6.3 12.6-9.1 26 0 0 5.3 3.7 12.1 3.4 6.8-.4 13-4.6 13-4.6l-3.1-18.1s1-4.3-.4-6.7h-12.5z" opacity=".8"/></defs><clipPath id="l"><use xlink:href="#k"/></clipPath><g clip-path="url(#l)" fill="#fee8ed"><use xlink:href="#N"/><use xlink:href="#O"/><path d="M152 269.6c-.5.1-.8.5-.7 1s.5.8 1 .7.8-.5.7-1c-.1-.4-.5-.7-1-.7zm.6 4.3c-.5.1-.8.5-.7 1s.5.8 1 .7.8-.5.7-1c-.1-.4-.5-.7-1-.7z"/><use xlink:href="#P"/><path d="M153.7 282.4c-.5.1-.8.5-.7 1s.5.8 1 .7.8-.5.7-1c-.1-.4-.5-.7-1-.7z"/><use xlink:href="#Q"/><path d="M148.3 268c-.5.1-.8.5-.7 1s.5.8 1 .7.8-.5.7-1-.6-.8-1-.7zm.5 4.2c-.5.1-.8.5-.7 1s.5.8 1 .7.8-.5.7-1c-.1-.4-.5-.7-1-.7zm.6 4.3c-.5.1-.8.5-.7 1s.5.8 1 .7.8-.5.7-1c-.1-.4-.5-.8-1-.7z"/><use xlink:href="#R"/><use xlink:href="#S"/><circle transform="matrix(.9461 -.3238 .3238 .9461 -78.709 61.2199)" cx="144.6" cy="267.1" r=".8"/><path d="M145.1 270.6c-.5.1-.8.5-.7 1s.5.8 1 .7.8-.5.7-1-.6-.8-1-.7zm.5 4.2c-.5.1-.8.5-.7 1s.5.8 1 .7.8-.5.7-1c-.1-.4-.5-.7-1-.7zm.6 4.3c-.5.1-.8.5-.7 1s.5.8 1 .7.8-.5.7-1c-.1-.4-.5-.8-1-.7zm.5 4.3c-.5.1-.8.5-.7 1s.5.8 1 .7.8-.5.7-1-.5-.8-1-.7zm-6-18.8c-.5.1-.8.5-.7 1s.5.8 1 .7.8-.5.7-1c-.1-.4-.5-.7-1-.7zm.6 4.3c-.5.1-.8.5-.7 1s.5.8 1 .7.8-.5.7-1c-.1-.4-.5-.8-1-.7zm.6 4.3c-.5.1-.8.5-.7 1s.5.8 1 .7.8-.5.7-1c-.2-.5-.6-.8-1-.7zm.5 4.2c-.5.1-.8.5-.7 1s.5.8 1 .7.8-.5.7-1c-.1-.4-.5-.7-1-.7z"/><circle transform="matrix(.9269 -.3753 .3753 .9269 -95.5685 74.3458)" cx="143.1" cy="282.5" r=".8"/><use xlink:href="#T"/><circle transform="matrix(.9269 -.3753 .3753 .9269 -90.5348 71.242)" cx="137.6" cy="268.1" r=".8"/><circle transform="matrix(.9461 -.3238 .3238 .9461 -80.7334 59.4198)" cx="138.2" cy="272.3" r=".8"/><path d="M138.6 275.7c-.5.1-.8.5-.7 1s.5.8 1 .7.8-.5.7-1c-.1-.4-.5-.7-1-.7zm.6 4.3c-.5.1-.8.5-.7 1s.5.8 1 .7.8-.5.7-1c-.1-.4-.5-.7-1-.7zm.6 4.3c-.5.1-.8.5-.7 1s.5.8 1 .7.8-.5.7-1-.6-.8-1-.7zm-6-18.8c-.5.1-.8.5-.7 1s.5.8 1 .7.8-.5.7-1c-.2-.4-.6-.7-1-.7zm.5 4.3c-.5.1-.8.5-.7 1s.5.8 1 .7.8-.5.7-1c-.1-.4-.5-.8-1-.7z"/><circle transform="matrix(.9561 -.2932 .2932 .9561 -74.6647 51.6526)" cx="135" cy="274.9" r=".8"/><path d="M135.4 278.3c-.5.1-.8.5-.7 1s.5.8 1 .7.8-.5.7-1c-.1-.4-.5-.7-1-.7zm.6 4.3c-.5.1-.8.5-.7 1s.5.8 1 .7.8-.5.7-1c-.1-.4-.5-.8-1-.7zm18.3 4.1c-.5.1-.8.5-.7 1s.5.8 1 .7.8-.5.7-1c-.1-.4-.5-.7-1-.7zm-3.8-1.7c-.5.1-.8.5-.7 1s.5.8 1 .7.8-.5.7-1c-.1-.4-.5-.7-1-.7zm-3.2 2.6c-.5.1-.8.5-.7 1s.5.8 1 .7.8-.5.7-1c-.1-.4-.5-.7-1-.7z"/><circle transform="matrix(.9461 -.3238 .3238 .9461 -85.1268 61.9649)" cx="143.6" cy="286.8" r=".8"/><circle transform="matrix(.9561 -.2932 .2932 .9561 -78.6689 53.8869)" cx="140.4" cy="289.4" r=".8"/><path d="M136 286.1c-.5.1-.8.5-.7 1s.5.8 1 .7.8-.5.7-1c-.1-.4-.5-.7-1-.7zm18.3.6c-.5.1-.8.5-.7 1s.5.8 1 .7.8-.5.7-1c-.1-.4-.5-.7-1-.7zm.5 4.3c-.5.1-.8.5-.7 1s.5.8 1 .7.8-.5.7-1-.5-.8-1-.7z"/><use xlink:href="#U"/><path d="M147.3 287.6c-.5.1-.8.5-.7 1s.5.8 1 .7.8-.5.7-1c-.1-.4-.5-.7-1-.7zm.6 4.3c-.5.1-.8.5-.7 1s.5.8 1 .7.8-.5.7-1c-.1-.4-.6-.8-1-.7zm-3.8-1.7c-.5.1-.8.5-.7 1s.5.8 1 .7.8-.5.7-1-.5-.7-1-.7z"/><circle transform="matrix(.9561 -.2932 .2932 .9561 -78.6689 53.8869)" cx="140.4" cy="289.4" r=".8"/><path d="M140.9 292.8c-.5.1-.8.5-.7 1s.5.8 1 .7.8-.5.7-1c-.1-.4-.6-.7-1-.7z"/><circle transform="matrix(.9461 -.3238 .3238 .9461 -87.1512 60.1648)" cx="137.2" cy="292" r=".8"/><path d="M154.8 291c-.5.1-.8.5-.7 1s.5.8 1 .7.8-.5.7-1-.5-.8-1-.7zm.6 4.2c-.5.1-.8.5-.7 1s.5.8 1 .7.8-.5.7-1c-.1-.4-.5-.7-1-.7zm-22.9-12.8c-.5.1-.8.5-.7 1s.5.8 1 .7.8-.5.7-1-.5-.8-1-.7zm15.4 9.5c-.5.1-.8.5-.7 1s.5.8 1 .7.8-.5.7-1c-.1-.4-.6-.8-1-.7z"/><circle transform="matrix(.9561 -.2932 .2932 .9561 -80.5458 56.597)" cx="148.5" cy="297" r=".8"/><path d="M144.7 294.5c-.5.1-.8.5-.7 1s.5.8 1 .7.8-.5.7-1-.6-.8-1-.7zm-3.8-1.7c-.5.1-.8.5-.7 1s.5.8 1 .7.8-.5.7-1c-.1-.4-.6-.7-1-.7zm.5 4.3c-.5.1-.8.5-.7 1s.5.8 1 .7.8-.5.7-1-.5-.8-1-.7zm-8.2-9.4c-.5.1-.8.5-.7 1s.5.8 1 .7.8-.5.7-1c-.1-.4-.6-.8-1-.7z"/></g></g><path d="M154.5 279.9l-5.7 23.8 17.6 1.9-.7-24.4z" class="Ad"/><g class="AV"><path d="M149.4 301l-.6 2.7 17.6 1.9-.1-2.8z"/><circle transform="matrix(.9732 -.2298 .2298 .9732 -63.0773 44.4164)" cx="159.2" cy="293.1" r="3.4"/></g><path d="M165 281.1h-1.2l.2-5.6c0-1.2-.8-2.1-2-2.3l-1.5-.1c-1.1-.1-2.1.6-2.4 1.7l-1.2 5.5-1.2-.3 1.2-5.5c.4-1.7 2-2.9 3.7-2.7l1.5.1c1.8.2 3.2 1.7 3.1 3.5l-.2 5.7z" class="Ae"/><path d="M161.7 283.4l-1.7-6.7c-.4-1.6.4-3.2 1.9-3.9l1.5-.7c1.4-.6 3.1-.1 4 1.2l4 5.8-1 .7-4-5.8c-.5-.8-1.6-1.1-2.5-.7l-1.5.7c-.9.4-1.4 1.4-1.2 2.4l1.7 6.7-1.2.3z" class="An"/><path d="M167.6 305.7l-6.5-22.5 10.9-4.7 11.8 21.2z" fill="#fbf8f9"/><path d="M161.4 283l-.3.2 6.5 22.5 3.3-1.2z" fill="#e8e0ff"/><path d="M159.9 270l-.7 1.6c-.3.8-.4 1.6-.1 2.4h0c.3.9 1.3 1.4 2.2 1.1l1.6-.5c.9-.3 1.4-1.3 1.1-2.2l-.1-.3c-.2-.6-.6-1.2-1-1.7l-1.1-1.1-1.9.7z" class="AS"/><path d="M152.9 261.8h-12.1c-.2.8-.3 2.3-.3 2.3h12.9l-.5-2.3z" class="Ae"/><path d="M121.6 241.9l.4-.3c.3-.2.7-.2.9.1l7.3 9.6c.2.3.2.7-.1.9l-.4.3c-.3.2-.7.2-.9-.1l-7.3-9.6c-.2-.3-.2-.7.1-.9z" fill="#4424af"/><path d="M126.4 253.8l-2-2.1c-1.1-1.1-1.3-2.8-.5-4.1l1-1.6c.3-.4.9-.5 1.2-.1l1.6 1.9c.5.6.8 1.5.8 2.3v.7c0 .5-.2.9-.5 1.3l-1.6 1.7z" class="AS"/><path d="M127.6 232.9h-4.3a4.23 4.23 0 0 1-4.2-4.2v-4.3a4.23 4.23 0 0 1 4.2-4.2h4.3a4.23 4.23 0 0 1 4.2 4.2v4.3a4.23 4.23 0 0 1-4.2 4.2z" class="AW"/><path d="M129.1 225.3a1.79 1.79 0 0 0-1.8-1.8c-.5 0-1 .2-1.3.6-.2.3-.4.6-.5 1-.1-.4-.2-.7-.4-.9-.3-.4-.8-.6-1.3-.6a1.79 1.79 0 0 0-1.8 1.8 1.75 1.75 0 0 0 .7 1.4l2.9 2.9 3-3c.3-.4.5-.9.5-1.4z" class="AV"/><path d="M146.6 220.1H142c-2.4 0-4.4-2-4.4-4.4V211c0-2.4 2-4.4 4.4-4.4h4.6c2.4 0 4.4 2 4.4 4.4v4.6c0 2.5-2 4.5-4.4 4.5z" class="An"/><circle cx="144.3" cy="213.1" r="3.7" class="AV"/><g class="An"><use xlink:href="#M" x="-2.3" y="-30.8"/><circle cx="145.4" cy="211.8" r=".7"/><path d="M144.3 215.5c1.3 0 2.4-1.1 2.4-2.4h-4.8c0 1.3 1 2.4 2.4 2.4z"/></g><path d="M442.6 320h-74.2c-1.3 0-2.4-1.1-2.4-2.4h0c0-1.3 1.1-2.4 2.4-2.4h74.2c1.3 0 2.4 1.1 2.4 2.4h0c0 1.3-1.1 2.4-2.4 2.4z" class="AY"/><path d="M383.5 285.8h37.3v31.8h-37.3z" class="Ad"/><path d="M404 285.8h27.3v31.8H404z" class="Ae"/><g class="Ad"><use xlink:href="#V"/><use xlink:href="#V" y="4.5"/><use xlink:href="#W"/><use xlink:href="#V" y="13.6"/><use xlink:href="#V" x="-3.7" y="-2.2"/><use xlink:href="#V" x="-3.7" y="2.3"/><use xlink:href="#V" x="-3.7" y="6.8"/><use xlink:href="#V" x="-3.7" y="11.3"/><use xlink:href="#V" x="-7.4"/><use xlink:href="#W" x="-7.4" y="-4.5"/><use xlink:href="#V" x="-7.4" y="9.1"/><use xlink:href="#V" x="-7.4" y="13.6"/><use xlink:href="#V" x="-11.1" y="-2.2"/><use xlink:href="#V" x="-11.1" y="2.3"/><use xlink:href="#V" x="-11.1" y="6.8"/><use xlink:href="#V" x="-11.1" y="11.3"/><use xlink:href="#V" x="-14.8" y="0.1"/><use xlink:href="#V" x="-14.8" y="4.6"/><use xlink:href="#V" x="-14.8" y="9.1"/><use xlink:href="#V" x="-14.8" y="13.6"/><use xlink:href="#V" y="18.1"/><use xlink:href="#V" x="-3.7" y="15.8"/><use xlink:href="#V" x="-7.4" y="18.1"/><use xlink:href="#V" x="-11.1" y="15.8"/><use xlink:href="#X"/><use xlink:href="#V" y="18.1"/><use xlink:href="#V" y="22.6"/><use xlink:href="#V" x="-3.7" y="20.3"/><use xlink:href="#V" x="-7.4" y="18.1"/><use xlink:href="#V" x="-7.4" y="22.6"/><use xlink:href="#X" x="3.7" y="2.3"/><use xlink:href="#X"/><use xlink:href="#V" x="-14.7" y="22.6"/><use xlink:href="#V" y="22.6"/><use xlink:href="#V" x="-7.4" y="22.6"/><use xlink:href="#V" x="-14.7" y="22.6"/></g><path d="M383.5 285.8H404v7.2h-20.5z" fill="#a06cbd"/><path d="M404 285.8h27.3v7.2H404z" class="Ad"/><path d="M412.7 304.9h13.2v12.7h-13.2z" class="Au"/><path d="M425.9 304.9h13.2v12.7h-13.2z" fill="#ff96d5"/><path d="M425.9 300.4h13.2v4.5h-13.2z" fill="#ffa941"/><g class="AU"><path d="M426.6 301.1l-2.5 1-.4.1-.5-.3a14.29 14.29 0 0 1-2-1.4l-1-.7c-.3-.2-.6-.5-1-.7-.3-.2-.8-.6-1.2-1.3-.3-.6-.5-1.3-.5-1.9 0-.7.2-1.3.5-1.9s.9-1.1 1.5-1.4l.2-.1.1-.1h.1s-.1 0 .1 0h.3c.1 0 .2 0 .3-.1h.8c.3 0 .7.1 1 .2.2 0 .3.1.5.2s.3.1.4.2c.3.2.5.4.8.6.2.3.4.5.6.8.1.1.1.3.2.5l.3.9c.1.4.2.8.4 1.2l.3 1.2.5 2.4.2.6zm-2.2-1l-.8-1.4-.6-1.1c-.2-.4-.4-.7-.5-1.1l-.3-.6-.1-.1v-.1s0-.1-.1-.1c0-.1-.1-.1-.1-.2-.1 0-.1-.1-.2-.1-.1-.1-.3-.1-.4-.1h-.3c.1-.1 0 0 .1 0h0c-.1.1-.2.1-.3.2s-.1.2-.1.4v.6l.1.1s.1.1-.1-.1h0l.3.3c.3.3.6.6.8.9.3.3.6.6.8.9l1.6 1.9-.9-.2 1.1-.1z"/><path d="M427.4 300.1l1 .4-.9.2c.5-.7 1-1.3 1.6-1.9.3-.3.5-.6.8-.9s.6-.6.8-.9l.3-.3v-.2c0-.1.1-.3 0-.4 0-.1-.1-.3-.1-.4-.1-.1-.2-.2-.3-.2h0s-.1 0 .1 0h-.3c-.1 0-.3 0-.4.1-.1 0-.1.1-.2.1 0 0-.1.1-.1.2 0 0 0 .1-.1.1h0v.1l-.1.1-.3.6-.5 1.1-.6 1.1c-.1.2-.4.6-.7 1.1zm-2 .1c.1-.8.3-1.6.5-2.4l.3-1.2c.1-.4.2-.8.4-1.2l.3-.9c.1-.2.1-.3.2-.5.1-.3.4-.6.6-.8s.5-.5.8-.6a.76.76 0 0 1 .4-.2c.2-.1.3-.1.5-.2.3-.1.7-.2 1-.2h.8c.1 0 .2 0 .3.1h.3c.2.1 0 0 .1 0h.1l.1.1.2.1c.6.3 1.1.8 1.5 1.4.3.6.5 1.3.5 1.9 0 .7-.2 1.3-.5 1.9-.4.7-.9 1.1-1.2 1.3s-.6.5-1 .7l-3 2.1-.5.3-.4-.1-2.5-1 .2-.6z"/><path d="M425.8 300.7l-8.3-2.3c-1.5-.4-3 .6-3.3 2.1h0l11.4 1.4.2-1.2zm.2 0l8.3-2.3c1.5-.4 3 .6 3.3 2.1h0l-11.4 1.4-.2-1.2z"/></g><path d="M412.7 300.4h13.2v4.5h-13.2z" fill="#fff0fb"/><path d="M425.9 300.4h13.2v4.5h-13.2z" class="Au"/><path d="M418.1 300.4h2.4v17.2h-2.4z" class="Ag"/><path d="M433.721 317.634h-2.4v-17.2h2.4z" class="AU"/><g fill="#a06cbd"><use xlink:href="#V" x="-19.7"/><use xlink:href="#V" x="-19.7" y="4.5"/><use xlink:href="#W" x="-19.7"/><use xlink:href="#V" x="-19.7" y="13.6"/><use xlink:href="#V" x="-23.4" y="-2.2"/><use xlink:href="#V" x="-23.4" y="2.3"/><use xlink:href="#V" x="-23.4" y="6.8"/><use xlink:href="#V" x="-23.4" y="11.3"/><use xlink:href="#V" x="-27.1"/><use xlink:href="#W" x="-27.1" y="-4.5"/><use xlink:href="#V" x="-27.1" y="9.1"/><use xlink:href="#V" x="-27.1" y="13.6"/><use xlink:href="#V" x="-30.8" y="-2.2"/><use xlink:href="#V" x="-30.8" y="2.3"/><use xlink:href="#V" x="-30.8" y="6.8"/><use xlink:href="#V" x="-30.8" y="11.3"/><use xlink:href="#V" x="-34.5" y="0.1"/><use xlink:href="#V" x="-34.5" y="4.6"/><use xlink:href="#X" x="-19.7" y="-9"/><use xlink:href="#X" x="-19.7" y="-4.5"/><use xlink:href="#V" x="-19.7" y="18.1"/><use xlink:href="#V" x="-23.4" y="15.8"/><use xlink:href="#X" x="-12.3"/><use xlink:href="#X" x="-16" y="-2.3"/><use xlink:href="#V" x="-34.4" y="18.1"/><use xlink:href="#V" x="-19.7" y="18.1"/><use xlink:href="#V" x="-19.7" y="22.6"/><use xlink:href="#V" x="-23.4" y="20.3"/><use xlink:href="#X" x="-12.3"/><use xlink:href="#V" x="-27" y="22.6"/><use xlink:href="#V" x="-30.7" y="20.4"/><use xlink:href="#V" x="-34.4" y="18.1"/><use xlink:href="#V" x="-34.4" y="22.6"/><use xlink:href="#V" x="-19.7" y="22.6"/><use xlink:href="#V" x="-27" y="22.6"/><use xlink:href="#V" x="-34.4" y="22.6"/></g><path d="M394.3 295.6h0" stroke="#70abcf" stroke-width="4.825" class="AR AT"/><path d="M375.5 300.9V298a3.12 3.12 0 0 1 3.1-3.1h12.2v7.2h-3.4V314c0 2-1.6 3.6-3.6 3.6s-3.6-1.6-3.6-3.6v1.2h-4.8l.1-14.3z" fill="#fafaf7"/><path d="M378.9 299.7h5.1m-5.1 4.5h5.1" stroke="#bcb6f9" stroke-width="4" class="AR AT Ai"/><path d="M387.5 302.8v-4.4c0-2 1.6-3.6 3.6-3.6s3.6 1.6 3.6 3.6v4.4h-7.2zm-19.1 6.6v5a3.12 3.12 0 0 0 3.1 3.1h12.2c-1.9-.1-3.3-1.7-3.3-3.6v-4.6h-12z" class="Aq"/><path d="M293.5 176.5H248c-3.4 0-6.2-2.8-6.2-6.2v-4.6c0-3.4 2.8-6.2 6.2-6.2h45.5c3.4 0 6.2 2.8 6.2 6.2v4.6c0 3.4-2.8 6.2-6.2 6.2z" opacity=".4" class="Ab"/><path d="M289 172.6h-45.5c-3.4 0-6.2-2.8-6.2-6.2v-4.6c0-3.4 2.8-6.2 6.2-6.2H289c3.4 0 6.2 2.8 6.2 6.2v4.6c0 3.4-2.8 6.2-6.2 6.2z" class="Au"/><circle cx="289.6" cy="158.6" r="5.2" fill="#fffdff"/><g class="Ag"><path d="M290.45 160.681l-.849.849-4.101-4.101.849-.849z"/><path d="M295.417 154.055l.849.849-6.647 6.647-.849-.849z"/></g><path d="M256.4 168.7h-1.8c-.6 0-1.2-.1-1.9-.1v-9c.6-.1 1.2-.1 1.8-.1h1.6c.7 0 1.3 0 1.8.1s.9.2 1.2.4.5.5.7.8c.1.3.2.7.2 1.1 0 .5-.1 1-.4 1.3-.3.4-.7.6-1.2.7h0a2.65 2.65 0 0 1 1.4.7c.3.4.5.9.5 1.4 0 .9-.3 1.5-.9 1.9-.7.5-1.7.8-3 .8zm-.1-5.4c.7 0 1.1-.1 1.4-.3s.4-.6.4-1.1-.2-.8-.5-1.1c-.3-.2-.8-.3-1.6-.3h-.9c-.3 0-.5 0-.7.1v2.6h1.9zm0 4.1c.7 0 1.3-.1 1.6-.4.3-.2.5-.6.5-1.1s-.2-.8-.5-1.1c-.3-.2-.8-.3-1.5-.3h-2v2.8h1.2c.2.1.4.1.7.1zm9.5 1.3c-.8 0-1.4-.1-1.9-.2-.5-.2-1-.4-1.3-.7s-.6-.7-.7-1.2-.2-1.1-.2-1.7v-5.3h1.8v5.4c0 .8.2 1.4.6 1.8s1 .6 1.8.6 1.4-.2 1.8-.6.6-1 .6-1.8v-5.4h1.8v5.3a7.18 7.18 0 0 1-.2 1.7c-.1.5-.4.9-.7 1.2a2.73 2.73 0 0 1-1.3.7c-.7.1-1.3.2-2.1.2zm8.6-3.1l-3.5-6.2h1.9l2 3.6.4 1h.1l.4-1 2-3.6h1.9l-3.5 6.1v3h-1.8v-2.9z" fill="#fffdff"/><path d="M196.8 180.8l-3.3.2c-.6 0-1.1.3-1.5.7l-2 2.1c-.5.5-.5 1.3 0 1.8h0c.7.7 1.8 1 2.8.8l.8-.2c1.8-.5 3.5-1.3 4.9-2.5h0l-1.7-2.9z" class="AS"/><path d="M204.9 175.6l3.3 4 8.3-11.6-3.6-4.3z" class="Av"/><path d="M201.3 191.5l-1.9-8.4c-.5-2.1-2.4-3.4-4.5-3.2h0c-2.1.2-3.6 2-3.7 4.1l-.1 8.4" stroke="#f24495" stroke-width="2.815" class="AR AT"/><path d="M208.2 208.5c-2-7.1-4-13.8-6.2-18.7l-11.6 1.3c-1.6 5.4-2 12.4-2.1 19.9l19.9-2.5z" fill="#ffc587"/><path d="M202 189.7l-2.9.3 1.6 4.3c2.1 6.2-2 12.8-8.5 13.6l-3.8.5c0 .8 0 1.7-.1 2.5l19.9-2.5c-2-7-4-13.7-6.2-18.7z" class="An"/><defs><path id="m" d="M208.2 208.5c-2-7.1-4-13.8-6.2-18.7l-11.6 1.3c-1.6 5.4-2 12.4-2.1 19.9l19.9-2.5z"/></defs><clipPath id="n"><use xlink:href="#m"/></clipPath><g clip-path="url(#n)" class="AV"><use xlink:href="#Y"/><use xlink:href="#Z"/><use xlink:href="#a"/><path d="M193 192.4c0 .4.4.7.9.7.4 0 .7-.4.7-.9 0-.4-.4-.7-.9-.7-.5.1-.8.5-.7.9z"/><use xlink:href="#b"/><path d="M200.9 191.5c0 .4.4.7.9.7.4 0 .7-.4.7-.9 0-.4-.4-.7-.9-.7-.4.1-.7.5-.7.9zm-17.5 5.3c0 .4.4.7.9.7.4 0 .7-.4.7-.9 0-.4-.4-.7-.9-.7-.5.1-.8.5-.7.9z"/><use xlink:href="#c"/><path d="M191.3 195.9c0 .4.4.7.9.7.4 0 .7-.4.7-.9 0-.4-.4-.7-.9-.7-.4.1-.7.5-.7.9zm4-.4c0 .4.4.7.9.7.4 0 .7-.4.7-.9 0-.4-.4-.7-.9-.7-.4 0-.7.4-.7.9zm4-.5c0 .4.4.7.9.7.4 0 .7-.4.7-.9 0-.4-.4-.7-.9-.7-.4.1-.8.5-.7.9zm-17.6 5.3c0 .4.4.7.9.7.4 0 .7-.4.7-.9 0-.4-.4-.7-.9-.7-.4.1-.7.5-.7.9zm4-.5c0 .4.4.7.9.7.4 0 .7-.4.7-.9 0-.4-.4-.7-.9-.7-.4.1-.7.5-.7.9zm4-.4c0 .4.4.7.9.7.4 0 .7-.4.7-.9 0-.4-.4-.7-.9-.7-.4.1-.7.5-.7.9z"/><use xlink:href="#d"/><path d="M197.7 198.5c0 .4.4.7.9.7.4 0 .7-.4.7-.9 0-.4-.4-.7-.9-.7-.5.1-.8.5-.7.9zm3.9-.4c0 .4.4.7.9.7.4 0 .7-.4.7-.9 0-.4-.4-.7-.9-.7-.4 0-.7.4-.7.9zm-17.5 5.2c0 .4.4.7.9.7.4 0 .7-.4.7-.9 0-.4-.4-.7-.9-.7-.4.1-.7.5-.7.9zm4-.4c0 .4.4.7.9.7s.7-.4.7-.9c0-.4-.4-.7-.9-.7-.5.1-.8.4-.7.9zm4-.5c0 .4.4.7.9.7.4 0 .7-.4.7-.9 0-.4-.4-.7-.9-.7-.5.1-.8.5-.7.9zm3.9-.4c0 .4.4.7.9.7.4 0 .7-.4.7-.9 0-.4-.4-.7-.9-.7-.4.1-.7.5-.7.9zm4-.5c0 .4.4.7.9.7.4 0 .7-.4.7-.9 0-.4-.4-.7-.9-.7-.4.1-.7.5-.7.9zm-17.5 5.3c0 .4.4.7.9.7.4 0 .7-.4.7-.9 0-.4-.4-.7-.9-.7-.5.1-.8.5-.7.9zm4-.4c0 .4.4.7.9.7.4 0 .7-.4.7-.9 0-.4-.4-.7-.9-.7s-.8.4-.7.9zm3.9-.5c0 .4.4.7.9.7.4 0 .7-.4.7-.9 0-.4-.4-.7-.9-.7-.4.1-.7.5-.7.9zm4-.4c0 .4.4.7.9.7.4 0 .7-.4.7-.9 0-.4-.4-.7-.9-.7-.4 0-.7.4-.7.9zm4-.5c0 .4.4.7.9.7.4 0 .7-.4.7-.9 0-.4-.4-.7-.9-.7-.4.1-.8.5-.7.9zm4-.4c0 .4.4.7.9.7.4 0 .7-.4.7-.9 0-.4-.4-.7-.9-.7s-.8.4-.7.9zm-17.6 5.2c0 .4.4.7.9.7.4 0 .7-.4.7-.9 0-.4-.4-.7-.9-.7-.4.1-.7.5-.7.9zm4-.4c0 .4.4.7.9.7.4 0 .7-.4.7-.9 0-.4-.4-.7-.9-.7-.4.1-.7.5-.7.9zm4-.5c0 .4.4.7.9.7.4 0 .7-.4.7-.9 0-.4-.4-.7-.9-.7-.4.1-.8.5-.7.9zm4-.4c0 .4.4.7.9.7.4 0 .7-.4.7-.9 0-.4-.4-.7-.9-.7-.5.1-.8.5-.7.9zm4-.4c0 .4.4.7.9.7s.7-.4.7-.9c0-.4-.4-.7-.9-.7s-.8.4-.7.9zm4.1-17c0 .4.4.7.9.7.4 0 .7-.4.7-.9 0-.4-.4-.7-.9-.7-.4.1-.8.5-.7.9zm-1.6 3.5c0 .4.4.7.9.7.4 0 .7-.4.7-.9 0-.4-.4-.7-.9-.7-.5.1-.8.4-.7.9zm2.3 3c0 .4.4.7.9.7.4 0 .7-.4.7-.9 0-.4-.4-.7-.9-.7-.4.1-.7.5-.7.9zm-1.6 3.5c0 .4.4.7.9.7.4 0 .7-.4.7-.9 0-.4-.4-.7-.9-.7-.4.1-.7.5-.7.9zm2.4 3c0 .4.4.7.9.7.4 0 .7-.4.7-.9 0-.4-.4-.7-.9-.7-.5.1-.8.5-.7.9zm-1.7 3.5c0 .4.4.7.9.7.4 0 .7-.4.7-.9 0-.4-.4-.7-.9-.7-.4.1-.7.5-.7.9z"/><path d="M204.9 191.1c0 .4.4.7.9.7.4 0 .7-.4.7-.9 0-.4-.4-.7-.9-.7-.4.1-.8.5-.7.9zm4-.5c0 .4.4.7.9.7.4 0 .7-.4.7-.9 0-.4-.4-.7-.9-.7-.5.1-.8.5-.7.9zm-1.6 3.5c0 .4.4.7.9.7.4 0 .7-.4.7-.9 0-.4-.4-.7-.9-.7-.5.1-.8.5-.7.9zm-1.7 3.5c0 .4.4.7.9.7.4 0 .7-.4.7-.9 0-.4-.4-.7-.9-.7-.4.1-.7.5-.7.9zm4-.4c0 .4.4.7.9.7.4 0 .7-.4.7-.9 0-.4-.4-.7-.9-.7-.4 0-.7.4-.7.9zm-1.6 3.4c0 .4.4.7.9.7.4 0 .7-.4.7-.9 0-.4-.4-.7-.9-.7-.5.1-.8.5-.7.9zm-1.6 3.5c0 .4.4.7.9.7.4 0 .7-.4.7-.9 0-.4-.4-.7-.9-.7-.5.1-.8.5-.7.9zm3.9-.4c0 .4.4.7.9.7.4 0 .7-.4.7-.9 0-.4-.4-.7-.9-.7-.4.1-.7.4-.7.9z"/><path d="M208.7 207.2c0 .4.4.7.9.7.4 0 .7-.4.7-.9 0-.4-.4-.7-.9-.7-.4 0-.7.4-.7.9zm.2-16.6c0 .4.4.7.9.7.4 0 .7-.4.7-.9 0-.4-.4-.7-.9-.7-.5.1-.8.5-.7.9zm4-.4c0 .4.4.7.9.7.4 0 .7-.4.7-.9 0-.4-.4-.7-.9-.7-.5.1-.8.5-.7.9zm-1.7 3.5c0 .4.4.7.9.7.4 0 .7-.4.7-.9 0-.4-.4-.7-.9-.7-.4.1-.7.4-.7.9zm-1.6 3.5c0 .4.4.7.9.7.4 0 .7-.4.7-.9 0-.4-.4-.7-.9-.7-.4 0-.7.4-.7.9zm4-.5c0 .4.4.7.9.7.4 0 .7-.4.7-.9 0-.4-.4-.7-.9-.7-.4.1-.8.5-.7.9z"/><circle cx="212.7" cy="200.1" r=".8"/><path d="M210.3 203.7c0 .4.4.7.9.7.4 0 .7-.4.7-.9 0-.4-.4-.7-.9-.7-.4.1-.7.4-.7.9zm4-.5c0 .4.4.7.9.7.4 0 .7-.4.7-.9 0-.4-.4-.7-.9-.7-.4.1-.7.5-.7.9zm-1.6 3.5c0 .4.4.7.9.7.4 0 .7-.4.7-.9 0-.4-.4-.7-.9-.7-.4.1-.8.5-.7.9z"/></g><g class="AS"><path d="M204.9 175.6l-8.3 5 1.9 3 9.7-4zm36.4-3.9l-1.8-2.5-7.4 4.4c-1.1.7-.2 1.5.6 2.5h0c.7.9.7 2 1.7 1.4 1.6-.9 4.7-3.2 6.9-5.8z"/><path d="M239 169.9l.3-1.9c.1-.8.8-1.5 1.6-1.6l1.5-.2c.5-.1 1 .1 1.3.6l1.2 1.8c.3.5.3 1.1-.1 1.5h0c-.6.8-1.5 1.3-2.4 1.5l-1.9.4-1.5-2.1z"/><path d="M239.7 167.1l3.2-3.1c.1-.1.4-.2.6-.1h0c.2.1.3.4.2.7l-1.4 2.3-2.6.2z"/></g><path d="M225.9 165.1c-.9-.8-2.1-1.1-3.1-.4h0l-1.7 1.2c2.1 3.9 4.5 7.7 7.2 11 1.5 1.9 4.3 2.3 6.3.9h0c-2.3-4.2-4.9-9.1-8.7-12.7z" class="Av"/><path d="M223.5 230h3.9l-.4-2.9h-3.9z" class="AS"/><path d="M227.4 229.1c1.6 1.2 3.6 2.3 6.4 2.8.5.1.9.6.8 1.2h0c-.1.5-.5.8-1 .8h-9.7c-.7 0-1.2-.5-1.2-1.2 0-1.1.1-2.2.6-3.6h4.1z" fill="#292992"/><path d="M194.4 218.4l1.6 3.5 2.4-1.5-1.6-3.5z" class="AS"/><path d="M196.8 221.6c-.4 2-.5 4.2.2 6.9.1.5-.2 1.1-.7 1.2h0c-.5.1-.9-.1-1.1-.5l-4.1-8.8c-.3-.6 0-1.3.6-1.6 1-.5 2.1-.8 3.5-.9l1.6 3.7z" fill="#292992"/><g class="Ae"><path d="M212.7 214.3l-14.5 6.6h-.7l-1.9-3.7c.8-.3 1.6-.8 2.2-1.4 5-4.5 8.8-7 13-8.7l2.7 4.5c.6 1 .3 2.2-.8 2.7z"/><path d="M209.6 211.5c-1.1-4.5 1.7-12.7 3.6-17l10.3-.1-10.3 19.8-3.6-2.7z"/><path d="M222.8 208.7c-1.9-3.9-5.2-10.4-4.3-16.4l7.9-6.6 3 23h-6.6z"/><path d="M229.3 208.7l-1.9 19.4h-4.5c-1.3-5.7-1.7-13.1-.1-20.9l6.5 1.5zm-17-10h14.4V190c0-1.7-1.3-3-3-3h-8.8c-2.8 2.4-5.3 8.5-2.6 11.7z"/></g><path d="M213.3 188.8h13.3v-.3c-.6-4.4-1.3-6.4-.9-10.1.1-1.4.7-2.2 1-3.9l.5-2.8c1.3-5.3-3.3-11.1-8.7-10.2l-3.4.6s-2.2 1.7-2.8 4.4c-1.2 5.6-1.2 14.6 1 22.3z" class="Av"/><path d="M227.2 151.2c-.1.2.1.5.2.7.2.2.4.3.6.5.5.5.5 1.3.4 2 .1-.4-.2-.9-.6-1.1s-.9-.4-1.2-.7-.5-.9-.2-1.2c.2-.4.6-.4.8-.2z" class="AU"/><defs><path id="o" d="M214.4 152.4c.4 3 3.2 5.2 6.2 4.8s5.2-3.2 4.8-6.2-3.2-5.2-6.2-4.8c-3.1.4-5.2 3.2-4.8 6.2z"/></defs><g class="AU"><use xlink:href="#o"/><circle transform="matrix(.065287 -.9979 .9979 .065287 41.2139 368.1021)" cx="217.1" cy="162.1" r="6.2"/><circle transform="matrix(.5047 -.8633 .8633 .5047 -19.0342 268.1935)" cx="224.2" cy="150.7" r="3.5"/></g><g class="AS"><path d="M218.9 157.9l4.5-.6.5 6c.1 1.3-1.2 2.2-2.4 1.7l-2.3-1.1c.3-2.3.2-4.4-.3-6z"/><path d="M226.2 150.9l-7.3.3 3.4 9.5 2.6.3c.9.1 1.7-.4 2-1.2 1.1-2.9.9-5.9-.7-8.9z"/></g><path d="M219.3 151.8c.3 2.2 2.3 3.7 4.4 3.4 2.2-.3 3.7-2.3 3.4-4.4-.3-2.2-2.3-3.7-4.4-3.4s-3.7 2.2-3.4 4.4z" class="AU"/><path d="M220.4 148.9l-.4-.3c.7-.8 1.6-1.3 2.7-1.5l.1.5c-1 .2-1.8.6-2.4 1.3z" class="Ag"/><path d="M217.9 161.1c3.3-2.3 5-5.5 4.6-8.6-.4-3.2-8.1-1-8.1-1v.1c-.3 3.5 1 6.9 3.5 9.5h0z" class="AU"/><defs><path id="p" d="M213.3 165.8c-.4-1.1-.3-2.3-.2-3.4.1-1 .2-2 .6-2.9.5-1.1 1.3-2 2.1-2.9 1-1.2 2.3-2.4 3.8-2.4.6 0 1.3.2 1.8.4.9.4 1.5-.3 2.3 1.8.3.8.1 1.7-.3 2.4s-1.1 1.3-1.7 1.8-1.2 1-1.3 1.7c-.1.8.4 1.6 1 2.2s1.2 1.2 1.4 2c.2.9-.3 1.8-1 2.4s-1.5.9-2.3 1.2c-.4.2-.8.3-1.3.3s-1-.3-1.5-.6c-1.4-1.2-2.8-2.4-3.4-4z"/></defs><use xlink:href="#p" class="AU"/><defs><path id="q" d="M225.1 170.1c.7 4.9-2.7 9.3-7.5 9.9h-.4c-4.1.3-7-3.7-5.7-7.6.6-1.7.8-3.5.6-5.4-.1-1-.4-2-.7-2.9 1.2-.8 2.5-1.4 4.1-1.6 4.6-.5 8.9 2.8 9.6 7.6z"/></defs><use xlink:href="#q" class="AU"/><path d="M223.5 155.9c.3.7 1.1 1.2 1.6.9.5-.2.7-1 .4-1.8-.3-.7-1.1-1.2-1.6-.9-.6.3-.8 1.1-.4 1.8z" class="AS"/><path d="M210.6 169.1c.3 2 2.1 3.4 4.1 3.1s3.4-2.1 3.1-4.1-2.1-3.4-4.1-3.1c-1.9.3-3.3 2.2-3.1 4.1z" class="AU"/><path d="M220.6 163.9c-1.6-.9-3.5-1.3-5.3-1.1l-.1-.5a8.39 8.39 0 0 1 5.6 1.1l-.2.5zm-8.3-5.2l-.4-.3a6.49 6.49 0 0 1 4.7-2.8l.1.5c-1.8.2-3.3 1.2-4.4 2.6z" class="Ag"/><path d="M196.9 180.6l-5.3-1.2c-.2-.1-.5 0-.6.3h0c-.2.3-.1.6.2.8l3.7 1.8 2-1.7z" class="AS"/><path d="M233.6 233.9h-17.4l10.2 70h2.2l-.9-6.4h13l.9 6.4h2.2l-10.2-70zm-14.9 2h13l1.2 8.1h-13l-1.2-8.1zm1.5 10.2h13l1.2 8.1h-13l-1.2-8.1zm1.5 10.3h13l1.2 8.1h-13l-1.2-8.1zm1.5 10.3h13l1.2 8.1h-13l-1.2-8.1zm1.5 10.2h13l1.2 8.1h-13l-1.2-8.1zm2.7 18.4l-1.2-8.1h13l1.2 8.1h-13z" class="AX"/><path d="M207.2 233.9l-10.2 70h2.2l.9-6.4h13l-.9 6.4h2.2l10.2-70h-17.4zm6.2 61.4h-13l1.2-8.1h13l-1.2 8.1zm1.5-10.3h-13l1.2-8.1h13l-1.2 8.1zm1.5-10.3h-13l1.2-8.1h13l-1.2 8.1zm1.5-10.2h-13l1.2-8.1h13l-1.2 8.1zm1.5-10.3h-13l1.2-8.1h13l-1.2 8.1zm-11.5-10.3l1.2-8.1h13l-1.2 8.1h-13z" class="Aq"/><path d="M347 320h-74.2c-1.3 0-2.4-1.1-2.4-2.4h0c0-1.3 1.1-2.4 2.4-2.4H347c1.3 0 2.4 1.1 2.4 2.4h0c-.1 1.3-1.1 2.4-2.4 2.4z" class="AY"/><path d="M345.5 271.8c.2 0 .4 0 .5-.1.3-.2.6-.5.7-.8s0-.7-.2-1-.5-.5-.8-.5l-4.2-.5-1-4.4c-.1-.6-.7-1-1.3-.9-.4.1-.7.3-.8.6-.2.3-.2.7 0 1.1l1.8 3.3.4-.2-1.8-3.3c-.1-.2-.1-.4 0-.6s.3-.3.5-.4c.4-.1.7.2.8.5l1.1 4.7 4.6.5a.55.55 0 0 1 .5.3c.1.2.2.4.1.6 0 .2-.2.4-.4.5s-.5.1-.7 0l-2.9-1.5-.2.4 2.9 1.5c0 .1.2.2.4.2z" class="Aa"/><path d="M313.9 285.1l1-13.1c.2-3 2.8-5.2 5.8-5l4.1.3c3 .2 5.2 2.8 5 5.8l-1 13.1c-.2 3-2.8 5.2-5.8 5l-4.1-.3c-3-.2-5.2-2.8-5-5.8z" class="Ae"/><path d="M346.568 273.919l-15.627 15.627-11.031-11.031 15.627-15.627z" fill="#ffc587"/><path d="M325.664 284.067l15.627-15.627.354.354-15.627 15.627z" class="Aa"/><path d="M344.508 292.618h-22.1v-15.6h22.1z" class="AX"/><g class="Aj"><path d="M299.8 256l-2.4-11.3-5.6 3.4 4.8 12.3z"/><path d="M298.1 257.2l9.5-12.4 5.3-1.9.6.6v2.5c.2 1-2.5 2.6-5.3 3l-4.7 9.3-5.4-1.1z"/></g><path d="M309.9 237.9h2.7c.8 0 1.4.6 1.4 1.4v8.1c0 .8-.6 1.4-1.4 1.4h-2.7c-.8 0-1.4-.6-1.4-1.4v-8.1c0-.7.6-1.4 1.4-1.4z" class="AX"/><path d="M313.3 247.8V239c0-.2-.2-.4-.4-.4h-3.3c-.2 0-.4.2-.4.4v8.7c0 .2.2.4.4.4h3.3c.3.1.4-.1.4-.3z" fill="#4424af"/><path d="M312.392 240.2h-2.2v-.2h2.2zm.4 1.022h-3v-.2h3z" class="AX"/><g class="Aj"><path d="M307.1 246.7l.4-2.7c0-.4.3-.7.6-.8l2.4-1.1c.2-.1.5 0 .6.3h0c0 .2 0 .3-.1.4l-1.7 1.4c.5 1.6 0 2.6-1.2 3.3l-1-.8zm6.4-2.7h1.2v-.1a1.11 1.11 0 0 0-1.1-1.1h-.1a.65.65 0 0 0-.6.6h0a.65.65 0 0 0 .6.6z"/><path d="M313.5 245.2h1.2V244h-1.2a.65.65 0 0 0-.6.6h0c0 .4.3.6.6.6zm0 1.3h1.2v-1.2h-1.2a.65.65 0 0 0-.6.6h0a.65.65 0 0 0 .6.6z"/><path d="M313.8 247.4h-.2a1.11 1.11 0 0 0 1.1-1.1h0-.9a.47.47 0 0 0-.5.5h0c0 .4.2.6.5.6z"/></g><path d="M298 311.5v-3.9h-4.9l.4 4z" class="Ak"/><path d="M280 296.8l-2.8 3.5 2.8 3.3 3.2-3z" class="Aj"/><path d="M280.2 303.8h0c-.4.7-.5 1.6-.3 2.3l1.7 6.7c.2.9-.1 1.8-.8 2.4l-.6.5-8.2-11.2c1.3-2 2.7-3.7 4.9-4.4l3.3 3.7z" class="AX"/><path d="M277.8 305.1h2.1m-1.5 1.6l1.6-.5m-.9 2l1.3-.4" stroke="#fff" class="AR AT Ai Aw"/><path d="M296.9 270l1.3 15.4c.1 1.4-.4 2.7-1.4 3.6l-14.6 13.5-3.8-4.4c3.7-6 7.6-11.1 11-14.8l-7.2-13.8 10.1-1.1 4.6 1.6z" class="Ag"/><path d="M281.5 295.5l-.4-.2a33.89 33.89 0 0 1 3.7-5l.3.3c-.8 1-2.2 2.6-3.6 4.9zm7.9-12.3l-6.1-11.8 7.6-.1 5.8 17.6-6.6 6.1-.4-2.6c-.2-1.4-.8-2.7-1.6-3.8l-1.6-2.1 2.9-3.3z" class="AU"/><path d="M293.6 270.5l4.2 18.5.9 18.8h-5.8c-1.8-7.3-2.3-11.7-2.6-18.5l-7.2-11.3c-1.4-2.6-1.8-5.7-.9-8.5h0l11.4 1z" class="Ag"/><path d="M294.9 288.4h1.9v.5h-1.9zm-.1 1.4h2.1v.5h-2.1zm-.465-14.985l.488-.11 2.903 12.877-.488.11zM292.2 309.5h6.6v-1.8h-6.6z" class="AU"/><path d="M298.2 311.5h0c0 .7.4 1.3 1 1.5l6.6 2.6c.8.3 1.4 1.1 1.5 2l.1.8h-14c-.9-2.2-1-4.2.1-5.7v-1.2h4.7z" class="AX"/><path d="M297.8 314.5l1.1-1.7m.5 2.2l.5-1.6m1.2 1.8l.4-1.3" stroke="#fff" class="AR AT Ai Aw"/><path d="M278 297.8l4.2 4.8 1.3-1.2-4.5-5.1z" class="AU"/><path d="M295 239.1l.3.2c3.4 1.6 3.3 4.7 3 7.5-.8 6.4-2 18.7-1.4 23.1-9.2 1.5-11.7-1.2-15 0-.3-7.8 2.3-29.7 3.4-30.5 4.9-3.2 9.7-.3 9.7-.3z" class="Ad"/><defs><path id="r" d="M295 239.1l.3.2c3.4 1.6 3.3 4.7 3 7.5-.8 6.4-2 18.7-1.4 23.1-9.2 1.5-11.7-1.2-15 0-.3-7.8 2.3-29.7 3.4-30.5 4.9-3.2 9.7-.3 9.7-.3z"/></defs><use xlink:href="#r" class="Ae"/><clipPath id="s"><use xlink:href="#r"/></clipPath><g clip-path="url(#s)"><use xlink:href="#e" class="AV"/><g class="Ad"><path d="M306.394 239.207h-34.2v-.6h34.2zm0 3.342h-34.2v-.6h34.2zm0 3.241h-34.2v-.6h34.2zm0 3.242h-34.2v-.6h34.2zm0 3.342h-34.2v-.6h34.2zm0 3.242h-34.2v-.6h34.2zm0 3.242h-34.2v-.6h34.2zm0 3.241h-34.2v-.6h34.2zm0 3.342h-34.2v-.6h34.2zm0 3.242h-34.2v-.6h34.2z"/></g><g class="AV"><path d="M306.394 271.925h-34.2v-.6h34.2zm0 3.342h-34.2v-.6h34.2z"/></g></g><path d="M289 238c.9-.1 1.8-.1 2.6 0l2.2.8c1.2 1 2.1 2.1 1.5 2.6s-2.1.1-3.7-.5c-1-.4-2.3-1.1-3-1.8-.3-.3-.2-1 .4-1.1z" class="Ad"/><g class="Ak"><path d="M290.4 233.6l-.9 4.1c-.1.4 0 .8.3 1.1.8.8 2.5 2.1 5 2.1-.6-2 .8-4.3.8-4.3l-5.2-3z"/><path d="M299.8 224.7l1.5 4.8c.2.6-.1 1.1-.7 1.3l-.7.2.6 2.7-8.1 4.6-2-3.1-1-10.2 7-2.1 3.4 1.8zm-8.2 26.6l.3 4.9c0 .2.2.4.4.4 3.5.1 7.7.8 11.1 1.3l-.5 3.3h-13.2c-1.4 0-2.7-1-2.9-2.4-.6-3.1-1-5.8-.9-9.1l5.7 1.6z"/></g><path d="M285.8 251v-1.3l5.7.8.1 1.2-5.8-.7z" class="Ad"/><g class="AW"><path d="M315.1 306.3l1.3-.1-4.8-44c-.1-.5-.3-.9-.8-1.1l-5.1-2.5-.6 1.2 5.1 2.5 4.9 44z"/><path d="M311.7 273.2l.2 2.2.1.8.2 2.2.1.8.2 2.2.1.8.2 2.2.1.8.2 2.2.1.8.2 2.2.1.8.2 2.2h30.6l.5-2.2.2-.8.4-1.7.2-.8.4-1.7.2-.8.4-1.7.2-.8.4-1.7.2-.8.4-1.7.2-.8.4-2.1-36.7-2.6zm.9.8l34.6 2.4-.3 1.4-.2.8-.4 1.7-.2.8-.4 1.7-.2.8-.4 1.7-.2.8-.4 1.7-.2.8-.4 1.7-.2.8-.3 1.4h-29.3l-.2-1.4-.1-.8-.2-2.2-.1-.8-.2-2.2-.1-.8-.2-2.2-.1-.8-.2-2.2-.1-.8-.2-2.2-.1-.8.3-1.3z"/><path d="M318.4 273.6v.8l.6 8.9.1.7.6 8.5v.7h.8l-.1-.7-.6-9.1-.1-.6-.6-8.3v-.8zm8.1 19.6h.6v-.7l.2-8.5v-.6l.1-8.3v-.8h-.7v.7l-.1 8.5v.6l-.1 8.4zm5.5 0h.7v-.7l.9-8v-.5l.9-8.3.1-.8h-.7l-.1.7-.8 8-.1.6-.8 8.3zm5.4 0h.8l.2-.7 1.6-8 1.7-8.2.2-.8h-.8l-.1.7-1.7 8.2-1.7 8.1z"/><path d="M313.6 288.7v.8h31.3l.2-.8zm-.7-5.2l.1.8h.8l31.4.9h.8l.1-.7h-.8l-31.6-.9zm-.6-5.7v.8h.8l33.1 1.9h.8l.1-.8h-.7l-33.4-1.8zm24.193 28.464l2.535-13.565 1.376.257-2.535 13.565z"/><path d="M313.3 313.5l.5-3.2c.4-2.5 2.5-4.3 5.1-4.3h13.8a8.92 8.92 0 0 1 8.8 7.5l1.3-.2c-.8-5-5-8.6-10.1-8.6h-13.8c-3.2 0-5.9 2.3-6.4 5.5l-.5 3.2 1.3.1zm1.7-15.3h23.8v1.4H315z"/></g><circle transform="matrix(.2298 -.9732 .9732 .2298 -43.6054 576.0753)" cx="342.1" cy="315.6" r="3.3" class="Aa"/><use xlink:href="#f" class="AV"/><circle transform="matrix(.2298 -.9732 .9732 .2298 -66.3038 547.3946)" cx="312.7" cy="315.6" r="3.3" class="Aa"/><use xlink:href="#f" x="-29.5" class="AV"/><path d="M291.2 235l.2-.8 4.2 2.4s-.7 1.2-.9 2.7l-1.3-.3c-1.6-.7-2.5-2.4-2.2-4z" opacity=".4" class="Ak"/><g class="AX"><circle cx="286.6" cy="221.8" r="3.8"/><path d="M298.1 219.2l-5.8.3c-2 .1-3.8 1.4-4.5 3.3l-1.5 3.8c-.5 1.2-.4 2.5.2 3.7l3.3 3.4c2.3.3 5.7-9.1 8.3-14.5z"/></g><path d="M292.3 219.6c-2 .1-3.8 1.4-4.5 3.3" class="AR AT Ao Ap"/><path d="M298 225.1h0c2 0 3.8-1.5 4.1-3.5l.1-.5c.2-1.5-1-2.9-2.6-2.7l-3.2.4c-1.5.2-3 .9-4 2.1l-3.6 4.3 9.2-.1z" class="AX"/><path d="M294 219.6c-1.2.6-1.8 1.5-2.4 2.3" class="AR AT Ao Ap"/><path d="M291.7 231.3l-.3 3.5c-.1 1 .3 2 1.1 2.6 1.8 1.4 4.2 2.4 6.6 2.4 4.2 0 .9-8.3.9-8.3-.4-.2-4.2.3-5.5 1.6 0-2.8-.2-6.4.9-8.3h-1.1l-2.6 6.5z" class="AX"/><path d="M297 235.4l.1.7m3.1-1.5l.1.7m-1.3.1l.1.7m.9.6l.1.7m-2.2-.3l.1.6m1 .1v.7" class="AR AT Ai Ao Ap"/><circle cx="292.5" cy="229" r="1.4" class="Ak"/><circle cx="292.3" cy="229.4" r=".5" class="Aj"/><g class="AR AT"><path d="M295.2 225.1h-2" class="Ao Ap"/><path d="M289.4 273.1c-1.7-.3-3.2-.3-4.4 0" stroke="#fff" class="Aw"/></g><path d="M306.5 257.6l2.8 1.5c.2.1.3.4.2.7h0c-.1.2-.4.3-.6.3l-2.9-.9.5-1.6z" class="Aj"/><path d="M303.3 257.9l2.6-.4c.5-.1 1 .1 1.4.5l1.3 1.4c.7.7.9 1.8.4 2.7h0c-.2.5-.8.7-1.3.4l-2.7-1.4h-2.1l.4-3.2z" class="Ak"/><path d="M260.6 198.3h27.9a2.69 2.69 0 0 1 2.7 2.7v10.5a2.69 2.69 0 0 1-2.7 2.7H280v5.2l-5.2-5.2h-14.2a2.69 2.69 0 0 1-2.7-2.7V201a2.69 2.69 0 0 1 2.7-2.7z" class="AV"/><path d="M260.7 207.3h27.6v1.1h-27.6zm0 3.4h27.6v1.1h-27.6z" class="Ah"/><g class="AW"><path d="M263.1 204.3l-1.5.8.3-1.7-1.2-1.2 1.7-.2.7-1.5.8 1.5 1.7.2-1.2 1.2.2 1.7z"/><use xlink:href="#g"/><use xlink:href="#g" x="5.7"/><path d="M280.2 204l-1.5.8.3-1.7-1.2-1.2 1.7-.2.7-1.5.7 1.5 1.7.2-1.2 1.2.3 1.7z"/></g><path d="M285.9 204l-1.5.8.3-1.7-1.2-1.2 1.6-.2.8-1.5.7 1.5 1.7.2-1.2 1.2.3 1.7z" class="Ah"/><g class="AW"><path d="M285.1 201.7l-1.6.2 1.2 1.2-.3 1.7 1.5-.8v-3.8zM176.3 76.2h14.6v1.7h-14.6z"/><path d="M192.1 77l6.5-11.3c.2-.4.1-.9-.3-1.2l-.5-.3-7.3 12.6.6.4c.4.3.8.2 1-.2z"/></g><path d="M190 77.2c0 .5.4.9.9.9s.9-.4.9-.9-.4-.9-.9-.9-.9.4-.9.9z" fill="#1d5ade"/><circle cx="190.9" cy="77.2" r=".5" class="AV"/><path d="M182.8 74.7l3.3-.9 3.2 1.6v.9h-8.4z" class="At"/><g class="AX"><path d="M172.3 56.8l1.8 10.6 9.5 6.7-2.9 1.4c-3.9-1.5-8.5-2.5-10.9-6l-3.6-11.8 6.1-.9z"/><path d="M163.6 59.8l6.4 10.5 2.2 1.7"/></g><path d="M171.7 77.3l16.2.6c1.8.1 3.3 1.6 3.3 3.4h0c0 1.6-1.1 3-2.7 3.3C183 85.7 170.7 88 167 88h0c-4.3 0-7.8-3.5-7.8-7.8h0l12.5-2.9z" class="Ae"/><path d="M172.1 52.4l.5.6c2.2 2.6 3 6.1 2.1 9.4-1.7 6.5-2.9 10.6-3 14.9L159 80.2v-8.9c0-6.4.1-10.9 3.3-15.8 2.5-3.9 6.2-4.4 6.7-4.2l3.1 1.1z" class="Ab"/><path d="M185 72.9l-2.5 1.3 1.4.7 1.5-1.3c.2-.2.2-.5 0-.6h0c0-.2-.2-.2-.4-.1z" class="At"/><path d="M180 74.7l3.3-.9 3.2 1.6v.9h-8.4z" class="AS"/><path d="M169.9 56.9l1.5 9.6 10.8 7.5-3.4 2.2c-4.3-1.7-9.5-3.7-12.1-7.5L164.1 58c-.4-1.8.8-3.5 2.7-3.6h0c1.5-.1 2.9 1 3.1 2.5z" class="AW"/><g class="AV"><use xlink:href="#h"/><use xlink:href="#h" x="0.5" y="-2.8"/></g><path d="M179.1 46.4c2.6-.1 4.5-1.8 4.1-2.6-.3-.7-2.5.8-2.7-.7l-1.4 3.3z" class="Aa"/><path d="M181.1 43.7l-.7 1.1c-1 1.6-1.6 3.5-1.8 5.4h0c0 .3-.3.6-.7.5l-.6-.1c-.2.2-.3.6-.3 1 0 .1-.1.2-.2.2-1.3 0-2-.4-2.7-1.3-.1 1.2 1 1.8 1.8 2.2.2.1.3.3.1.5l-.7 1.1c-.4.6-1.2.7-1.8.3-.4-.3-.8-.6-1.5-.9l-.2 2.8c-1.2-1.4-3-2.4-4.7-3l1.3-3.1.4-8 12.3 1.3z" class="AS"/><g class="Aa"><path d="M174.3 42.4c.8 1.2-.3 3.6-1.7 3.9h-.7c-1.6-.2-2.6-1.7-2.3-3.3l.4-1.9 4.3 1.3z"/><path d="M180.3 45c1.9-.5 3.4-2.8 3.2-4.7s-2.2-4.6-3.6-5.1-2 .1-1.9.6.5 1.4.4 2.1c-1.1-1.2-5.6-2.3-8-1.2-2.3 1.1-2.7 3.6-2.7 5-.1 1.4.7 8.4.7 8.4s1.4-1.5 1.5-3c0-2.1.9-3.6 2.3-4 3.6-.8 5.4 2.8 8.1 1.9"/><path d="M169.3 42.6c0-.4-.1-.7-.2-1-.2.1-.5.1-.7 0s-.4-.3-.5-.5c-.2-.3-.6-.1-.6.2 0 .2.1.4.1.6.1.2.2.3.3.5.3.4.7.8 1.2.7.2 0 .3-.1.4-.2v-.3z"/></g><path d="M180.3 45.1l-.1-.2c.7-.2 1.4-.6 1.9-1.3l.2.2c-.5.6-1.2 1.1-2 1.3z" class="AU"/><path d="M179.2 38.4c-1.1-2-2.7-3.2-3.6-3.2-.5 0 .7 2.5 0 2.7l3.6.5z" class="Aa"/><path d="M172 44.5h0c-.9-.4-1.8.1-2.1 1h0c-.1.6.1 1.2.6 1.6l.6.5 1-2.9c0-.1-.1-.1-.1-.2z" class="AS"/><path d="M169.9 45.6c-.1.6.1 1.2.6 1.6l.2.1" stroke="#cc7070" class="AR AT Az"/><path d="M178.6 40l-.2-.1c.4-.8.2-1.5-.1-2.3l.2-.1c.3.7.5 1.5.1 2.5zm-3.5 1.7l-.2-.2c.3-.4.4-.8.3-1.2h.2c.2.5.1 1-.3 1.4zm-5.2 1.9v-.7c0-.9.4-1.7 1.2-2.1l.1.2c-.7.4-1.1 1.1-1.1 1.9v.7h-.2z" class="AU"/><path d="M172.2 53.4c-.5-.5-1.4-1.7-1.4-1.7" stroke="#cc7070" class="AR AT Ai Az"/><path d="M178.8 85.9h0a2.26 2.26 0 0 1 2.3-2.3h2.3l6.9-1c1.6-.2 2.9 1.3 2.4 2.8l-.1.3c-.5 1.5-1.9 2.5-3.4 2.5h-8.1c-1.2 0-2.3-1-2.3-2.3z" class="AX"/><path d="M208.8 46.9h-18.6c-.9 0-1.7.7-1.7 1.7v9.5c0 .9.7 1.7 1.7 1.7h18.6c.9 0 1.7-.7 1.7-1.7v-9.5c0-.9-.8-1.7-1.7-1.7z" class="AW"/><path d="M188.6 50.1h21.9v2.1h-21.9z" class="Af"/><path d="M189.4 53.1h12.1v2.6h-12.1zm13.1 0h6.9v2.6h-6.9z" class="Ah"/><path d="M195.1 56.7h14.3v.6h-14.3zm2.9 1.4h11.4v.6H198z" class="Af"/><circle transform="matrix(.9732 -.2298 .2298 .9732 -5.8169 44.777)" cx="189.4" cy="47.4" r="3.5" class="Ax"/><g class="AR AT Am Ay"><path d="M188.4 49.3h1.1c.4 0 .8-.4.8-.8v-.3c0-.4-.4-.8-.8-.8h-.3c-.4 0-.8-.4-.8-.8v-.3c0-.4.4-.8.8-.8h1.1"/><path d="M189.4 44.9v5"/></g><circle transform="matrix(.9871 -.1602 .1602 .9871 -3.826 31.6852)" cx="194.6" cy="39.6" r="2.5" class="Ax"/><g class="AR AT Am"><use xlink:href="#i" class="Ay"/><path d="M194.6 37.8v3.6" stroke-width=".25"/></g><circle cx="188.6" cy="33.6" r="3" class="Ax"/><g class="AR AT Am"><use xlink:href="#i" x="-6" y="-6" class="Ay"/><path d="M188.6 31.8v3.6" stroke-width=".25"/></g></svg>