<svg xmlns="http://www.w3.org/2000/svg" xmlns:xlink="http://www.w3.org/1999/xlink" style="isolation:isolate" viewBox="0 0 900 550" width="900pt" height="550pt"><defs><clipPath id="_clipPath_fQkVU8dH40O8O8afGHxIEchYyi6LVrYQ"><path d="M0 0h9e2v550H0z"/></clipPath></defs><g clip-path="url(#_clipPath_fQkVU8dH40O8O8afGHxIEchYyi6LVrYQ)"><g><path d="M426.188 431.087C405.81 431.087 387.635 430.527 375.78 429.65L378.914 426.52 378.651 424.62C390.469 423.857 407.393 423.379 426.188 423.379 461.915 423.379 490.874 425.101 490.874 427.233 490.874 429.365 461.915 431.087 426.188 431.087z" fill="rgb(113,189,225)"/><path d="M397.303 440.15C254.576 440.15 138.872 434.891 138.872 428.399 138.872 421.91 254.576 416.648 397.303 416.648 540.031 416.648 655.731 421.91 655.731 428.399 655.731 434.891 540.031 440.15 397.303 440.15z" fill="rgb(127,202,236)"/><defs><filter id="Zjg5xfhMAYnoootisiwDv6lDzaQ3t74f" x="-200%" y="-200%" width="400%" height="400%" filterUnits="objectBoundingBox" color-interpolation-filters="sRGB"><feGaussianBlur xmlns="http://www.w3.org/2000/svg" in="SourceGraphic" stdDeviation="8.587218125678056"/><feOffset xmlns="http://www.w3.org/2000/svg" dx="-10" dy="-20" result="pf_100_offsetBlur"/><feFlood xmlns="http://www.w3.org/2000/svg" flood-color="#2d489c" flood-opacity="0"/><feComposite xmlns="http://www.w3.org/2000/svg" in2="pf_100_offsetBlur" operator="in" result="pf_100_dropShadow"/><feBlend xmlns="http://www.w3.org/2000/svg" in="SourceGraphic" in2="pf_100_dropShadow" mode="normal"/></filter></defs><g filter="url(#Zjg5xfhMAYnoootisiwDv6lDzaQ3t74f)"><mask id="_mask_4oD4xWR75Y2xcJp1IUba5OAJ2pNY0gze" x="-200%" y="-200%" width="400%" height="400%"><path d="M-2e2-2e2h4e2v4e2H-2e2z" style="fill:#fff"/><path d="M670.458 410.751H133.927C130.28 410.751 127.328 407.796 127.328 404.152L117.353 101.549H693.375L691.578 134.871Q685.295 251.355 681.892 314.454 680.192 345.97 677.054 404.152C677.054 407.796 674.098 410.751 670.458 410.751z" fill="#000" stroke="none"/></mask><path d="M670.458 410.751H133.927C130.28 410.751 127.328 407.796 127.328 404.152L117.353 101.549H693.375L691.578 134.871Q685.295 251.355 681.892 314.454 680.192 345.97 677.054 404.152C677.054 407.796 674.098 410.751 670.458 410.751z" fill="rgb(250,253,253)" mask="url(#_mask_4oD4xWR75Y2xcJp1IUba5OAJ2pNY0gze)" vector-effect="non-scaling-stroke" stroke-width="2" stroke="rgb(164,224,249)" stroke-linejoin="miter" stroke-linecap="butt" stroke-miterlimit="4"/><path d="M670.458 410.751H133.927C130.28 410.751 127.328 407.796 127.328 404.152L117.353 101.549H693.375L691.578 134.871Q685.295 251.355 681.892 314.454 680.192 345.97 677.054 404.152C677.054 407.796 674.098 410.751 670.458 410.751z" fill="rgb(250,253,253)"/></g><path d="M693.293 105.16H117.275L115.834 69.869C115.834 66.614 118.472 63.972 121.728 63.972h567.44C692.423 63.972 695.062 66.614 695.062 69.869L693.293 105.16z" fill="rgb(45,72,156)"/><path d="M668.512 90.155 208.828 90.925 206.557 80.062H667L668.512 90.155z" fill="rgb(255,255,255)"/><path d="M153.988 89.513H144.855L144.47 81.473H152.898L153.988 89.513z" fill="rgb(255,255,255)"/><path d="M171.112 89.513H163.073L162.663 81.06H170.702L171.112 89.513z" fill="rgb(255,192,8)"/><path d="M187.244 89.513 178.805 89.802 179.208 81.473H188.007L187.244 89.513z" fill="rgb(255,114,1)"/><path d="M283.218 206.714H554.405L556.637 134.302 285.222 141.646 283.218 206.714zM556.106 208.468H281.411L283.525 139.942 284.348 139.917 558.448 132.498 556.106 208.468z" fill="rgb(173,229,250)"/><path d="M353.62 297.401H285.5L282.858 225.987H350.981L353.62 297.401z" fill="rgb(164,224,249)"/><path d="M332.36 371.502H282.858V368.126H332.36V371.502z" fill="rgb(189,189,188)"/><path d="M646.975 301.661 571.297 297.401 575.732 138.662 652.483 140.662 646.975 301.661z" fill="rgb(164,224,249)"/><path d="M369.577 435.843H268.052L272.059 359.224H369.577V435.843z" fill="rgb(246,252,252)"/><path d="M369.577 372.273 271.393 371.923 272.059 359.224H369.577V372.273z" fill="rgb(45,72,156)"/><path d="M341.484 387.653H285.375V383.218H341.484V387.653z" fill="rgb(153,223,249)"/><path d="M348.874 394.423H303.515V392.205H348.874V394.423z" fill="rgb(153,223,249)"/><path d="M348.874 401.001H292.766V398.783H348.874V401.001z" fill="rgb(153,223,249)"/><path d="M348.874 407.578H292.766V405.361H348.874V407.578z" fill="rgb(153,223,249)"/><path d="M351.252 414.235H295.144V412.013H351.252V414.235z" fill="rgb(153,223,249)"/><path d="M333.74 420.366H290.388V418.149H333.74V420.366z" fill="rgb(153,223,249)"/><path d="M341.484 364.768H346.086V367.994H341.484V364.768z" fill="rgb(32,138,238)"/><path d="M349.883 364.975 354.767 365.142 354.432 367.994H350.133L349.883 364.975z" fill="rgb(255,192,8)"/><path d="M358.147 365.224H363.003L362.7 368.397 358.147 367.994V365.224z" fill="rgb(255,114,1)"/><path d="M701.964 350.04 694.206 352.297 692.869 352.611 687.454 353.57 687.774 354.561 690.477 354.354 684.819 359.905 685.778 360.839 689.842 356.853 689.985 356.992 685.414 361.488 686.373 362.419 690.944 357.926 691.076 358.055 687.086 361.962 688.045 362.896 692.031 358.985 692.159 359.11 689.101 362.091 690.056 363.021 695.664 357.566 695.472 357.377 696.737 355.948 704.142 354.208 701.964 350.04z" fill="rgb(255,197,144)"/><path d="M594.107 432.103 691.625 437.169V355.484H594.107V432.103z" fill="rgb(255,114,1)"/><path d="M594.107 368.536H691.625V355.484H594.107V368.536z" fill="rgb(255,192,8)"/><path d="M682.216 360.928H677.617V364.162H682.216V360.928z" fill="rgb(246,252,252)"/><path d="M673.817 361.139 668.936 361.306 669.268 364.162H673.567L673.817 361.139z" fill="rgb(246,252,252)"/><path d="M665.553 361.388H660.701L661.004 364.561 665.553 364.162V361.388z" fill="rgb(246,252,252)"/><path d="M158.534 388.533H254.483V239.26L150.538 244.904 158.534 388.533z" fill="rgb(164,224,249)"/><path d="M229.556 417.728H269.963L271.015 453.954H229.181l.375-36.226z" fill="rgb(255,114,1)"/><path d="M238.861 430.592 244.194 431.033 244.615 426.734H247.21V429.682L248.472 431.54H259.064V439.572L248.683 438.239 245.738 439.572 237.246 440.142 238.861 430.592z" fill="rgb(255,255,255)"/><path d="M258.669 128.412 552.363 116.89 559.714 165.993 256.045 171.989 258.669 128.412z" fill="rgb(45,72,156)"/><path d="M256.045 171.989V197.345L554.666 194.033 559.714 165.993 256.045 171.989z" fill="rgb(34,54,117)"/><path d="M291.703 127.115 289.5 171.33 318.242 170.763 318.816 126.049 291.703 127.115z" fill="rgb(255,192,8)"/><path d="M349.363 124.854 350.179 170.132 384.012 169.462 381.182 123.606 349.363 124.854z" fill="rgb(255,192,8)"/><path d="M417.81 122.17 419.981 168.752 453.939 168.082 452.56 120.808 417.81 122.17z" fill="rgb(255,192,8)"/><path d="M528.961 117.81 490.889 119.303 493.744 167.294 531.606 166.545 528.961 117.81z" fill="rgb(255,192,8)"/><path d="M289.5 171.33 318.242 170.763V196.653L287.96 196.988 289.5 171.33z" fill="rgb(255,114,1)"/><path d="M350.179 170.132 350.364 196.296 384.636 195.915 384.012 169.462 350.179 170.132z" fill="rgb(255,114,1)"/><path d="M419.981 168.752 421.497 195.509 455.979 195.124 453.939 168.082 419.981 168.752z" fill="rgb(255,114,1)"/><path d="M493.744 167.294 492.839 194.717 532.409 194.279 531.606 166.545 493.744 167.294z" fill="rgb(255,114,1)"/><path d="M578.848 194.717H642.714V209.038L580.602 208.621 578.848 194.717z" fill="rgb(255,255,255)"/><path d="M580.1 220.162H642.237L640.711 233.331H579.101L580.1 220.162z" fill="rgb(255,255,255)"/><path d="M586.028 202.735C586.028 203.495 585.412 204.111 584.652 204.111 583.889 204.111 583.273 203.495 583.273 202.735 583.273 201.972 583.889 201.359 584.652 201.359 585.412 201.359 586.028 201.972 586.028 202.735z" fill="rgb(0,83,134)"/><path d="M591.622 202.735C591.622 203.495 591.005 204.111 590.242 204.111 589.483 204.111 588.866 203.495 588.866 202.735 588.866 201.972 589.483 201.359 590.242 201.359 591.005 201.359 591.622 201.972 591.622 202.735z" fill="rgb(0,83,134)"/><path d="M597.216 202.735C597.216 203.495 596.599 204.111 595.836 204.111 595.077 204.111 594.46 203.495 594.46 202.735 594.46 201.972 595.077 201.359 595.836 201.359 596.599 201.359 597.216 201.972 597.216 202.735z" fill="rgb(0,83,134)"/><path d="M602.432 202.735C602.432 203.495 601.815 204.111 601.056 204.111 600.293 204.111 599.676 203.495 599.676 202.735 599.676 201.972 600.293 201.359 601.056 201.359 601.815 201.359 602.432 201.972 602.432 202.735z" fill="rgb(0,83,134)"/><path d="M608.025 202.735C608.025 203.495 607.409 204.111 606.649 204.111 605.89 204.111 605.27 203.495 605.27 202.735 605.27 201.972 605.89 201.359 606.649 201.359 607.409 201.359 608.025 201.972 608.025 202.735z" fill="rgb(0,83,134)"/><path d="M613.619 202.735C613.619 203.495 613.002 204.111 612.243 204.111 611.484 204.111 610.867 203.495 610.867 202.735 610.867 201.972 611.484 201.359 612.243 201.359 613.002 201.359 613.619 201.972 613.619 202.735z" fill="rgb(0,83,134)"/><path d="M586.028 227.449C586.028 228.208 585.412 228.825 584.652 228.825 583.889 228.825 583.273 228.208 583.273 227.449 583.273 226.686 583.889 226.069 584.652 226.069 585.412 226.069 586.028 226.686 586.028 227.449z" fill="rgb(0,83,134)"/><path d="M591.622 227.449C591.622 228.208 591.005 228.825 590.242 228.825 589.483 228.825 588.866 228.208 588.866 227.449 588.866 226.686 589.483 226.069 590.242 226.069 591.005 226.069 591.622 226.686 591.622 227.449z" fill="rgb(0,83,134)"/><path d="M597.216 227.449C597.216 228.208 596.599 228.825 595.836 228.825 595.077 228.825 594.46 228.208 594.46 227.449 594.46 226.686 595.077 226.069 595.836 226.069 596.599 226.069 597.216 226.686 597.216 227.449z" fill="rgb(0,83,134)"/><path d="M602.432 227.449C602.432 228.208 601.815 228.825 601.056 228.825 600.293 228.825 599.676 228.208 599.676 227.449 599.676 226.686 600.293 226.069 601.056 226.069 601.815 226.069 602.432 226.686 602.432 227.449z" fill="rgb(0,83,134)"/><path d="M221.142 160.296H112.002L115.895 230.219H221.142V160.296z" fill="rgb(255,114,1)"/><path d="M127.792 201.89 130.462 216.686h67.125V201.89H127.792z" fill="rgb(255,255,255)"/><path d="M130.391 175.102 130.369 173.098 193.733 172.428 193.758 174.435 130.391 175.102z" fill="rgb(255,255,255)"/><path d="M187.202 184.203l-57.357-1.75L129.909 180.446 187.266 182.2 187.202 184.203z" fill="rgb(255,255,255)"/><path d="M157.368 188.849H129.628V186.842H157.368V188.849z" fill="rgb(255,255,255)"/><path d="M286.944 316.988 286.923 314.988 350.29 314.317 350.311 316.321 286.944 316.988z" fill="rgb(153,223,249)"/><path d="M343.755 326.093 286.398 324.343 286.463 322.336 343.819 324.089 343.755 326.093z" fill="rgb(153,223,249)"/><path d="M313.922 330.735H286.181V328.728H313.922V330.735z" fill="rgb(153,223,249)"/><path d="M369.317 307.265 369.292 305.258 432.659 304.592 432.684 306.595 369.317 307.265z" fill="rgb(153,223,249)"/><path d="M426.128 316.364 368.771 314.613 368.835 312.61 426.188 314.364 426.128 316.364z" fill="rgb(153,223,249)"/><path d="M396.291 321.009H368.554V319.006H396.291V321.009z" fill="rgb(153,223,249)"/><path d="M367.566 229.738V291.615L444.035 286.727 442.77 230.864 367.566 229.738zM365.809 293.483V227.955L444.488 229.135 445.829 288.374 365.809 293.483z" fill="rgb(153,223,249)"/><path d="M444.406 288.253 366.162 229.549 367.213 228.144 445.458 286.848 444.406 288.253z" fill="rgb(153,223,249)"/><path d="M377.428 292.549 376.237 291.254 443.03 229.353 444.224 230.643 377.428 292.549z" fill="rgb(153,223,249)"/><path d="M235.356 310.399H186.371L184.474 259.047h48.982L235.356 310.399z" fill="rgb(194,236,251)"/><path d="M235.356 375.495H186.371L184.474 324.147h48.982L235.356 375.495z" fill="rgb(182,230,250)"/><path d="M237.748 423.736 144.833 430.174 138.808 343.256 231.72 336.814 237.748 423.736z" fill="rgb(255,192,8)"/><path d="M191.351 421.172H231.759L232.81 457.394 189.879 456.342 191.351 421.172z" fill="rgb(52,124,223)"/><path d="M201.452 432.559H221.865L223.128 442.873H210.083L205.662 449.818 205.031 442.456 201.452 442.663V432.559z" fill="rgb(255,255,255)"/><path d="M200.157 384.843 174.456 387.022 169.836 374.939 203.779 372.212 200.157 384.843zM214.953 358.465 207.634 359.492 204.575 369.503 166.11 372.594 172.702 389.817 199.412 387.553 197.726 393.838 174.702 395.364C173.975 395.41 173.422 396.041 173.472 396.769 173.518 397.464 174.1 397.999 174.788 397.999H174.877L199.786 396.348 202.45 386.423 206.846 371.085 209.665 361.873 215.32 361.071C216.044 360.975 216.546 360.308 216.443 359.581 216.343 358.864 215.676 358.351 214.953 358.465z" fill="rgb(255,255,255)"/><path d="M194.064 401.806C192.068 401.806 190.453 403.425 190.453 405.418 190.453 407.414 192.068 409.033 194.064 409.033 196.061 409.033 197.676 407.414 197.676 405.418 197.676 403.425 196.061 401.806 194.064 401.806z" fill="rgb(255,255,255)"/><path d="M177.073 401.806C175.076 401.806 173.458 403.425 173.458 405.418 173.458 407.414 175.076 409.033 177.073 409.033 179.066 409.033 180.684 407.414 180.684 405.418 180.684 403.425 179.066 401.806 177.073 401.806z" fill="rgb(255,255,255)"/><path d="M657.1 413.286 655.264 413.297 653.749 399.81 658.508 399.781 657.1 413.286zM642.697 412.798 640.871 412.627 640.978 399.068 645.713 399.514 642.697 412.798zM630.643 412.684H628.803L627.384 399.186H632.144L630.643 412.684zM657.895 395.763 649.242 381.734 647.114 383.235 653.424 395.596 637.338 394.99 643.135 383.638 641.007 382.137 633.178 394.833 619.391 394.316 621.455 416.228 664.159 418.042 669.966 396.22 657.895 395.763z" fill="rgb(255,255,255)"/><path d="M369.577 435.843V429.101C371.381 429.294 373.463 429.479 375.78 429.65L369.577 435.843zM369.577 425.365V410.751H376.725L378.651 424.62C375.15 424.844 372.098 425.094 369.577 425.365z" fill="rgb(129,197,227)"/><path d="M375.78 429.65C373.463 429.479 371.381 429.294 369.577 429.101V425.365C372.098 425.094 375.15 424.844 378.651 424.62L378.914 426.52 375.78 429.65z" fill="rgb(104,172,207)"/><path d="M376.725 410.751H369.577V359.224L376.725 410.751z" fill="rgb(227,230,232)"/><path d="M553.5 466.446C529.906 466.446 510.779 464.721 510.779 462.592 510.779 460.46 529.906 458.735 553.5 458.735 572.738 458.735 589.009 459.883 594.36 461.462 594.317 461.519 594.296 461.576 594.292 461.637 594.271 462.001 594.923 462.393 596.161 462.799 594.963 464.831 576.32 466.446 553.5 466.446z" fill="rgb(113,189,225)"/><path d="M685.626 447.685C676.859 447.685 665.001 447.364 653.853 446.64 636.433 445.507 610.529 442.904 604.525 440.929 604.568 440.861 604.586 440.793 604.586 440.722 604.586 440.33 603.937 439.948 602.725 439.592 603.502 438.48 611.085 437.898 622.526 437.898 631.296 437.898 642.33 438.237 654.302 438.943 682.702 440.612 705.623 443.688 705.498 445.813 705.426 447.043 697.658 447.685 685.626 447.685z" fill="rgb(127,202,236)"/><path d="M596.161 462.799C594.923 462.393 594.271 462.001 594.292 461.637 594.296 461.576 594.317 461.519 594.36 461.462 595.572 461.819 596.221 462.2 596.221 462.592 596.221 462.664 596.203 462.731 596.161 462.799z" fill="rgb(101,178,216)"/><path d="M532.868 447.562 537.963 448.096 538.473 455.244 546.216 459.409 545.304 461.262 532.786 461.059 532.466 457.234 532.694 455.045 532.868 447.562z" fill="rgb(255,197,144)"/><path d="M532.212 457.209 532.366 456.004C532.376 455.355 533.931 456.628 534.383 456.742 536.351 457.245 540.173 458.877 543.043 458.949 543.457 458.963 542.726 457.783 542.284 457.209L542.676 457.07 545.657 458.393 553.158 460.949 553.168 462.592H532.048L532.031 460.161 532.212 457.209z" fill="rgb(26,41,88)"/><path d="M553.168 462.592V461.779L532.031 460.303V461.109L532.048 462.592H553.168z" fill="rgb(88,89,91)"/><path d="M570.613 447.562 577.319 448.26 579.169 455.244 586.909 459.409 585.996 461.262 573.479 461.059 573.158 457.234 573.39 455.045 570.613 447.562z" fill="rgb(255,197,144)"/><path d="M572.909 457.209 573.062 456.004C573.073 455.355 574.627 456.628 575.08 456.742 577.044 457.245 580.87 458.877 583.736 458.949 584.15 458.963 583.422 457.783 582.98 457.209L583.372 457.07 586.353 458.393 593.854 460.949 593.865 462.592H572.741L572.723 460.161 572.909 457.209z" fill="rgb(26,41,88)"/><path d="M593.865 462.592 593.861 461.779 572.723 460.303V461.109L572.741 462.592H593.865z" fill="rgb(88,89,91)"/><linearGradient id="_lgradient_60" x1=".3443644307791942" y1=".5210505754725467" x2=".7877492297789084" y2=".08657456412724085" gradientTransform="matrix(44.062,0,0,118.638,535.56,333.484)" gradientUnits="userSpaceOnUse"><stop offset="0" stop-opacity="1" style="stop-color:#223675"/><stop offset=".27027%" stop-opacity="1" style="stop-color:#223675"/><stop offset="100%" stop-opacity="1" style="stop-color:#2d489c"/></linearGradient><path d="M560.042 336.532 569.718 402.78 579.622 452.121H571.415L556.017 400.131 535.56 333.484 560.042 336.532z" fill="url(#_lgradient_60)"/><path d="M594.246 326.546 600.449 325.17 600.542 322.528 593.761 322.92 594.246 326.546z" fill="rgb(255,197,144)"/><linearGradient id="_lgradient_61" x1="-.6630495269894254" y1=".6989041518752899" x2="-.005916158997926302" y2="-1.7860902007761958" gradientTransform="matrix(25.626,0,0,115.493,520.84,336.628)" gradientUnits="userSpaceOnUse"><stop offset="0" stop-opacity="1" style="stop-color:#223675"/><stop offset=".27027%" stop-opacity="1" style="stop-color:#223675"/><stop offset="100%" stop-opacity="1" style="stop-color:#2d489c"/></linearGradient><path d="M546.466 336.628 542.102 402.024 539.339 452.121 532.031 450.934 530.651 400.191 520.84 349.972 521.702 337.808 546.466 336.628z" fill="url(#_lgradient_61)"/><path d="M561.814 339.099 520.073 341.152 523.214 325.234 515.82 294.67C514.861 289.465 518.775 285.892 521.677 285.892L565.194 285.614C567.147 285.614 568.634 287.372 568.31 289.301L559.112 328.475 561.814 339.099z" fill="rgb(32,138,238)"/><path d="M598.221 325.883 577.857 330.304C575.85 330.41 574.071 329.031 573.664 327.063L566.263 302.089 565.033 285.768C569.048 284.944 572.973 287.525 573.8 291.54L580.353 322.746 599.002 321.886 598.221 325.883z" fill="rgb(32,138,238)"/><path d="M571.415 335.598 556.234 332.457 602.578 313.818 609.979 320.089 571.415 335.598z" fill="rgb(87,109,176)"/><path d="M573.119 315.943 611.683 300.438 609.979 320.089 571.415 335.598 573.119 315.943z" fill="rgb(45,72,156)"/><path d="M600.692 318.25 601.979 318.261 601.836 322.371H602.007L602.175 316.995 603.462 317.009 603.295 322.382 603.473 322.385 603.655 316.214 604.942 316.225 604.76 322.396H604.949L605.12 316.924 606.41 316.934 606.229 322.706 600.449 325.17 600.692 318.25z" fill="rgb(255,197,144)"/><path d="M551.66 321.216 558.541 319.683 560.794 319.28 564.612 320.881 564.47 321.801 562.106 320.945 567.871 324.999 567.165 325.958 563.026 323.045 562.923 323.187 564.598 324.368 563.525 325.07 562.217 324.147 562.121 324.279 563.383 325.163 562.309 325.861 561.415 325.234 561.318 325.362 562.167 325.954 561.194 326.589 558.538 324.603 558.167 324.321 556.848 323.248 550.352 325.184 551.66 321.216z" fill="rgb(255,197,144)"/><path d="M532.337 325.976 555.913 319.587 556.234 324.71 530.751 333.772C528.772 334.115 526.84 332.96 526.205 331.049L516.65 304.977C513.984 298.845 513.784 291.368 518.722 286.866 520.276 285.547 522.679 286.335 523.146 288.317L532.337 325.976z" fill="rgb(77,161,241)"/><path d="M556.256 271.717C556.256 273.814 554.559 275.507 552.463 275.507 550.37 275.507 548.673 273.814 548.673 271.717 548.673 269.625 550.37 267.924 552.463 267.924 554.559 267.924 556.256 269.625 556.256 271.717z" fill="rgb(26,41,88)"/><path d="M538.754 261.339V276.231C538.754 276.798 539.075 277.318 539.585 277.568L541.357 278.452 539.738 290.855 547.81 291.144 546.787 279.39 550.794 277.557C551.325 277.311 551.667 276.783 551.667 276.195V261.339H538.754z" fill="rgb(255,197,144)"/><path d="M555.589 266.869C555.589 268.823 554.188 270.413 552.463 270.413 550.737 270.413 549.336 268.823 549.336 266.869 549.336 264.911 550.737 263.321 552.463 263.321 554.188 263.321 555.589 264.911 555.589 266.869z" fill="rgb(26,41,88)"/><path d="M549.2 258.644C549.2 258.644 549.058 258.583 548.648 258.555L548.655 258.466C548.405 257.221 545.471 256.769 542.098 257.439 539.1 258.038 536.779 259.325 536.469 260.476 534.551 261.204 533.118 264.049 533.118 267.464 533.118 268.473 533.243 269.429 533.467 270.299 532.954 270.947 532.63 271.757 532.63 272.651 532.63 274.744 534.326 276.441 536.423 276.441 538.041 276.441 539.414 275.418 539.959 273.988 541.457 273.482 542.548 272.081 542.548 270.413L542.451 269.585C543.215 269.101 543.728 268.256 543.728 267.282 543.728 266.865 543.625 266.469 543.453 266.116 543.664 265.835 543.81 265.503 543.81 265.126L543.707 264.626 543.714 264.612 543.699 264.591 543.179 263.831 543.375 263.14 543.425 263.054C543.425 263.054 544.708 261.596 545.535 263.164 546.726 265.421 548.323 265.368 550.676 265.14 554.149 264.805 551.956 259.614 549.2 258.644z" fill="rgb(26,41,88)"/><path d="M547.757 285.707 547.432 307.964 539.977 285.753 547.757 285.707z" fill="rgb(255,255,255)"/><path d="M547.757 285.707 551.343 291.008H547.706L551.379 296.506 547.432 307.964 547.757 285.707z" fill="rgb(121,185,245)"/><path d="M539.967 285.707 536.933 291.283H540.569L538.466 298.164 547.432 307.964 539.967 285.707z" fill="rgb(121,185,245)"/><path d="M256.045 197.345C256.045 197.345 271.336 214.34 287.96 196.988L256.045 197.345z" fill="rgb(26,41,88)"/><path d="M287.96 196.988C287.96 196.988 301.618 214.005 318.242 196.653L287.96 196.988z" fill="rgb(191,86,1)"/><path d="M318.242 196.653C318.242 196.653 333.74 213.652 350.364 196.296L318.242 196.653z" fill="rgb(26,41,88)"/><path d="M350.364 196.254C350.364 196.254 368.012 213.267 384.636 195.915L350.364 196.254z" fill="rgb(191,86,1)"/><path d="M384.636 195.922C384.636 195.922 404.872 212.86 421.497 195.509L384.636 195.922z" fill="rgb(26,41,88)"/><path d="M421.497 195.491C421.497 195.491 439.354 212.479 455.979 195.124L421.497 195.491z" fill="rgb(191,86,1)"/><path d="M455.979 195.124C455.979 195.124 476.214 212.069 492.839 194.717L455.979 195.124z" fill="rgb(26,41,88)"/><path d="M492.817 194.646C492.817 194.646 515.784 211.63 532.409 194.279L492.817 194.646z" fill="rgb(191,86,1)"/><path d="M532.409 194.15C532.409 194.15 543.817 204.111 554.666 194.033L532.409 194.15z" fill="rgb(26,41,88)"/><path d="M456.97 412.537 463.48 410.99 464.396 419.215 466.008 422.959 466.417 424.859 461.312 426.263 459.918 425.796 457.572 426.352 457.109 427.333 445.568 427.379 445.294 426.092 453.13 424.549 457.137 420.288 456.97 412.537z" fill="rgb(26,41,88)"/><linearGradient id="_lgradient_62" x1="0" y1=".5000155972174554" x2="1" y2=".5000155972174554" gradientTransform="matrix(31.994,0,0,114.288,432.937,304.634)" gradientUnits="userSpaceOnUse"><stop offset="0" stop-opacity="1" style="stop-color:#1868b3"/><stop offset="100%" stop-opacity="1" style="stop-color:#208aee"/></linearGradient><path d="M432.937 308.403 448.417 370.426 455.854 418.923 464.931 417.625 460.153 370.137 457.647 304.634 432.937 308.403z" fill="url(#_lgradient_62)"/><path d="M393.332 191.712 394.619 191.558 395 195.69 395.171 195.669 394.651 190.271 395.941 190.114 396.462 195.516 396.64 195.494 396.031 189.302 397.321 189.148 397.931 195.337 398.12 195.316 397.588 189.819 398.879 189.662 399.617 197.32 401.111 195.156 402.056 195.516 399.475 200.186 399.51 202.468 400.309 206.76 395.617 207.477 394.751 202.001 394.287 199.245 394.027 199.277 393.332 191.712z" fill="rgb(255,197,144)"/><path d="M433.882 195.074 433.094 196.19 436.73 198.603 436.627 198.753 431.885 195.576 431.101 196.699 435.839 199.872 435.732 200.026 430.299 196.375 429.511 197.494 434.948 201.142 434.83 201.309 430.003 198.075 429.215 199.191 435.942 203.694 433.19 203.997 433.055 205.056 438.67 204.992 440.763 206.161 444.342 209.042 447.347 205.052 442.702 201.516 440.381 199.716 440.538 199.491 433.882 195.074z" fill="rgb(255,197,144)"/><path d="M452.881 235.228 439.918 228.925 436.834 235.142 433.607 238.651 434.481 239.884 434.06 243.157C433.768 243.906 434.164 244.74 434.923 244.996L440.381 246.89 439.508 260.32 447.857 260.608 445.914 247.734 452.881 235.228z" fill="rgb(255,197,144)"/><path d="M448.171 254.163 439.133 251.924 436.413 253.043 448.417 256.166 448.171 254.163z" fill="rgb(32,138,238)"/><path d="M442.649 225.902C442.649 225.902 443.319 225.941 445.344 227.21 447.372 228.486 448.42 229.235 448.98 230.276 449.54 231.313 452.881 232.886 453.348 233.303 453.815 233.727 453.989 237.21 453.273 238.583 452.806 239.478 448.15 243.995 448.15 243.995L444.641 241.802 444.638 236.23 443.629 235.524 442.071 236.825 441.39 236.276 442.239 234.508 441.579 233.167C440.431 233.321 439.408 232.561 438.574 229.895 437.429 226.247 439.572 225.552 442.649 225.902z" fill="rgb(26,41,88)"/><path d="M415.585 410.591 421.867 410.224V420.695L422.666 424.77 422.734 426.599 417.775 427.058 416.562 426.402 414.295 426.534 413.707 427.369 402.237 428.146 402.191 426.909 410.477 424.135 414.883 420.844 415.585 410.591z" fill="rgb(26,41,88)"/><linearGradient id="_lgradient_63" x1="0" y1=".4999853118298532" x2=".9999999999999858" y2=".4999853118298532" gradientTransform="matrix(36.015,0,0,121.362,414.238,298.367)" gradientUnits="userSpaceOnUse"><stop offset="0" stop-opacity="1" style="stop-color:#1868b3"/><stop offset="100%" stop-opacity="1" style="stop-color:#208aee"/></linearGradient><path d="M420.887 300.321 415.054 362.472 414.238 419.596 423.087 419.728 426.245 363.816 450.253 298.367 420.887 300.321z" fill="url(#_lgradient_63)"/><linearGradient id="_lgradient_64" x1=".09260967285602817" y1=".6327303598249827" x2=".8917036593591291" y2="-.013721761716419367" gradientTransform="matrix(77.919,0,0,109.186,394.116,203.612)" gradientUnits="userSpaceOnUse"><stop offset="0" stop-opacity="1" style="stop-color:#223675"/><stop offset=".27027%" stop-opacity="1" style="stop-color:#223675"/><stop offset="100%" stop-opacity="1" style="stop-color:#2d489c"/></linearGradient><path d="M470.279 221.11 460.086 213.502 446.064 203.612 441.636 207.926 463.683 226.935 457.558 258.487 425.318 250.305 425.09 250.312C424.003 247.574 421.86 245.257 418.905 244.041L407.382 230.194 400.587 203.94 394.116 204.336 396.498 217.538 399.154 228.714C399.952 234.212 400.886 234.968 404.377 239.831L421.422 268.42 420.652 306.157 457.497 312.799 469.911 267.913C470.653 265.91 470.82 262.894 470.792 261L471.651 233.955C472.136 227.677 472.56 226.49 470.279 221.11z" fill="url(#_lgradient_64)"/><path d="M724.289 183.904C724.289 184.909 723.472 185.726 722.463 185.726H712.809C711.8 185.726 710.984 184.909 710.984 183.904V178.161C710.984 177.152 711.8 176.335 712.809 176.335H722.463C723.472 176.335 724.289 177.152 724.289 178.161V183.904z" fill="rgb(255,192,8)"/><path d="M724.289 229.31C724.289 228.301 723.472 227.484 722.463 227.484H712.809C711.8 227.484 710.984 228.301 710.984 229.31V235.05C710.984 236.059 711.8 236.875 712.809 236.875H722.463C723.472 236.875 724.289 236.059 724.289 235.05V229.31z" fill="rgb(255,192,8)"/><path d="M706.285 185.847C706.998 186.56 706.998 187.715 706.285 188.432L699.461 195.255C698.751 195.968 697.593 195.968 696.883 195.255L692.819 191.195C692.102 190.482 692.102 189.327 692.819 188.614L699.65 181.79C700.356 181.077 701.515 181.077 702.231 181.79L706.285 185.847z" fill="rgb(255,192,8)"/><path d="M738.393 217.955C737.679 217.242 736.524 217.242 735.811 217.955L728.988 224.782C728.278 225.495 728.278 226.65 728.988 227.363L733.045 231.424C733.758 232.137 734.917 232.137 735.63 231.424L742.453 224.597C743.17 223.884 743.17 222.729 742.453 222.012L738.393 217.955z" fill="rgb(255,192,8)"/><path d="M694.933 199.951C695.942 199.951 696.755 200.771 696.755 201.783V211.434C696.755 212.44 695.942 213.256 694.933 213.256H689.19C688.184 213.256 687.368 212.44 687.368 211.434V201.783C687.368 200.771 688.184 199.951 689.19 199.951H694.933z" fill="rgb(255,192,8)"/><path d="M740.339 199.951C739.33 199.951 738.517 200.771 738.517 201.783V211.434C738.517 212.44 739.33 213.256 740.339 213.256H746.082C747.091 213.256 747.908 212.44 747.908 211.434V201.783C747.908 200.771 747.091 199.951 746.082 199.951H740.339z" fill="rgb(255,192,8)"/><path d="M696.88 217.955C697.593 217.242 698.751 217.242 699.461 217.955L706.285 224.782C706.998 225.495 706.998 226.65 706.285 227.363L702.231 231.424C701.515 232.137 700.356 232.137 699.65 231.424L692.819 224.597C692.102 223.884 692.102 222.729 692.819 222.012L696.88 217.955z" fill="rgb(255,192,8)"/><path d="M728.988 185.847C728.275 186.56 728.275 187.715 728.988 188.432L735.811 195.255C736.521 195.968 737.679 195.968 738.393 195.255L742.453 191.195C743.166 190.482 743.166 189.327 742.453 188.614L735.63 181.79C734.913 181.077 733.758 181.077 733.045 181.79L728.988 185.847z" fill="rgb(255,192,8)"/><path d="M717.636 223.445C708.338 223.445 700.798 215.908 700.798 206.603 700.798 197.305 708.338 189.765 717.636 189.765 726.938 189.765 734.478 197.305 734.478 206.603 734.478 215.908 726.938 223.445 717.636 223.445zm0-38.143C705.871 185.302 696.334 194.838 696.334 206.603 696.334 218.372 705.871 227.912 717.636 227.912 729.401 227.912 738.938 218.372 738.938 206.603 738.938 194.838 729.401 185.302 717.636 185.302z" fill="rgb(255,192,8)"/><path d="M684.266 257.368C678.965 259.107 673.25 256.216 671.507 250.911 669.77 245.61 672.651 239.898 677.956 238.155 683.261 236.415 688.969 239.303 690.716 244.604 692.452 249.909 689.568 255.624 684.266 257.368zM676.323 233.178C668.266 235.823 663.881 244.494 666.526 252.555 669.171 260.605 677.842 264.99 685.903 262.341 693.953 259.696 698.338 251.029 695.696 242.971 693.047 234.914 684.384 230.533 676.323 233.178z" fill="rgb(45,72,156)"/><path d="M680.038 233.51C680.191 234.005 679.928 234.533 679.436 234.7L674.715 236.248C674.22 236.408 673.692 236.141 673.528 235.649L672.605 232.843C672.451 232.347 672.715 231.82 673.207 231.652L677.927 230.105C678.419 229.941 678.954 230.212 679.118 230.704L680.038 233.51z" fill="rgb(45,72,156)"/><path d="M688.694 259.874C688.53 259.378 688.003 259.107 687.511 259.275L682.79 260.822C682.295 260.986 682.024 261.517 682.184 262.009L683.111 264.815C683.268 265.307 683.803 265.582 684.295 265.414L689.015 263.867C689.511 263.703 689.775 263.168 689.618 262.676L688.694 259.874z" fill="rgb(45,72,156)"/><path d="M670.273 238.447C670.737 238.679 670.925 239.246 670.69 239.706L668.448 244.141C668.216 244.604 667.649 244.793 667.189 244.558L664.547 243.225C664.084 242.989 663.902 242.426 664.134 241.959L666.38 237.531C666.612 237.064 667.175 236.879 667.638 237.11L670.273 238.447z" fill="rgb(45,72,156)"/><path d="M695.033 250.961C694.57 250.733 694.006 250.918 693.771 251.378L691.528 255.81C691.297 256.277 691.486 256.843 691.949 257.072L694.584 258.409C695.044 258.64 695.611 258.458 695.846 257.991L698.085 253.56C698.324 253.093 698.135 252.53 697.675 252.295L695.033 250.961z" fill="rgb(45,72,156)"/><path d="M666.865 248.836C667.357 248.676 667.892 248.943 668.048 249.435L669.599 254.159C669.76 254.647 669.492 255.179 668.997 255.339L666.191 256.262C665.699 256.423 665.168 256.155 665.007 255.667L663.457 250.947C663.296 250.451 663.56 249.92 664.052 249.763L666.865 248.836z" fill="rgb(45,72,156)"/><path d="M693.226 240.18C692.73 240.344 692.463 240.872 692.623 241.364L694.174 246.091C694.334 246.579 694.869 246.847 695.358 246.683L698.163 245.763C698.662 245.603 698.926 245.068 698.766 244.576L697.215 239.856C697.055 239.364 696.523 239.1 696.031 239.26L693.226 240.18z" fill="rgb(45,72,156)"/><path d="M671.795 258.598C672.031 258.134 672.591 257.949 673.061 258.184L677.489 260.423C677.956 260.662 678.145 261.225 677.906 261.685L676.576 264.323C676.341 264.787 675.774 264.972 675.314 264.744L670.879 262.494C670.416 262.259 670.234 261.703 670.462 261.236L671.795 258.598z" fill="rgb(45,72,156)"/><path d="M684.313 233.838C684.081 234.297 684.266 234.864 684.73 235.1L689.165 237.339C689.625 237.574 690.192 237.392 690.423 236.925L691.76 234.283C691.992 233.823 691.807 233.256 691.343 233.021L686.912 230.782C686.448 230.547 685.885 230.732 685.65 231.199L684.313 233.838z" fill="rgb(45,72,156)"/></g><clipPath id="_clipPath_bN1Hg7ZxDlB1y2BCzv8rhO411ZvoP3iT"><path d="M649.536 133.125h226.447v257.73H649.536z" transform="matrix(1,0,0,1,0,0)" fill="rgb(255,255,255)"/></clipPath><g clip-path="url(#_clipPath_bN1Hg7ZxDlB1y2BCzv8rhO411ZvoP3iT)"><g filter="url(#7jcMcA9YoacRaOfMPjI8P53iVHftUc6c)"><g><path d="M707.351 252.164H732.616L707.351 225.672V252.164z" fill="rgb(43,153,241)"/><path d="M732.616 252.164H707.351L732.616 278.653V252.164z" fill="rgb(149,204,248)"/><mask id="_mask_WrBmuQitmCu8y0LTAbsQN6fqxAOhYeJq" x="-200%" y="-200%" width="400%" height="400%"><path d="M-2e2-2e2h4e2v4e2H-2e2z" style="fill:#fff"/><path d="M861.498 406.455H659.888V167.037h201.61V406.455z" fill="#000" stroke="none"/></mask><path d="M861.498 406.455H659.888V167.037h201.61V406.455z" fill="rgb(225,238,254)" mask="url(#_mask_WrBmuQitmCu8y0LTAbsQN6fqxAOhYeJq)" vector-effect="non-scaling-stroke" stroke-width="2" stroke="rgb(45,72,156)" stroke-linejoin="miter" stroke-linecap="butt" stroke-miterlimit="4"/><path d="M861.498 406.455H659.888V167.037h201.61V406.455z" fill="rgb(225,238,254)"/><path d="M862.458 166.279 659.888 166.481V153.781h201.61L862.458 166.279z" fill="rgb(45,72,156)"/><path d="M668.772 159.326C668.772 160.729 667.683 161.868 666.349 161.868 665.009 161.868 663.925 160.729 663.925 159.326 663.925 157.924 665.009 156.789 666.349 156.789 667.683 156.789 668.772 157.924 668.772 159.326z" fill="rgb(149,204,248)"/><path d="M676.443 159.326C676.443 160.729 675.359 161.868 674.019 161.868 672.681 161.868 671.597 160.729 671.597 159.326 671.597 157.924 672.681 156.789 674.019 156.789 675.359 156.789 676.443 157.924 676.443 159.326z" fill="rgb(149,204,248)"/><path d="M684.115 159.326C684.115 160.729 683.031 161.868 681.692 161.868 680.353 161.868 679.269 160.729 679.269 159.326 679.269 157.924 680.353 156.789 681.692 156.789 683.031 156.789 684.115 157.924 684.115 159.326z" fill="rgb(149,204,248)"/><path d="M861.498 416.567H765.018V170.032H861.498V416.567z" fill="rgb(189,223,251)"/><path d="M861.498 200.851H765.019V166.889H861.498V200.851z" fill="rgb(254,193,47)"/><path d="M784.828 214.416C784.828 218.674 781.534 222.128 777.47 222.128 773.407 222.128 770.113 218.674 770.113 214.416 770.113 210.156 773.407 206.703 777.47 206.703 781.534 206.703 784.828 210.156 784.828 214.416z" fill="rgb(255,255,255)"/><path d="M838.025 212.933H789.921V211.153H838.025V212.933z" fill="rgb(149,204,248)"/><path d="M822.745 217.679H789.921V215.898H822.745V217.679z" fill="rgb(149,204,248)"/><path d="M784.828 181.153C784.828 185.411 781.534 188.865 777.47 188.865 773.407 188.865 770.113 185.411 770.113 181.153 770.113 176.892 773.407 173.441 777.47 173.441 781.534 173.441 784.828 176.892 784.828 181.153z" fill="rgb(255,255,255)"/><path d="M838.025 179.669H789.921V177.89H838.025V179.669z" fill="rgb(255,255,255)"/><path d="M822.745 184.416H789.921V182.635H822.745V184.416z" fill="rgb(255,255,255)"/><path d="M784.828 242.103C784.828 246.362 781.534 249.816 777.47 249.816 773.407 249.816 770.113 246.362 770.113 242.103 770.113 237.843 773.407 234.39 777.47 234.39 781.534 234.39 784.828 237.843 784.828 242.103z" fill="rgb(255,255,255)"/><path d="M838.025 240.619H789.921V238.84H838.025V240.619z" fill="rgb(149,204,248)"/><path d="M822.745 245.366H789.921V243.586H822.745V245.366z" fill="rgb(149,204,248)"/><path d="M784.828 269.79C784.828 274.05 781.534 277.503 777.47 277.503 773.407 277.503 770.113 274.05 770.113 269.79 770.113 265.531 773.407 262.077 777.47 262.077 781.534 262.077 784.828 265.531 784.828 269.79z" fill="rgb(255,255,255)"/><path d="M838.025 268.307H789.921V266.527H838.025V268.307z" fill="rgb(149,204,248)"/><path d="M822.745 273.053H789.921V271.274H822.745V273.053z" fill="rgb(149,204,248)"/><path d="M784.828 297.477C784.828 301.737 781.534 305.19 777.47 305.19 773.407 305.19 770.113 301.737 770.113 297.477 770.113 293.218 773.407 289.765 777.47 289.765 781.534 289.765 784.828 293.218 784.828 297.477z" fill="rgb(255,255,255)"/><path d="M838.025 295.995H789.921V294.215H838.025V295.995z" fill="rgb(149,204,248)"/><path d="M822.745 300.74H789.921V298.961H822.745V300.74z" fill="rgb(149,204,248)"/><path d="M756.55 229.565H668.264V204.054H756.55V229.565z" fill="rgb(255,255,255)"/><path d="M688.072 216.81C688.072 221.07 684.777 224.523 680.714 224.523 676.651 224.523 673.357 221.07 673.357 216.81 673.357 212.551 676.651 209.098 680.714 209.098 684.777 209.098 688.072 212.551 688.072 216.81z" fill="rgb(240,47,85)"/><path d="M741.269 215.327H693.165V213.546H741.269V215.327z" fill="rgb(149,204,248)"/><path d="M725.989 220.073H693.165V218.292H725.989V220.073z" fill="rgb(149,204,248)"/><path d="M756.55 196.341H668.264V170.829H756.55v25.512z" fill="rgb(255,255,255)"/><path d="M756.55 196.341V195.945H668.64v-24.72H756.171L756.172 196.341H756.55V195.945 196.341H756.927V170.434H667.886V196.736H756.927V196.341H756.55z" fill="rgb(43,153,241)"/><path d="M688.072 183.585C688.072 187.845 684.777 191.297 680.714 191.297 676.651 191.297 673.357 187.845 673.357 183.585 673.357 179.326 676.651 175.872 680.714 175.872 684.777 175.872 688.072 179.326 688.072 183.585z" fill="rgb(254,193,47)"/><path d="M741.269 182.102H693.165V180.322H741.269V182.102z" fill="rgb(149,204,248)"/><path d="M725.989 186.848H693.165V185.068H725.989V186.848z" fill="rgb(149,204,248)"/><path d="M756.55 262.791H668.263V237.28H756.55V262.791z" fill="rgb(255,255,255)"/><path d="M688.071 250.035C688.071 254.295 684.777 257.748 680.714 257.748 676.65 257.748 673.357 254.295 673.357 250.035 673.357 245.776 676.65 242.323 680.714 242.323 684.777 242.323 688.071 245.776 688.071 250.035z" fill="rgb(245,114,159)"/><path d="M741.269 248.552H693.164V246.772H741.269V248.552z" fill="rgb(149,204,248)"/><path d="M725.988 253.298H693.164V251.518H725.988V253.298z" fill="rgb(149,204,248)"/><path d="M756.55 296.015H668.263V270.505H756.55V296.015z" fill="rgb(255,255,255)"/><path d="M688.071 283.261C688.071 287.52 684.777 290.972 680.714 290.972 676.65 290.972 673.357 287.52 673.357 283.261 673.357 279.001 676.65 275.548 680.714 275.548 684.777 275.548 688.071 279.001 688.071 283.261z" fill="rgb(126,147,238)"/><path d="M741.269 281.777H693.164V279.998H741.269V281.777z" fill="rgb(149,204,248)"/><path d="M725.988 286.523H693.164V284.743H725.988V286.523z" fill="rgb(149,204,248)"/><path d="M756.55 329.241H668.263V303.729H756.55v25.512z" fill="rgb(255,255,255)"/><path d="M688.071 316.486C688.071 320.745 684.777 324.198 680.714 324.198 676.65 324.198 673.357 320.745 673.357 316.486 673.357 312.226 676.65 308.773 680.714 308.773 684.777 308.773 688.071 312.226 688.071 316.486z" fill="rgb(43,153,241)"/><path d="M741.269 315.002H693.164V313.222H741.269V315.002z" fill="rgb(149,204,248)"/><path d="M725.988 319.749H693.164V317.968H725.988V319.749z" fill="rgb(149,204,248)"/><path d="M756.55 362.465H668.263V336.954H756.55V362.465z" fill="rgb(255,255,255)"/><path d="M688.071 349.711C688.071 353.97 684.777 357.423 680.714 357.423 676.65 357.423 673.357 353.97 673.357 349.711 673.357 345.451 676.65 341.998 680.714 341.998 684.777 341.998 688.071 345.451 688.071 349.711z" fill="rgb(61,199,201)"/><path d="M741.269 348.227H693.164V346.448H741.269V348.227z" fill="rgb(149,204,248)"/><path d="M725.988 352.973H693.164V351.193H725.988V352.973z" fill="rgb(149,204,248)"/><path d="M774.744 357.731C774.677 357.802 774.563 357.798 774.49 357.721 774.416 357.645 774.41 357.525 774.477 357.455 774.544 357.384 774.658 357.389 774.731 357.466 774.805 357.542 774.811 357.661 774.744 357.731z" fill="rgb(255,255,255)"/></g></g><defs><filter id="7jcMcA9YoacRaOfMPjI8P53iVHftUc6c" x="-200%" y="-200%" width="400%" height="400%" filterUnits="objectBoundingBox" color-interpolation-filters="sRGB"><feGaussianBlur xmlns="http://www.w3.org/2000/svg" in="SourceGraphic" stdDeviation="6.440413594258542"/><feOffset xmlns="http://www.w3.org/2000/svg" dx="-10" dy="10" result="pf_100_offsetBlur"/><feFlood xmlns="http://www.w3.org/2000/svg" flood-color="#000" flood-opacity="0"/><feComposite xmlns="http://www.w3.org/2000/svg" in2="pf_100_offsetBlur" operator="in" result="pf_100_dropShadow"/><feBlend xmlns="http://www.w3.org/2000/svg" in="SourceGraphic" in2="pf_100_dropShadow" mode="normal"/></filter></defs></g><g><g opacity=".1"><path d="M773.993 81.735C773.562 69.456 786.399 59.025 802.64 58.456 818.882 57.886 832.418 67.392 832.848 79.67 833.279 91.949 820.443 102.38 804.201 102.95 787.96 103.519 774.424 94.013 773.993 81.735z" fill="rgb(164,224,249)"/></g><path d="M739.579 119.241 739.818 126.044 724.925 126.566 723.826 95.235 738.719 94.712 739.579 119.241z" fill="rgb(31,86,183)"/><path d="M765.636 125.138 750.746 125.661 749.145 80.026 764.035 79.504 765.636 125.138z" fill="rgb(31,86,183)"/><path d="M798.088 124 783.198 124.522 782.417 102.251 797.307 101.729 798.088 124z" fill="rgb(31,86,183)"/><path d="M827.218 122.978 812.325 123.5 811.226 92.169 826.119 91.647 827.218 122.978z" fill="rgb(31,77,166)"/><path d="M788.799 99.549 756.753 68.934 728.418 92.732 725.105 91.855 757.068 65.003 789.234 95.732 811.6 78.22 814.84 79.157 788.799 99.549z" fill="rgb(255,114,1)"/><path d="M818.442 81.494 819.188 73.977 805.491 77.771 818.442 81.494z" fill="rgb(255,114,1)"/><path d="M739.424 114.82C734.291 114.44 729.26 113.804 724.446 112.907L723.826 95.235 738.719 94.712 739.424 114.82z" fill="rgb(164,224,249)"/><path d="M756.51 115.139C754.468 115.211 752.419 115.245 750.38 115.239L749.145 80.026 764.035 79.504 765.266 114.595C762.362 114.856 759.439 115.036 756.51 115.139z" fill="rgb(164,224,249)"/><path d="M782.758 111.971 782.417 102.251 797.307 101.729 797.522 107.849C792.856 109.5 787.896 110.875 782.758 111.971z" fill="rgb(164,224,249)"/><path d="M811.552 101.458 811.226 92.169 823.297 91.746C820.603 95.166 816.68 98.455 811.552 101.458z" fill="rgb(164,224,249)"/></g><g><path d="M105.304 519.687C67.543 519.687 36.935 517.357 36.935 514.488 36.935 511.615 67.543 509.285 105.304 509.285 143.062 509.285 173.67 511.615 173.67 514.488 173.67 517.357 143.062 519.687 105.304 519.687z" fill="rgb(113,189,225)"/><path d="M107.136 541.145C73.767 541.145 46.715 538.819 46.715 535.943 46.715 533.07 73.767 530.743 107.136 530.743 140.497 530.743 167.545 533.07 167.545 535.943 167.545 538.819 140.497 541.145 107.136 541.145z" fill="rgb(219,245,255)" fill-opacity=".8"/><path d="M163.228 514.488H44.788V430.841H163.228V514.488z" fill="rgb(255,192,8)"/><path d="M44.788 430.841 163.228 514.488 162.905 432.321 44.788 430.841z" fill="rgb(255,114,1)"/><linearGradient id="_lgradient_65" x1=".07199210905923792" y1=".525867971767429" x2=".8056117405482345" y2=".052309305401327" gradientTransform="matrix(24.511,0,0,89.708,130.904,326.154)" gradientUnits="userSpaceOnUse"><stop offset="0" stop-opacity="1" style="stop-color:#223675"/><stop offset=".27027%" stop-opacity="1" style="stop-color:#223675"/><stop offset="100%" stop-opacity="1" style="stop-color:#2d489c"/></linearGradient><path d="M148.752 391.017 147.715 334.985C147.97 330.476 144.598 326.577 140.098 326.187 135.437 325.78 131.328 329.267 131.036 333.939 130.21 346.955 133.522 362.927 133.582 363.426L136.024 391.467C136.455 394.995 136.068 396.188 140.305 400.648L153.049 415.862 155.415 407.575 148.752 391.017z" fill="url(#_lgradient_65)"/><path d="M149.167 508.495 139.902 509.237 140.477 526.039 139.371 531.111 139.164 534.662 159.046 535.943 159.174 533.82 154.027 530.333 150.587 526.039 149.167 508.495z" fill="rgb(26,41,88)"/><path d="M141.821 534.849 142.504 533.62 143.74 533.688 144.435 535.005 141.821 534.849z" fill="rgb(96,96,96)"/><path d="M115.495 291.27 104.423 290.771C101.522 290.647 99.148 293.053 99.315 295.962L100.441 314.851C100.405 315.757 100.931 316.602 101.801 317.045L104.642 318.917 102.519 335.184 114.829 334.486 113.48 319.024 118.236 316.722C119.194 316.379 119.824 315.561 119.868 314.627L121.189 297.71C121.456 294.338 118.871 291.421 115.495 291.27z" fill="rgb(255,197,144)"/><linearGradient id="_lgradient_66" x1=".018086352194160327" y1=".9666227046768796" x2=".8564941896853211" y2="-.08430030934541333" gradientTransform="matrix(74.786,0,0,78.66,70.172,326.15)" gradientUnits="userSpaceOnUse"><stop offset="0" stop-opacity="1" style="stop-color:#223675"/><stop offset=".27027%" stop-opacity="1" style="stop-color:#223675"/><stop offset="100%" stop-opacity="1" style="stop-color:#2d489c"/></linearGradient><path d="M133.199 404.81H79.222L73.56 396.806 70.172 371.992V371.988L70.719 375.962 79.477 341.117 80.47 337.813C82.25 333.66 80.415 328.844 76.321 326.94 76.01 326.797 75.695 326.669 75.379 326.57L95.549 326.438 140.197 326.15C143.142 326.15 145.384 328.8 144.89 331.705L144.75 332.587 140.189 361.099 133.199 404.81z" fill="url(#_lgradient_66)"/><path d="M79.13 514.544 89.241 514.488 91.662 525.983 92.6 532.587 92.556 535.524 85.801 535.831 83.914 534.67 80.271 534.694 79.254 535.983 60.788 536.266 60.824 534.279 74.342 530.528 80.319 525.62 79.13 514.544z" fill="rgb(26,41,88)"/><linearGradient id="_lgradient_67" x1="21876446353985557e-21" y1=".5" x2="1.0000382625200785" y2=".5" gradientTransform="matrix(100.955,0,0,115.535,53.213,404.81)" gradientUnits="userSpaceOnUse"><stop offset="0" stop-opacity="1" style="stop-color:#1868b3"/><stop offset="100%" stop-opacity="1" style="stop-color:#208aee"/></linearGradient><path d="M151.748 419.521 133.546 413.78 133.199 404.81H74.653L72.642 414.358 58.904 421.644C53.997 423.807 53.179 427.449 53.215 429.496L77.079 520.346 92.085 520.134 78.057 436.012 89.628 432.313 121.396 432.317C121.859 432.317 122.302 432.23 122.753 432.178L130.733 433.367 138.098 520.022 150.735 520.238 154.167 424.142C154.206 422.091 153.676 421.177 151.748 419.521z" fill="url(#_lgradient_67)"/><linearGradient id="_lgradient_68" x1="0" y1=".5" x2="1" y2=".5" gradientTransform="matrix(5.933,0,0,8.251,109.754,323.705)" gradientUnits="userSpaceOnUse"><stop offset="0" stop-opacity="1" style="stop-color:#1868b3"/><stop offset="100%" stop-opacity="1" style="stop-color:#208aee"/></linearGradient><path d="M115.687 326.071 114.174 323.705 109.754 326.003 114.174 331.956 115.687 326.071z" fill="url(#_lgradient_68)"/><linearGradient id="_lgradient_69" x1=".001404494382086341" y1=".5" x2="1" y2=".5" gradientTransform="matrix(5.682,0,0,8.251,102.176,323.705)" gradientUnits="userSpaceOnUse"><stop offset="0" stop-opacity="1" style="stop-color:#1868b3"/><stop offset="100%" stop-opacity="1" style="stop-color:#208aee"/></linearGradient><path d="M102.176 326.071 103.74 323.705 107.858 326.003 103.286 331.956 102.176 326.071z" fill="url(#_lgradient_69)"/><path d="M107.798 326.15H109.805L111.493 328.345 109.754 330.532H107.798L106.178 328.185 107.798 326.15z" fill="rgb(255,255,255)"/><path d="M109.754 330.316 115.084 391.563 111.074 396.635 106.178 391.791 107.798 330.316H109.754z" fill="rgb(255,255,255)"/><path d="M85.235 410.133 88.606 412.587 87.756 413.939 84.548 412.73 85.235 410.133z" fill="rgb(255,197,144)"/><path d="M74.286 408.645 76.776 412.184 85.646 410.033 77.287 404.072 74.286 408.645z" fill="rgb(255,197,144)"/><linearGradient id="_lgradient_70" x1=".4007184511992534" y1=".9742243884150312" x2=".4684448758448133" y2="-.10100412376042844" gradientTransform="matrix(30.414,0,0,85.139,50.735,326.15)" gradientUnits="userSpaceOnUse"><stop offset="0" stop-opacity="1" style="stop-color:#223675"/><stop offset=".27027%" stop-opacity="1" style="stop-color:#223675"/><stop offset="100%" stop-opacity="1" style="stop-color:#2d489c"/></linearGradient><path d="M75.371 411.29 54.084 394.623C51.387 393.247 50.098 390.111 51.044 387.234L57.141 361.099 57.468 359.703C57.576 359.216 59.918 343.076 65.141 331.13 66.513 327.998 69.578 326.15 72.782 326.15 73.648 326.15 74.525 326.286 75.379 326.57 75.695 326.669 76.01 326.797 76.321 326.94 80.415 328.844 82.25 333.66 80.47 337.813L79.477 341.117 79.489 341.065 70.172 371.988v0V371.992L65.943 386.037 73.56 396.806 79.222 404.81 79.417 405.093 75.371 411.29z" fill="url(#_lgradient_70)"/><path d="M87.561 427.857 79.96 419.884 141.019 420.08 149.578 427.857H87.561z" fill="rgb(167,169,172)"/><path d="M95.677 399.256h62.009L149.578 427.857H87.561L95.677 399.256z" fill="rgb(209,211,212)"/><path d="M80.582 419.908 82.254 420.016 79.688 413.983 79.936 413.879 82.996 421.149 85.179 421.038 81.851 413.129 82.115 413.022 86.033 421.684 87.836 421.357 84.026 412.272 84.313 412.16 87.705 420.216 89.616 419.462 85.646 410.033 76.776 411.928 80.582 419.908z" fill="rgb(255,209,166)"/><path d="M150.58 405.249 149.889 407.288 155.762 410.596 156.397 408.537 150.58 405.249z" fill="rgb(255,197,144)"/><path d="M149.127 409.965 148.441 411.996 154.306 415.316 154.94 413.249 149.127 409.965z" fill="rgb(255,197,144)"/><path d="M149.011 407.168 148.321 409.195 155.032 412.966 155.667 410.903 149.011 407.168z" fill="rgb(255,197,144)"/><path d="M149.773 413.046 149.091 415.077 153.584 417.65 154.222 415.587 149.773 413.046z" fill="rgb(255,197,144)"/><linearGradient id="_lgradient_71" x1=".14536878216125615" y1="1.7525478071681988" x2="1.7859817495875587" y2="-5.569304768125748" gradientTransform="matrix(9.305,0,0,34.845,70.172,341.117)" gradientUnits="userSpaceOnUse"><stop offset="0" stop-opacity="1" style="stop-color:#183870"/><stop offset=".27027%" stop-opacity="1" style="stop-color:#183870"/><stop offset="100%" stop-opacity="1" style="stop-color:#1f458b"/></linearGradient><path d="M70.719 375.962 70.172 371.988 79.477 341.117 70.719 375.962z" fill="url(#_lgradient_71)"/><linearGradient id="_lgradient_72" x1="-.7781584582440928" y1="2.200000000000017" x2="-.6146501656280716" y2="-.8776020153688227" gradientTransform="matrix(9.317,0,0,30.923,70.172,341.065)" gradientUnits="userSpaceOnUse"><stop offset="0" stop-opacity="1" style="stop-color:#183870"/><stop offset=".27027%" stop-opacity="1" style="stop-color:#183870"/><stop offset="100%" stop-opacity="1" style="stop-color:#1f458b"/></linearGradient><path d="M70.172 371.988v0L79.489 341.065 79.477 341.117 70.172 371.988z" fill="url(#_lgradient_72)"/><path d="M116.648 288.939C116.648 288.939 115.591 288.433 111.417 288.704 107.248 288.964 106.19 290.799 104.092 289.323 101.677 287.619 95.226 294.541 97.388 298.424L98.749 301.516C99.315 304.133 99.758 305.45 99.95 305.235 101.402 303.607 100.74 299.764 102.097 299.717L104.65 299.206C104.65 299.206 108.094 294.023 109.494 296.987 111.509 301.265 115.607 303.388 119.984 303.168 126.428 302.833 125.953 292.263 116.648 288.939z" fill="rgb(26,41,88)"/></g></g></svg>