<svg xmlns="http://www.w3.org/2000/svg" width="1369.137" height="670.428" viewBox="0 0 1369.137 670.428">
  <g id="admin" transform="translate(-42.751 -140.516)">
    <g id="Group_3471" data-name="Group 3471">
      <g id="Group_3317" data-name="Group 3317" transform="translate(166.356 782.795)">
        <ellipse id="Ellipse_308" data-name="Ellipse 308" cx="619.698" cy="14.075" rx="619.698" ry="14.075" transform="translate(0)" fill="rgba(119,171,233,0.2)"/>
      </g>
      <g id="Group_3323" data-name="Group 3323" transform="translate(42.751 285.986)">
        <g id="Group_3322" data-name="Group 3322">
          <path id="Path_6944" data-name="Path 6944" d="M331,497.675s-36.478-77.3-84.568-75.391-82.77,17.173-100.4-15.42,18.868-33.748,11.413-44.352c-7.5-10.572-25.758,5.54-41.605,17.741s-29.814-11.5-21.3-28.754,4.337-27.565-11.488-24.471c-15.867,3.125-45.395,12.983-39.547-12.184s34.5-38.09,58-27.955,35.767,6.092,47.544,3.807,20.756,3.208,21.73,15.094,2.587,20.247,20.922,14.631c18.293-5.585,46.2-2.035,69.811,32.438,23.639,34.517,18.171,60.464,28.367,72.887s34.766,51.691,39.93,61.8C334.959,497.73,331,497.675,331,497.675Z" transform="translate(-42.751 -128.513)" fill="#ededed" fill-rule="evenodd"/>
          <path id="Path_6945" data-name="Path 6945" d="M50.247,293.63l-.067.448.254.343c.213.108.255.076.8,0a60.909,60.909,0,0,1,12.133-1.089c20.276-.219,40.381,4.8,59.59,11.74A255.938,255.938,0,0,1,162.99,323.47c27.868,15.857,53.388,35.71,76.912,57.438,23.619,21.857,45.285,45.825,62.881,72.541a237.547,237.547,0,0,1,16.958,29.976l.168.406.34.279a.961.961,0,0,0,.459-.008l.171-.127a.958.958,0,0,0,.141-.436l-.041-.235c-12.288-26.268-29.806-49.923-49.309-71.776a472.184,472.184,0,0,0-67.254-61.87c-20.384-15.428-41.971-29.433-65.438-39.526-19.456-8.351-39.8-14.852-60.837-17.186-8.59-.937-17.376-1.332-25.9.067-.587.1-1.131.175-1.687.32C50.633,293.344,50.43,293.429,50.247,293.63Z" transform="translate(-34.565 -118.953)" fill="#fff" fill-rule="evenodd"/>
          <path id="Path_6946" data-name="Path 6946" d="M208.759,230.948c-24.877,18.557-41.727,46.7-51.744,75.283-10.57,30.257-14.915,62.739-14.239,93.757,1.23,55.957,18.473,111.136,45.776,160.457,4.178,7.523,8.485,14.951,13.348,21.966,0,0-.1.138.552.387l.587-.1.344-.521a14.053,14.053,0,0,0-1.107-2.033c-12.789-19.061-23.053-39.728-31.808-61.048-21.641-52.785-31.648-110.469-22.954-167.273,4.463-29.185,12.944-57.7,29.236-83.364,11.812-18.636,27.432-35.446,47.3-45.18a42.86,42.86,0,0,1,4.245-1.883l.483-.424c.175-.66-.133-.9-.133-.9-.584-.43-.884-.208-.884-.208-6.68,2.359-12.89,6.428-18.718,10.744C209.017,230.757,208.888,230.853,208.759,230.948Z" transform="translate(67.395 -198.614)" fill="#e1e1e1" fill-rule="evenodd"/>
          <path id="Path_6947" data-name="Path 6947" d="M184.07,320.2s-41.26-9.389-68.434-37.837C88.452,253.989,127.619,244.424,184.07,320.2Z" transform="translate(27.831 -152.688)" fill="#e1e1e1" fill-rule="evenodd"/>
          <path id="Path_6948" data-name="Path 6948" d="M144.084,295.577s21.9,15.767,46.758,10.361,7.753-21.07-10.622-21.331C161.857,284.272,144.084,295.577,144.084,295.577Z" transform="translate(68.911 -127.216)" fill="#e1e1e1" fill-rule="evenodd"/>
          <path id="Path_6949" data-name="Path 6949" d="M176.214,273.109s7.456-23.173-11.976-51.383C144.88,193.528,130.2,221.915,176.214,273.109Z" transform="translate(70.695 -208.764)" fill="#e1e1e1" fill-rule="evenodd"/>
          <path id="Path_6950" data-name="Path 6950" d="M160.051,240.669S174.375,272.2,197.846,271C221.36,269.782,184.093,236.665,160.051,240.669Z" transform="translate(86.505 -175.995)" fill="#e1e1e1" fill-rule="evenodd"/>
          <path id="Path_6951" data-name="Path 6951" d="M183.366,231.8s39.037,10.24,72.868,2.968C290.034,227.451,236.031,184.1,183.366,231.8Z" transform="translate(112.197 -209.724)" fill="#e1e1e1" fill-rule="evenodd"/>
          <path id="Path_6952" data-name="Path 6952" d="M198.308,368.7s-46.8,10.639-76.86-11.225c-30.1-21.832-11.828-33.443,19.723-30.533C172.648,329.844,198.308,368.7,198.308,368.7Z" transform="translate(27.063 -81.041)" fill="#e1e1e1" fill-rule="evenodd"/>
          <path id="Path_6953" data-name="Path 6953" d="M149.529,362.857s12.065-23.4,47.718-30.364,30.848,8.142,11.888,23.578S149.529,362.857,149.529,362.857Z" transform="translate(74.91 -76.363)" fill="#e1e1e1" fill-rule="evenodd"/>
        </g>
      </g>
      <g id="Group_3325" data-name="Group 3325" transform="translate(1000.972 140.537)">
        <g id="Group_3324" data-name="Group 3324">
          <path id="Path_6954" data-name="Path 6954" d="M786.879,428.495S750.4,351.2,702.311,353.1s-82.77,17.172-100.405-15.421c-17.6-32.55,18.868-33.748,11.413-44.352-7.5-10.572-25.758,5.539-41.605,17.741s-29.814-11.5-21.3-28.754,4.337-27.565-11.488-24.471c-15.867,3.125-45.395,12.983-39.547-12.184s34.5-38.091,58-27.955,35.767,6.092,47.544,3.807,20.757,3.208,21.73,15.095,2.587,20.247,20.922,14.631c18.292-5.585,46.2-2.035,69.81,32.438,23.639,34.517,18.171,60.464,28.367,72.887s34.765,51.691,39.93,61.8C790.8,428.508,786.879,428.495,786.879,428.495Z" transform="translate(-498.627 -59.296)" fill="#ededed" fill-rule="evenodd"/>
          <path id="Path_6955" data-name="Path 6955" d="M506.123,224.45l-.067.448.254.343c.213.108.256.076.8,0a60.935,60.935,0,0,1,12.133-1.089c20.276-.219,40.381,4.8,59.59,11.74a255.948,255.948,0,0,1,40.032,18.394c27.869,15.857,53.387,35.71,76.912,57.438,23.619,21.857,45.285,45.825,62.881,72.541a237.529,237.529,0,0,1,16.958,29.975l.168.406.34.279a.956.956,0,0,0,.459-.008l.171-.127a.959.959,0,0,0,.141-.436l-.041-.235c-12.287-26.268-29.806-49.922-49.309-71.776a472.209,472.209,0,0,0-67.254-61.87c-20.384-15.428-41.971-29.433-65.438-39.526-19.456-8.351-39.8-14.852-60.837-17.186-8.59-.937-17.376-1.332-25.9.068-.587.1-1.131.175-1.687.32C506.509,224.165,506.306,224.249,506.123,224.45Z" transform="translate(-490.441 -49.735)" fill="#fff" fill-rule="evenodd"/>
          <path id="Path_6956" data-name="Path 6956" d="M664.635,161.791c-24.877,18.556-41.727,46.7-51.744,75.282-10.57,30.257-14.916,62.739-14.239,93.757,1.23,55.957,18.473,111.137,45.776,160.457,4.178,7.523,8.484,14.95,13.348,21.965,0,0-.1.138.552.388l.587-.1.344-.52a14.041,14.041,0,0,0-1.107-2.033c-12.79-19.061-23.053-39.728-31.808-61.048C604.7,397.151,594.7,339.467,603.359,282.62c4.463-29.185,12.944-57.7,29.235-83.364,11.812-18.635,27.432-35.445,47.3-45.18a42.88,42.88,0,0,1,4.245-1.883l.483-.424c.174-.66-.133-.9-.133-.9-.584-.43-.884-.208-.884-.208-6.68,2.359-12.89,6.428-18.761,10.776C664.892,161.6,664.764,161.7,664.635,161.791Z" transform="translate(-388.481 -129.418)" fill="#e1e1e1" fill-rule="evenodd"/>
          <path id="Path_6957" data-name="Path 6957" d="M639.922,251.007s-41.26-9.389-68.434-37.837C544.346,184.764,583.47,175.231,639.922,251.007Z" transform="translate(-428.053 -83.5)" fill="#e1e1e1" fill-rule="evenodd"/>
          <path id="Path_6958" data-name="Path 6958" d="M599.965,226.36S621.9,242.1,646.723,236.721c24.861-5.406,7.753-21.07-10.622-21.331S599.965,226.36,599.965,226.36Z" transform="translate(-386.96 -58.036)" fill="#e1e1e1" fill-rule="evenodd"/>
          <path id="Path_6959" data-name="Path 6959" d="M632.112,203.884s7.456-23.173-11.976-51.383C600.736,124.335,586.06,152.722,632.112,203.884Z" transform="translate(-385.192 -139.575)" fill="#e1e1e1" fill-rule="evenodd"/>
          <path id="Path_6960" data-name="Path 6960" d="M615.911,171.468S630.236,203,653.707,201.8C677.252,200.624,639.953,167.465,615.911,171.468Z" transform="translate(-369.388 -106.8)" fill="#e1e1e1" fill-rule="evenodd"/>
          <path id="Path_6961" data-name="Path 6961" d="M639.227,162.6s39.036,10.24,72.868,2.968C745.894,158.248,691.966,114.91,639.227,162.6Z" transform="translate(-343.696 -140.526)" fill="#e1e1e1" fill-rule="evenodd"/>
          <path id="Path_6962" data-name="Path 6962" d="M654.169,299.5s-46.8,10.639-76.86-11.225c-30.1-21.832-11.828-33.443,19.723-30.533C628.54,260.687,654.169,299.5,654.169,299.5Z" transform="translate(-428.83 -11.846)" fill="#e1e1e1" fill-rule="evenodd"/>
          <path id="Path_6963" data-name="Path 6963" d="M605.41,293.642s12.065-23.4,47.718-30.364,30.848,8.142,11.888,23.578S605.41,293.642,605.41,293.642Z" transform="translate(-380.959 -7.185)" fill="#e1e1e1" fill-rule="evenodd"/>
        </g>
      </g>
      <g id="Group_3448" data-name="Group 3448" transform="translate(340.644 140.516)">
        <g id="Group_3326" data-name="Group 3326" transform="translate(0 0)">
          <path id="Path_6964" data-name="Path 6964" d="M680.062,192.057V679.291a21.22,21.22,0,0,1-6.185,15.029,20.968,20.968,0,0,1-14.927,6.227H-127.888a21.049,21.049,0,0,1-14.927-6.227A21.351,21.351,0,0,1-149,679.291V192.057a21.378,21.378,0,0,1,6.185-15.029,21.087,21.087,0,0,1,14.927-6.227H658.95a21.033,21.033,0,0,1,14.927,6.227A21.312,21.312,0,0,1,680.062,192.057Z" transform="translate(149 -170.8)" fill="#08b9fa" fill-rule="evenodd"/>
        </g>
        <g id="Group_3328" data-name="Group 3328" transform="translate(257.786 0.01)">
          <g id="Group_3327" data-name="Group 3327" transform="translate(0)">
            <path id="Path_6965" data-name="Path 6965" d="M474.364-12V475.235a21.2,21.2,0,0,1-21.108,21.253H-96.922V-33.253H453.256a20.943,20.943,0,0,1,14.916,6.227A21.321,21.321,0,0,1,474.364-12Z" transform="translate(96.922 33.253)" fill="#daebff" fill-rule="evenodd"/>
          </g>
        </g>
        <g id="Group_3329" data-name="Group 3329" transform="translate(11.903 145.742)">
          <path id="Path_6966" data-name="Path 6966" d="M226.749,132.954a8.84,8.84,0,0,0-8.829-8.829H7.058a8.84,8.84,0,0,0-8.829,8.829v30.478a8.84,8.84,0,0,0,8.829,8.829H217.92a8.84,8.84,0,0,0,8.829-8.829Z" transform="translate(1.771 -124.125)" fill="#00d56d" fill-rule="evenodd"/>
        </g>
        <g id="Group_3332" data-name="Group 3332" transform="translate(37.753 97.794)">
          <g id="Group_3330" data-name="Group 3330" transform="translate(0 0.05)">
            <ellipse id="Ellipse_309" data-name="Ellipse 309" cx="10.519" cy="10.519" rx="10.519" ry="10.519" fill="#00d56d"/>
          </g>
          <g id="Group_3331" data-name="Group 3331" transform="translate(48.279 0)">
            <path id="Path_6967" data-name="Path 6967" d="M-2.09,96.812a10.558,10.558,0,0,0-3.09-7.476,10.558,10.558,0,0,0-7.475-3.09h-109.4a10.558,10.558,0,0,0-7.475,3.09,10.558,10.558,0,0,0-3.09,7.476h0a10.558,10.558,0,0,0,3.09,7.476,10.573,10.573,0,0,0,7.475,3.106h109.4a10.508,10.508,0,0,0,7.475-3.106,10.558,10.558,0,0,0,3.09-7.476Z" transform="translate(132.621 -86.247)" fill="#fff" fill-rule="evenodd"/>
          </g>
        </g>
        <g id="Group_3335" data-name="Group 3335" transform="translate(37.737 159.226)">
          <g id="Group_3333" data-name="Group 3333" transform="translate(0 0.034)">
            <ellipse id="Ellipse_310" data-name="Ellipse 310" cx="10.534" cy="10.534" rx="10.534" ry="10.534" fill="#fff"/>
          </g>
          <g id="Group_3334" data-name="Group 3334" transform="translate(48.294 0)">
            <path id="Path_6968" data-name="Path 6968" d="M-2.09,38.349a10.558,10.558,0,0,0-3.09-7.476,10.558,10.558,0,0,0-7.475-3.09h-109.4a10.558,10.558,0,0,0-7.475,3.09,10.558,10.558,0,0,0-3.09,7.476h0a10.558,10.558,0,0,0,3.09,7.476,10.573,10.573,0,0,0,7.475,3.106h109.4A10.508,10.508,0,0,0-5.18,45.825a10.585,10.585,0,0,0,3.09-7.476Z" transform="translate(132.621 -27.784)" fill="#fff" fill-rule="evenodd"/>
          </g>
        </g>
        <g id="Group_3338" data-name="Group 3338" transform="translate(37.737 220.674)">
          <g id="Group_3336" data-name="Group 3336" transform="translate(0 0.034)">
            <ellipse id="Ellipse_311" data-name="Ellipse 311" cx="10.534" cy="10.534" rx="10.534" ry="10.534" transform="translate(0 0)" fill="#00d56d"/>
          </g>
          <g id="Group_3337" data-name="Group 3337" transform="translate(48.294 0)">
            <path id="Path_6969" data-name="Path 6969" d="M-2.09-20.106a10.558,10.558,0,0,0-3.09-7.476,10.558,10.558,0,0,0-7.475-3.09h-109.4a10.558,10.558,0,0,0-7.475,3.09,10.558,10.558,0,0,0-3.09,7.476h0a10.558,10.558,0,0,0,3.09,7.476,10.573,10.573,0,0,0,7.475,3.106h109.4A10.508,10.508,0,0,0-5.18-12.631a10.585,10.585,0,0,0,3.09-7.476Z" transform="translate(132.621 30.672)" fill="#fff" fill-rule="evenodd"/>
          </g>
        </g>
        <g id="Group_3341" data-name="Group 3341" transform="translate(81.87 283.745)">
          <g id="Group_3339" data-name="Group 3339" transform="translate(0 0.026)">
            <ellipse id="Ellipse_312" data-name="Ellipse 312" cx="7.935" cy="7.935" rx="7.935" ry="7.935" transform="translate(0 0)" fill="#7cb2f9"/>
          </g>
          <g id="Group_3340" data-name="Group 3340" transform="translate(36.387 0)">
            <path id="Path_6970" data-name="Path 6970" d="M-143.475-196.33a7.953,7.953,0,0,0-2.327-5.631,7.953,7.953,0,0,0-5.631-2.327h-82.4a7.952,7.952,0,0,0-5.63,2.327,7.953,7.953,0,0,0-2.328,5.631h0a7.952,7.952,0,0,0,2.328,5.631,7.963,7.963,0,0,0,5.63,2.339h82.4A7.915,7.915,0,0,0-145.8-190.7a7.973,7.973,0,0,0,2.327-5.631Z" transform="translate(241.792 204.288)" fill="#fff" fill-rule="evenodd"/>
          </g>
        </g>
        <g id="Group_3344" data-name="Group 3344" transform="translate(81.87 330.016)">
          <g id="Group_3342" data-name="Group 3342" transform="translate(0 0.026)">
            <ellipse id="Ellipse_313" data-name="Ellipse 313" cx="7.935" cy="7.935" rx="7.935" ry="7.935" fill="#fff"/>
          </g>
          <g id="Group_3343" data-name="Group 3343" transform="translate(36.387 0)">
            <path id="Path_6971" data-name="Path 6971" d="M-143.475-240.365A7.953,7.953,0,0,0-145.8-246a7.953,7.953,0,0,0-5.631-2.328h-82.4a7.952,7.952,0,0,0-5.63,2.328,7.953,7.953,0,0,0-2.328,5.631h0a7.952,7.952,0,0,0,2.328,5.631,7.952,7.952,0,0,0,5.63,2.328h82.4a7.952,7.952,0,0,0,5.631-2.328,7.953,7.953,0,0,0,2.327-5.631Z" transform="translate(241.792 248.324)" fill="#fff" fill-rule="evenodd"/>
          </g>
        </g>
        <g id="Group_3347" data-name="Group 3347" transform="translate(37.737 385.48)">
          <g id="Group_3345" data-name="Group 3345" transform="translate(0 0.019)">
            <ellipse id="Ellipse_314" data-name="Ellipse 314" cx="10.534" cy="10.534" rx="10.534" ry="10.534" fill="#00d56d"/>
          </g>
          <g id="Group_3346" data-name="Group 3346" transform="translate(48.294 0)">
            <path id="Path_6972" data-name="Path 6972" d="M-2.09-176.911a10.558,10.558,0,0,0-3.09-7.475,10.558,10.558,0,0,0-7.475-3.09h-109.4a10.558,10.558,0,0,0-7.475,3.09,10.558,10.558,0,0,0-3.09,7.475h0a10.558,10.558,0,0,0,3.09,7.475,10.573,10.573,0,0,0,7.475,3.106h109.4a10.508,10.508,0,0,0,7.475-3.106,10.612,10.612,0,0,0,3.09-7.475Z" transform="translate(132.621 187.477)" fill="#fff" fill-rule="evenodd"/>
          </g>
        </g>
        <g id="Group_3354" data-name="Group 3354" transform="translate(26.002 23.611)">
          <g id="Group_3348" data-name="Group 3348" transform="translate(9.472 9.468)">
            <ellipse id="Ellipse_315" data-name="Ellipse 315" cx="12.189" cy="12.189" rx="12.189" ry="12.189" fill="#fff"/>
          </g>
          <g id="Group_3353" data-name="Group 3353" transform="translate(0)">
            <g id="Group_3349" data-name="Group 3349" transform="translate(14.435 28.871)">
              <path id="Path_6973" data-name="Path 6973" d="M-270.316-130.534l7.218,7.218-7.218,7.218-7.218-7.218Z" transform="translate(277.533 130.534)" fill="#006dff" fill-rule="evenodd"/>
            </g>
            <g id="Group_3350" data-name="Group 3350" transform="translate(14.435)">
              <path id="Path_6974" data-name="Path 6974" d="M-270.316-103.063l7.218,7.218-7.218,7.218-7.218-7.218Z" transform="translate(277.533 103.063)" fill="#006dff" fill-rule="evenodd"/>
            </g>
            <g id="Group_3351" data-name="Group 3351" transform="translate(28.869 14.436)">
              <path id="Path_6975" data-name="Path 6975" d="M-284.051-116.8l7.218,7.218-7.218,7.218-7.218-7.218Z" transform="translate(291.269 116.798)" fill="#006dff" fill-rule="evenodd"/>
            </g>
            <g id="Group_3352" data-name="Group 3352" transform="translate(0 14.436)">
              <path id="Path_6976" data-name="Path 6976" d="M-256.58-116.8l7.218,7.218-7.218,7.218-7.218-7.218Z" transform="translate(263.798 116.798)" fill="#006dff" fill-rule="evenodd"/>
            </g>
          </g>
        </g>
        <g id="Group_3364" data-name="Group 3364" transform="translate(73.907 39.715)">
          <g id="Group_3355" data-name="Group 3355" transform="translate(0 0)">
            <path id="Path_6977" data-name="Path 6977" d="M-437.547-323.383h4.118a5.287,5.287,0,0,0,5.491-5.491h0a5.287,5.287,0,0,0-5.491-5.491h-4.118Zm4.118-8.694a3.127,3.127,0,0,1,3.2,3.2h0a3.128,3.128,0,0,1-3.2,3.2h-1.83v-6.406h1.83Z" transform="translate(437.547 334.364)" fill="#fff"/>
          </g>
          <g id="Group_3356" data-name="Group 3356" transform="translate(13.36 0)">
            <path id="Path_6978" data-name="Path 6978" d="M-451.7-323.383h2.288l.915-2.288h4.576l.915,2.288h2.288l-4.576-10.982h-2.288Zm4.576-4.576,1.373-3.66,1.373,3.66Z" transform="translate(451.697 334.364)" fill="#fff"/>
          </g>
          <g id="Group_3357" data-name="Group 3357" transform="translate(29.834 0)">
            <path id="Path_6979" data-name="Path 6979" d="M-461.751-323.383c2.288,0,4.118-1.373,4.118-3.2h0c0-1.83-1.373-2.745-3.2-3.2s-2.288-.915-2.288-1.373h0c0-.458.458-.915,1.373-.915a6.5,6.5,0,0,1,2.745.915l1.373-1.83a5.593,5.593,0,0,0-4.118-1.373c-2.288,0-3.66,1.373-3.66,3.2h0c0,2.288,1.373,2.745,3.66,3.2,1.83.458,2.288.915,2.288,1.373h0c0,.458-.458.915-1.373.915a4.154,4.154,0,0,1-3.2-1.373l-1.373,1.83C-464.953-323.841-463.581-323.383-461.751-323.383Z" transform="translate(465.411 334.364)" fill="#fff"/>
          </g>
          <g id="Group_3358" data-name="Group 3358" transform="translate(42.645 0.458)">
            <path id="Path_6980" data-name="Path 6980" d="M-477.819-323.623h2.288v-4.118h4.118v4.118h2.288v-10.524h-2.288v4.118h-4.118v-4.118h-2.288Z" transform="translate(477.819 334.147)" fill="#fff"/>
          </g>
          <g id="Group_3359" data-name="Group 3359" transform="translate(57.287 0.457)">
            <path id="Path_6981" data-name="Path 6981" d="M-491.969-323.623h5.033c2.288,0,4.118-.915,4.118-2.745h0a3.089,3.089,0,0,0-1.83-2.745,2.114,2.114,0,0,0,1.373-2.288h0a2.377,2.377,0,0,0-.915-1.83,3.868,3.868,0,0,0-2.745-.915h-5.033Zm5.948-7.779c0,.915-.458.915-1.83.915h-2.288v-2.288h2.288c1.373.458,1.83.915,1.83,1.373Zm.915,4.576h0c0,.915-.458,1.373-1.83,1.373h-2.745v-2.288h2.745C-485.563-328.2-485.105-327.741-485.105-326.826Z" transform="translate(491.969 334.147)" fill="#fff"/>
          </g>
          <g id="Group_3360" data-name="Group 3360" transform="translate(71.104 0)">
            <path id="Path_6982" data-name="Path 6982" d="M-500.192-323.383a5.287,5.287,0,0,0,5.491-5.491h0a5.287,5.287,0,0,0-5.491-5.491,5.287,5.287,0,0,0-5.491,5.491h0A5.287,5.287,0,0,0-500.192-323.383Zm0-2.288a3.128,3.128,0,0,1-3.2-3.2h0a3.128,3.128,0,0,1,3.2-3.2,3.128,3.128,0,0,1,3.2,3.2h0A3.128,3.128,0,0,1-500.192-325.671Z" transform="translate(505.683 334.364)" fill="#fff"/>
          </g>
          <g id="Group_3361" data-name="Group 3361" transform="translate(85.976 0)">
            <path id="Path_6983" data-name="Path 6983" d="M-520.7-323.383h2.288l.915-2.288h4.576l.915,2.288h2.288l-4.576-10.982h-2.288Zm4.118-4.576,1.373-3.66,1.373,3.66Z" transform="translate(520.703 334.364)" fill="#fff"/>
          </g>
          <g id="Group_3362" data-name="Group 3362" transform="translate(101.989 0.915)">
            <path id="Path_6984" data-name="Path 6984" d="M-534.395-323.863h2.288v-3.2h1.83l2.288,3.2h2.745l-2.745-3.661a3.048,3.048,0,0,0,2.288-3.2h0a3.5,3.5,0,0,0-.915-2.288c-.915-.915-1.83-.915-3.2-.915h-5.033v10.066Zm2.288-5.491v-3.2h2.288c1.373,0,1.83.458,1.83,1.373h0c0,.915-.458,1.373-1.83,1.373h-2.288Z" transform="translate(534.853 333.929)" fill="#fff"/>
          </g>
          <g id="Group_3363" data-name="Group 3363" transform="translate(116.312 0)">
            <path id="Path_6985" data-name="Path 6985" d="M-548.349-323.383h4.118a5.287,5.287,0,0,0,5.491-5.491h0a5.287,5.287,0,0,0-5.491-5.491h-4.118Zm4.118-8.694a3.127,3.127,0,0,1,3.2,3.2h0a3.127,3.127,0,0,1-3.2,3.2h-1.83v-6.406h1.83Z" transform="translate(548.349 334.364)" fill="#fff"/>
          </g>
        </g>
        <g id="Group_3374" data-name="Group 3374" transform="translate(299.701 86.947)">
          <g id="Group_3365" data-name="Group 3365" transform="translate(0 0)">
            <path id="Path_6986" data-name="Path 6986" d="M108.237,117.615A16.261,16.261,0,0,0,105.271,108a9.057,9.057,0,0,0-7.166-3.98h-262.32A9.057,9.057,0,0,0-171.38,108a16.261,16.261,0,0,0-2.966,9.614V225.6a16.261,16.261,0,0,0,2.966,9.614,9.057,9.057,0,0,0,7.165,3.98H98.106a9.057,9.057,0,0,0,7.166-3.98,16.261,16.261,0,0,0,2.966-9.614V117.615Z" transform="translate(174.346 -104.022)" fill="#fff" fill-rule="evenodd"/>
          </g>
          <g id="Group_3366" data-name="Group 3366" transform="translate(24.882 41.796)">
            <path id="Path_6987" data-name="Path 6987" d="M241.918,517.764c.109.078.172.406.172.406l-.281.187H9.681c-.421-.078-.359-.094-.281-.437l.281-.187H241.793C241.84,517.748,241.887,517.748,241.918,517.764Z" transform="translate(-9.343 -517.733)" fill="#d3e1f7" fill-rule="evenodd"/>
          </g>
          <g id="Group_3369" data-name="Group 3369" transform="translate(30.001 59.163)">
            <g id="Group_3367" data-name="Group 3367" transform="translate(0)">
              <path id="Path_6988" data-name="Path 6988" d="M60.945,117.9a28.685,28.685,0,1,1-28.684,28.685A28.7,28.7,0,0,1,60.945,117.9Zm0,7.179A21.521,21.521,0,1,1,39.424,146.6,21.533,21.533,0,0,1,60.945,125.078Z" transform="translate(-32.261 -117.899)" fill="#d3e1f7" fill-rule="evenodd"/>
            </g>
            <g id="Group_3368" data-name="Group 3368" transform="translate(0 0.016)">
              <path id="Path_6989" data-name="Path 6989" d="M32.261,146.591a28.684,28.684,0,1,0,28.684-28.685v7.179a21.521,21.521,0,1,1-21.521,21.521H32.261Z" transform="translate(-32.261 -117.906)" fill="#3ab3e7" fill-rule="evenodd"/>
            </g>
          </g>
          <g id="Group_3370" data-name="Group 3370" transform="translate(24.868 18.62)">
            <path id="Path_6990" data-name="Path 6990" d="M-60.974,18.248a5.031,5.031,0,0,0-1.492-3.592,5.105,5.105,0,0,0-3.592-1.492h-50.46a5.031,5.031,0,0,0-3.592,1.492,5.105,5.105,0,0,0-1.492,3.592h0a5.031,5.031,0,0,0,1.492,3.592,5.105,5.105,0,0,0,3.592,1.492h50.46a5.052,5.052,0,0,0,3.592-1.492,5.052,5.052,0,0,0,1.492-3.592Z" transform="translate(121.602 -13.164)" fill="#d3e1f7" fill-rule="evenodd"/>
          </g>
          <g id="Group_3371" data-name="Group 3371" transform="translate(108.905 59.186)">
            <path id="Path_6991" data-name="Path 6991" d="M109.117,147.774a6.186,6.186,0,0,0-1.826-4.4,6.315,6.315,0,0,0-4.417-1.826H64.452a6.234,6.234,0,0,0-6.227,6.227h0A6.234,6.234,0,0,0,64.452,154h38.423a6.234,6.234,0,0,0,6.243-6.227Z" transform="translate(-58.225 -141.547)" fill="#d3e1f7" fill-rule="evenodd"/>
          </g>
          <g id="Group_3372" data-name="Group 3372" transform="translate(108.925 81.577)">
            <path id="Path_6992" data-name="Path 6992" d="M194.376,148.113a3.27,3.27,0,0,0-3.262-3.262H57.024a3.26,3.26,0,0,0-3.262,3.262h0a3.26,3.26,0,0,0,3.262,3.262h134.09a3.26,3.26,0,0,0,3.262-3.262Z" transform="translate(-53.763 -144.851)" fill="#e9f2ff" fill-rule="evenodd"/>
          </g>
          <g id="Group_3373" data-name="Group 3373" transform="translate(108.888 96.224)">
            <path id="Path_6993" data-name="Path 6993" d="M68.163,134.184a3.235,3.235,0,0,0-.961-2.31,3.277,3.277,0,0,0-2.3-.952H-50.559a3.308,3.308,0,0,0-2.315.952,3.265,3.265,0,0,0-.961,2.31h0a3.236,3.236,0,0,0,.961,2.31,3.284,3.284,0,0,0,2.315.952H64.9a3.266,3.266,0,0,0,3.262-3.262Z" transform="translate(53.835 -130.922)" fill="#e9f2ff" fill-rule="evenodd"/>
          </g>
        </g>
        <g id="Group_3381" data-name="Group 3381" transform="translate(604.022 86.951)">
          <g id="Group_3375" data-name="Group 3375">
            <path id="Path_6994" data-name="Path 6994" d="M-479.679-61.608a10.43,10.43,0,0,0-1.805-6.034,5.472,5.472,0,0,0-4.361-2.5H-645.5a5.472,5.472,0,0,0-4.361,2.5,10.43,10.43,0,0,0-1.805,6.034V6.171a10.43,10.43,0,0,0,1.805,6.034,5.472,5.472,0,0,0,4.361,2.5h159.652a5.472,5.472,0,0,0,4.361-2.5,10.43,10.43,0,0,0,1.805-6.034Z" transform="translate(651.663 70.14)" fill="#fff" fill-rule="evenodd"/>
          </g>
          <g id="Group_3376" data-name="Group 3376" transform="translate(21.511 16.77)">
            <path id="Path_6995" data-name="Path 6995" d="M-347.341,19.993a5.031,5.031,0,0,0-1.492-3.592,5.105,5.105,0,0,0-3.592-1.492h-50.46a5.031,5.031,0,0,0-3.592,1.492,5.105,5.105,0,0,0-1.492,3.592h0a5.031,5.031,0,0,0,1.492,3.592,5.106,5.106,0,0,0,3.592,1.492h50.46a5.052,5.052,0,0,0,3.592-1.492,5.031,5.031,0,0,0,1.492-3.592Z" transform="translate(407.969 -14.909)" fill="#d3e1f7" fill-rule="evenodd"/>
          </g>
          <g id="Group_3377" data-name="Group 3377" transform="translate(21.537 36.867)">
            <path id="Path_6996" data-name="Path 6996" d="M632.313,120.217c.348.234.164.406.164.406-.164.234-.286.187-.286.187H503.868l-.286-.187.062-.343.225-.094H632.19C632.231,120.2,632.272,120.2,632.313,120.217Z" transform="translate(-503.582 -120.186)" fill="#d3e1f7" fill-rule="evenodd"/>
          </g>
          <g id="Group_3378" data-name="Group 3378" transform="translate(21.538 50.519)">
            <path id="Path_6997" data-name="Path 6997" d="M197.523,123.247a3.068,3.068,0,0,0-.921-2.2,3.118,3.118,0,0,0-2.2-.905H160.3a3.091,3.091,0,0,0-3.106,3.106h0a3.118,3.118,0,0,0,.905,2.2,3.161,3.161,0,0,0,2.2.921h34.1a3.144,3.144,0,0,0,3.121-3.121Z" transform="translate(-157.197 -120.141)" fill="#d3e1f7" fill-rule="evenodd"/>
          </g>
          <g id="Group_3379" data-name="Group 3379" transform="translate(21.532 63.453)">
            <path id="Path_6998" data-name="Path 6998" d="M105.483,130.3a2.191,2.191,0,0,0-2.186-2.185H37.325a2.191,2.191,0,0,0-2.186,2.185h0a2.191,2.191,0,0,0,2.186,2.185H103.3a2.191,2.191,0,0,0,2.186-2.185Z" transform="translate(-35.139 -128.115)" fill="#e9f2ff" fill-rule="evenodd"/>
          </g>
          <g id="Group_3380" data-name="Group 3380" transform="translate(108.26 50.501)">
            <path id="Path_6999" data-name="Path 6999" d="M242.4,127.956a8.662,8.662,0,0,0-8.661-8.662H208.862a8.662,8.662,0,0,0-8.662,8.662h0a8.662,8.662,0,0,0,8.662,8.662h24.876a8.652,8.652,0,0,0,8.661-8.662Z" transform="translate(-200.201 -119.295)" fill="#006dff" fill-rule="evenodd"/>
          </g>
        </g>
        <g id="Group_3423" data-name="Group 3423" transform="translate(604.022 189.356)">
          <g id="Group_3382" data-name="Group 3382">
            <path id="Path_7000" data-name="Path 7000" d="M-479.679-173.669a10.43,10.43,0,0,0-1.805-6.034,5.472,5.472,0,0,0-4.361-2.5H-645.5a5.472,5.472,0,0,0-4.361,2.5,10.43,10.43,0,0,0-1.805,6.034v233.9a10.43,10.43,0,0,0,1.805,6.034,5.472,5.472,0,0,0,4.361,2.5h159.652a5.472,5.472,0,0,0,4.361-2.5,10.43,10.43,0,0,0,1.805-6.034Z" transform="translate(651.663 182.202)" fill="#fff" fill-rule="evenodd"/>
          </g>
          <g id="Group_3390" data-name="Group 3390" transform="translate(19.995 21.047)">
            <g id="Group_3385" data-name="Group 3385" transform="translate(121.241 5.327)">
              <g id="Group_3383" data-name="Group 3383" transform="translate(0 0)">
                <path id="Path_7001" data-name="Path 7001" d="M-938.55-385.388a5.382,5.382,0,0,1,5.379,5.379,5.382,5.382,0,0,1-5.379,5.38,5.382,5.382,0,0,1-5.38-5.38A5.38,5.38,0,0,1-938.55-385.388Zm0,1.343a4.038,4.038,0,0,1,4.036,4.036,4.038,4.038,0,0,1-4.036,4.036,4.038,4.038,0,0,1-4.036-4.036A4.039,4.039,0,0,1-938.55-384.045Z" transform="translate(943.93 385.388)" fill="#d3e1f7" fill-rule="evenodd"/>
              </g>
              <g id="Group_3384" data-name="Group 3384" transform="translate(0 0)">
                <path id="Path_7002" data-name="Path 7002" d="M-943.93-380.009a5.38,5.38,0,0,0,5.38,5.38,5.382,5.382,0,0,0,5.379-5.38,5.38,5.38,0,0,0-5.379-5.379v1.346a4.035,4.035,0,0,1,4.036,4.036,4.038,4.038,0,0,1-4.036,4.036,4.037,4.037,0,0,1-4.036-4.036h-1.343Z" transform="translate(943.93 385.388)" fill="#006dff" fill-rule="evenodd"/>
              </g>
            </g>
            <g id="Group_3388" data-name="Group 3388" transform="translate(34.657 2.039)">
              <g id="Group_3386" data-name="Group 3386" transform="translate(0.004 0)">
                <path id="Path_7003" data-name="Path 7003" d="M36.334,51.9A3.107,3.107,0,0,0,33.215,48.8H3.614a3.152,3.152,0,0,0-2.2.905,3.107,3.107,0,0,0-.915,2.2h0a3.134,3.134,0,0,0,3.119,3.121h29.6A3.134,3.134,0,0,0,36.334,51.9Z" transform="translate(-0.495 -48.796)" fill="#d3e1f7" fill-rule="evenodd"/>
              </g>
              <g id="Group_3387" data-name="Group 3387" transform="translate(0 12.935)">
                <path id="Path_7004" data-name="Path 7004" d="M-45.431,58.955a2.2,2.2,0,0,0-.639-1.545,2.207,2.207,0,0,0-1.549-.64h-58.129a2.229,2.229,0,0,0-1.549.64,2.2,2.2,0,0,0-.639,1.545h0A2.2,2.2,0,0,0-107.3,60.5a2.207,2.207,0,0,0,1.549.64h58.129a2.229,2.229,0,0,0,1.549-.64,2.171,2.171,0,0,0,.639-1.545Z" transform="translate(107.936 -56.77)" fill="#e9f2ff" fill-rule="evenodd"/>
              </g>
            </g>
            <g id="Group_3389" data-name="Group 3389" transform="translate(0 0)">
              <path id="Path_7005" data-name="Path 7005" d="M-57.555-24.2a4.019,4.019,0,0,0-1.182-2.855,4.014,4.014,0,0,0-2.857-1.179H-77.432a4.082,4.082,0,0,0-2.857,1.179A4.071,4.071,0,0,0-81.472-24.2v13.327A4.071,4.071,0,0,0-80.29-8.019a4.035,4.035,0,0,0,2.857,1.179h15.838a4.061,4.061,0,0,0,2.857-1.179,4.019,4.019,0,0,0,1.182-2.855Z" transform="translate(81.472 28.235)" fill="#08b9fa" fill-rule="evenodd"/>
            </g>
          </g>
          <g id="Group_3398" data-name="Group 3398" transform="translate(19.995 67.559)">
            <g id="Group_3393" data-name="Group 3393" transform="translate(121.241 5.327)">
              <g id="Group_3391" data-name="Group 3391" transform="translate(0 0)">
                <path id="Path_7006" data-name="Path 7006" d="M-938.55-429.645a5.382,5.382,0,0,1,5.379,5.38,5.382,5.382,0,0,1-5.379,5.379,5.382,5.382,0,0,1-5.38-5.379A5.382,5.382,0,0,1-938.55-429.645Zm0,1.346a4.038,4.038,0,0,1,4.036,4.036,4.038,4.038,0,0,1-4.036,4.036,4.038,4.038,0,0,1-4.036-4.036A4.038,4.038,0,0,1-938.55-428.3Z" transform="translate(943.93 429.645)" fill="#d3e1f7" fill-rule="evenodd"/>
              </g>
              <g id="Group_3392" data-name="Group 3392" transform="translate(0 0)">
                <path id="Path_7007" data-name="Path 7007" d="M-943.93-424.265a5.38,5.38,0,0,0,5.38,5.379,5.382,5.382,0,0,0,5.379-5.379,5.38,5.38,0,0,0-5.379-5.379v1.346a4.035,4.035,0,0,1,4.036,4.036,4.038,4.038,0,0,1-4.036,4.036,4.036,4.036,0,0,1-4.036-4.036h-1.343Z" transform="translate(943.93 429.645)" fill="#006dff" fill-rule="evenodd"/>
              </g>
            </g>
            <g id="Group_3396" data-name="Group 3396" transform="translate(34.657 2.048)">
              <g id="Group_3394" data-name="Group 3394" transform="translate(0.004 0)">
                <path id="Path_7008" data-name="Path 7008" d="M36.334,7.65a3.107,3.107,0,0,0-3.119-3.106H3.614a3.152,3.152,0,0,0-2.2.905,3.107,3.107,0,0,0-.915,2.2h0a3.134,3.134,0,0,0,3.119,3.121h29.6A3.134,3.134,0,0,0,36.334,7.65Z" transform="translate(-0.495 -4.544)" fill="#d3e1f7" fill-rule="evenodd"/>
              </g>
              <g id="Group_3395" data-name="Group 3395" transform="translate(0 12.935)">
                <path id="Path_7009" data-name="Path 7009" d="M-45.431,14.7a2.2,2.2,0,0,0-.639-1.545,2.207,2.207,0,0,0-1.549-.64h-58.129a2.229,2.229,0,0,0-1.549.64,2.2,2.2,0,0,0-.639,1.545h0a2.2,2.2,0,0,0,.639,1.545,2.207,2.207,0,0,0,1.549.64h58.129a2.229,2.229,0,0,0,1.549-.64,2.2,2.2,0,0,0,.639-1.545Z" transform="translate(107.936 -12.518)" fill="#e9f2ff" fill-rule="evenodd"/>
              </g>
            </g>
            <g id="Group_3397" data-name="Group 3397">
              <path id="Path_7010" data-name="Path 7010" d="M-57.555-68.456a4.019,4.019,0,0,0-1.182-2.855,4.014,4.014,0,0,0-2.857-1.179H-77.432a4.082,4.082,0,0,0-2.857,1.179,4.071,4.071,0,0,0-1.182,2.855V-55.13a4.071,4.071,0,0,0,1.182,2.855A4.035,4.035,0,0,0-77.432-51.1h15.838a4.061,4.061,0,0,0,2.857-1.179,4.019,4.019,0,0,0,1.182-2.855Z" transform="translate(81.472 72.491)" fill="#00d56d" fill-rule="evenodd"/>
            </g>
          </g>
          <g id="Group_3406" data-name="Group 3406" transform="translate(19.995 114.07)">
            <g id="Group_3401" data-name="Group 3401" transform="translate(121.241 5.329)">
              <g id="Group_3399" data-name="Group 3399" transform="translate(0 0)">
                <path id="Path_7011" data-name="Path 7011" d="M-938.55-473.9a5.382,5.382,0,0,1,5.379,5.38,5.382,5.382,0,0,1-5.379,5.38,5.382,5.382,0,0,1-5.38-5.38A5.382,5.382,0,0,1-938.55-473.9Zm0,1.347a4.038,4.038,0,0,1,4.036,4.036,4.039,4.039,0,0,1-4.036,4.036,4.039,4.039,0,0,1-4.036-4.036A4.036,4.036,0,0,1-938.55-472.553Z" transform="translate(943.93 473.9)" fill="#d3e1f7" fill-rule="evenodd"/>
              </g>
              <g id="Group_3400" data-name="Group 3400" transform="translate(0 0)">
                <path id="Path_7012" data-name="Path 7012" d="M-943.93-468.52a5.38,5.38,0,0,0,5.38,5.38,5.382,5.382,0,0,0,5.379-5.38,5.38,5.38,0,0,0-5.379-5.379v1.346a4.034,4.034,0,0,1,4.036,4.036,4.039,4.039,0,0,1-4.036,4.036,4.037,4.037,0,0,1-4.036-4.036h-1.343Z" transform="translate(943.93 473.9)" fill="#006dff" fill-rule="evenodd"/>
              </g>
            </g>
            <g id="Group_3404" data-name="Group 3404" transform="translate(34.657 2.041)">
              <g id="Group_3402" data-name="Group 3402" transform="translate(0.004 0)">
                <path id="Path_7013" data-name="Path 7013" d="M36.334-36.61a3.107,3.107,0,0,0-.915-2.2,3.128,3.128,0,0,0-2.2-.905H3.614a3.152,3.152,0,0,0-2.2.905,3.107,3.107,0,0,0-.915,2.2h0a3.107,3.107,0,0,0,.915,2.2,3.077,3.077,0,0,0,2.2.921h29.6a3.128,3.128,0,0,0,2.2-.905,3.171,3.171,0,0,0,.915-2.216Z" transform="translate(-0.495 39.715)" fill="#d3e1f7" fill-rule="evenodd"/>
              </g>
              <g id="Group_3403" data-name="Group 3403" transform="translate(0 12.935)">
                <path id="Path_7014" data-name="Path 7014" d="M-45.431-29.556A2.2,2.2,0,0,0-46.07-31.1a2.207,2.207,0,0,0-1.549-.64h-58.129a2.229,2.229,0,0,0-1.549.64,2.2,2.2,0,0,0-.639,1.545h0a2.2,2.2,0,0,0,.639,1.545,2.207,2.207,0,0,0,1.549.64h58.129a2.228,2.228,0,0,0,1.549-.64,2.2,2.2,0,0,0,.639-1.545Z" transform="translate(107.936 31.741)" fill="#e9f2ff" fill-rule="evenodd"/>
              </g>
            </g>
            <g id="Group_3405" data-name="Group 3405">
              <path id="Path_7015" data-name="Path 7015" d="M-57.555-112.712a4.019,4.019,0,0,0-1.182-2.855,4.014,4.014,0,0,0-2.857-1.179H-77.432a4.082,4.082,0,0,0-2.857,1.179,4.071,4.071,0,0,0-1.182,2.855v13.327a4.071,4.071,0,0,0,1.182,2.855,4.035,4.035,0,0,0,2.857,1.179h15.838a4.061,4.061,0,0,0,2.857-1.179,4.019,4.019,0,0,0,1.182-2.855Z" transform="translate(81.472 116.747)" fill="#08b9fa" fill-rule="evenodd"/>
            </g>
          </g>
          <g id="Group_3414" data-name="Group 3414" transform="translate(19.995 160.583)">
            <g id="Group_3409" data-name="Group 3409" transform="translate(121.241 5.328)">
              <g id="Group_3407" data-name="Group 3407" transform="translate(0)">
                <path id="Path_7016" data-name="Path 7016" d="M-938.55-518.156a5.382,5.382,0,0,1,5.379,5.38,5.382,5.382,0,0,1-5.379,5.379,5.382,5.382,0,0,1-5.38-5.379A5.382,5.382,0,0,1-938.55-518.156Zm0,1.346a4.038,4.038,0,0,1,4.036,4.036,4.038,4.038,0,0,1-4.036,4.036,4.038,4.038,0,0,1-4.036-4.036A4.038,4.038,0,0,1-938.55-516.809Z" transform="translate(943.93 518.156)" fill="#d3e1f7" fill-rule="evenodd"/>
              </g>
              <g id="Group_3408" data-name="Group 3408" transform="translate(0 0.003)">
                <path id="Path_7017" data-name="Path 7017" d="M-943.93-512.775a5.38,5.38,0,0,0,5.38,5.379,5.382,5.382,0,0,0,5.379-5.379,5.38,5.38,0,0,0-5.379-5.38v1.346a4.034,4.034,0,0,1,4.036,4.036,4.038,4.038,0,0,1-4.036,4.036,4.036,4.036,0,0,1-4.036-4.036h-1.343Z" transform="translate(943.93 518.154)" fill="#006dff" fill-rule="evenodd"/>
              </g>
            </g>
            <g id="Group_3412" data-name="Group 3412" transform="translate(34.657 2.049)">
              <g id="Group_3410" data-name="Group 3410" transform="translate(0.004)">
                <path id="Path_7018" data-name="Path 7018" d="M36.334-80.862a3.107,3.107,0,0,0-.915-2.2,3.128,3.128,0,0,0-2.2-.905H3.614a3.152,3.152,0,0,0-2.2.905,3.107,3.107,0,0,0-.915,2.2h0a3.107,3.107,0,0,0,.915,2.2,3.128,3.128,0,0,0,2.2.905h29.6a3.128,3.128,0,0,0,2.2-.905,3.107,3.107,0,0,0,.915-2.2Z" transform="translate(-0.495 83.967)" fill="#d3e1f7" fill-rule="evenodd"/>
              </g>
              <g id="Group_3411" data-name="Group 3411" transform="translate(0 12.935)">
                <path id="Path_7019" data-name="Path 7019" d="M-45.431-73.808a2.2,2.2,0,0,0-.639-1.545,2.207,2.207,0,0,0-1.549-.64h-58.129a2.229,2.229,0,0,0-1.549.64,2.2,2.2,0,0,0-.639,1.545h0a2.2,2.2,0,0,0,.639,1.545,2.207,2.207,0,0,0,1.549.64h58.129a2.229,2.229,0,0,0,1.549-.64,2.226,2.226,0,0,0,.639-1.545Z" transform="translate(107.936 75.993)" fill="#e9f2ff" fill-rule="evenodd"/>
              </g>
            </g>
            <g id="Group_3413" data-name="Group 3413">
              <path id="Path_7020" data-name="Path 7020" d="M-57.555-156.968a4.019,4.019,0,0,0-1.182-2.855A4.014,4.014,0,0,0-61.594-161H-77.432a4.083,4.083,0,0,0-2.857,1.18,4.071,4.071,0,0,0-1.182,2.855v13.327a4.071,4.071,0,0,0,1.182,2.855,4.035,4.035,0,0,0,2.857,1.179h15.838a4.061,4.061,0,0,0,2.857-1.179,4.019,4.019,0,0,0,1.182-2.855Z" transform="translate(81.472 161.003)" fill="#00d56d" fill-rule="evenodd"/>
            </g>
          </g>
          <g id="Group_3422" data-name="Group 3422" transform="translate(19.995 207.094)">
            <g id="Group_3417" data-name="Group 3417" transform="translate(121.241 5.331)">
              <g id="Group_3415" data-name="Group 3415" transform="translate(0)">
                <path id="Path_7021" data-name="Path 7021" d="M-938.55-562.411a5.382,5.382,0,0,1,5.379,5.379,5.382,5.382,0,0,1-5.379,5.38,5.382,5.382,0,0,1-5.38-5.38A5.382,5.382,0,0,1-938.55-562.411Zm0,1.346a4.038,4.038,0,0,1,4.036,4.036,4.038,4.038,0,0,1-4.036,4.036,4.038,4.038,0,0,1-4.036-4.036A4.038,4.038,0,0,1-938.55-561.064Z" transform="translate(943.93 562.411)" fill="#d3e1f7" fill-rule="evenodd"/>
              </g>
              <g id="Group_3416" data-name="Group 3416" transform="translate(0 0.003)">
                <path id="Path_7022" data-name="Path 7022" d="M-943.93-557.03a5.38,5.38,0,0,0,5.38,5.38,5.382,5.382,0,0,0,5.379-5.38,5.38,5.38,0,0,0-5.379-5.379v1.346a4.034,4.034,0,0,1,4.036,4.036,4.039,4.039,0,0,1-4.036,4.036,4.037,4.037,0,0,1-4.036-4.036h-1.343Z" transform="translate(943.93 562.409)" fill="#006dff" fill-rule="evenodd"/>
              </g>
            </g>
            <g id="Group_3420" data-name="Group 3420" transform="translate(34.657 2.042)">
              <g id="Group_3418" data-name="Group 3418" transform="translate(0.004)">
                <path id="Path_7023" data-name="Path 7023" d="M36.334-125.121a3.107,3.107,0,0,0-.915-2.2,3.128,3.128,0,0,0-2.2-.905H3.614a3.152,3.152,0,0,0-2.2.905,3.107,3.107,0,0,0-.915,2.2h0a3.107,3.107,0,0,0,.915,2.2,3.143,3.143,0,0,0,2.2.921h29.6a3.078,3.078,0,0,0,2.2-.921,3.107,3.107,0,0,0,.915-2.2Z" transform="translate(-0.495 128.227)" fill="#d3e1f7" fill-rule="evenodd"/>
              </g>
              <g id="Group_3419" data-name="Group 3419" transform="translate(0 12.935)">
                <path id="Path_7024" data-name="Path 7024" d="M-45.431-118.067a2.2,2.2,0,0,0-.639-1.545,2.206,2.206,0,0,0-1.549-.64h-58.129a2.228,2.228,0,0,0-1.549.64,2.2,2.2,0,0,0-.639,1.545h0a2.2,2.2,0,0,0,.639,1.545,2.207,2.207,0,0,0,1.549.64h58.129a2.228,2.228,0,0,0,1.549-.64,2.2,2.2,0,0,0,.639-1.545Z" transform="translate(107.936 120.252)" fill="#e9f2ff" fill-rule="evenodd"/>
              </g>
            </g>
            <g id="Group_3421" data-name="Group 3421" transform="translate(0 0)">
              <path id="Path_7025" data-name="Path 7025" d="M-57.555-201.225a4.019,4.019,0,0,0-1.182-2.855,4.014,4.014,0,0,0-2.857-1.179H-77.432a4.082,4.082,0,0,0-2.857,1.179,4.071,4.071,0,0,0-1.182,2.855V-187.9a4.071,4.071,0,0,0,1.182,2.855,4.035,4.035,0,0,0,2.857,1.179h15.838a4.061,4.061,0,0,0,2.857-1.179,4.019,4.019,0,0,0,1.182-2.855Z" transform="translate(81.472 205.259)" fill="#08b9fa" fill-rule="evenodd"/>
            </g>
          </g>
        </g>
        <g id="Group_3444" data-name="Group 3444" transform="translate(299.632 240.695)">
          <g id="Group_3424" data-name="Group 3424" transform="translate(0 0)">
            <path id="Path_7026" data-name="Path 7026" d="M249.168,192.379a15.921,15.921,0,0,0-15.934-15.923H-17.544a15.981,15.981,0,0,0-11.268,4.66,15.963,15.963,0,0,0-4.666,11.264V360.146a15.962,15.962,0,0,0,4.666,11.264,15.889,15.889,0,0,0,11.268,4.66H233.234a15.921,15.921,0,0,0,15.934-15.923Z" transform="translate(33.478 -176.456)" fill="#fff" fill-rule="evenodd"/>
          </g>
          <g id="Group_3426" data-name="Group 3426" transform="translate(64.445 73.829)">
            <g id="Group_3425" data-name="Group 3425">
              <path id="Path_7027" data-name="Path 7027" d="M45.393,467.227h-15.7a1.563,1.563,0,0,1-1.561-1.563V375.229a1.563,1.563,0,0,1,1.561-1.563H45.409a1.563,1.563,0,0,1,1.561,1.563v90.435A1.587,1.587,0,0,1,45.393,467.227ZM31.238,464.12H43.832V376.791H31.238Z" transform="translate(-28.132 -373.666)" fill="#d3e1f7"/>
            </g>
          </g>
          <g id="Group_3427" data-name="Group 3427" transform="translate(102.904 53.16)">
            <rect id="Rectangle_1689" data-name="Rectangle 1689" width="13.265" height="153.546" transform="translate(0)" fill="#d3e1f7"/>
          </g>
          <g id="Group_3428" data-name="Group 3428" transform="translate(137.8 84.349)">
            <rect id="Rectangle_1690" data-name="Rectangle 1690" width="13.265" height="111.051" transform="translate(0 0)" fill="#d3e1f7"/>
          </g>
          <g id="Group_3430" data-name="Group 3430" transform="translate(168.963 78.083)">
            <g id="Group_3429" data-name="Group 3429">
              <path id="Path_7028" data-name="Path 7028" d="M-54.074,413.761H-69.79a1.589,1.589,0,0,1-1.592-1.594V326a1.6,1.6,0,0,1,1.592-1.594h15.716A1.589,1.589,0,0,1-52.482,326v86.162A1.589,1.589,0,0,1-54.074,413.761Zm-14.108-3.206h12.516V327.581H-68.182Z" transform="translate(71.382 -324.411)" fill="#d3e1f7"/>
            </g>
          </g>
          <g id="Group_3431" data-name="Group 3431" transform="translate(209.556 23.895)">
            <rect id="Rectangle_1691" data-name="Rectangle 1691" width="13.265" height="193.428" fill="#d3e1f7"/>
          </g>
          <g id="Group_3432" data-name="Group 3432" transform="translate(25.28 32.941)">
            <path id="Path_7029" data-name="Path 7029" d="M-61.293-141.68a5.03,5.03,0,0,0-1.492-3.592,5.105,5.105,0,0,0-3.592-1.492h-50.46a5.031,5.031,0,0,0-3.592,1.492,5.105,5.105,0,0,0-1.492,3.592h0a5.031,5.031,0,0,0,1.492,3.592,5.105,5.105,0,0,0,3.592,1.492h50.46a5.052,5.052,0,0,0,3.592-1.492,5.03,5.03,0,0,0,1.492-3.592Z" transform="translate(121.921 146.764)" fill="#d3e1f7" fill-rule="evenodd"/>
          </g>
          <g id="Group_3433" data-name="Group 3433" transform="translate(25.287 75.379)">
            <path id="Path_7030" data-name="Path 7030" d="M26.225,218.48a2.7,2.7,0,0,0-2.7-2.7H5.484a2.7,2.7,0,0,0-2.7,2.7h0a2.7,2.7,0,0,0,2.7,2.7H23.525a2.7,2.7,0,0,0,2.7-2.7Z" transform="translate(-2.784 -215.78)" fill="#d3e1f7" fill-rule="evenodd"/>
          </g>
          <g id="Group_3434" data-name="Group 3434" transform="translate(25.287 98.894)">
            <path id="Path_7031" data-name="Path 7031" d="M26.225,196.109a2.7,2.7,0,0,0-2.7-2.7H5.484a2.7,2.7,0,0,0-2.7,2.7h0a2.7,2.7,0,0,0,2.7,2.7H23.525a2.7,2.7,0,0,0,2.7-2.7Z" transform="translate(-2.784 -193.409)" fill="#d3e1f7" fill-rule="evenodd"/>
          </g>
          <g id="Group_3435" data-name="Group 3435" transform="translate(25.287 122.408)">
            <path id="Path_7032" data-name="Path 7032" d="M26.225,173.738a2.7,2.7,0,0,0-2.7-2.7H5.484a2.7,2.7,0,0,0-2.7,2.7h0a2.7,2.7,0,0,0,2.7,2.7H23.525a2.7,2.7,0,0,0,2.7-2.7Z" transform="translate(-2.784 -171.038)" fill="#d3e1f7" fill-rule="evenodd"/>
          </g>
          <g id="Group_3436" data-name="Group 3436" transform="translate(25.287 145.923)">
            <path id="Path_7033" data-name="Path 7033" d="M26.225,151.367a2.7,2.7,0,0,0-2.7-2.7H5.484a2.7,2.7,0,0,0-2.7,2.7h0a2.7,2.7,0,0,0,2.7,2.7H23.525a2.7,2.7,0,0,0,2.7-2.7Z" transform="translate(-2.784 -148.667)" fill="#d3e1f7" fill-rule="evenodd"/>
          </g>
          <g id="Group_3437" data-name="Group 3437" transform="translate(66.008 174.868)">
            <path id="Path_7034" data-name="Path 7034" d="M-244.615,122.757a2.7,2.7,0,0,0-2.689-2.7h-10.327a2.7,2.7,0,0,0-2.689,2.7h0a2.7,2.7,0,0,0,2.689,2.7H-247.3a2.708,2.708,0,0,0,2.689-2.7Z" transform="translate(260.321 -120.06)" fill="#d3e1f7" fill-rule="evenodd"/>
          </g>
          <g id="Group_3438" data-name="Group 3438" transform="translate(101.587 174.868)">
            <path id="Path_7035" data-name="Path 7035" d="M-278.476,122.757a2.7,2.7,0,0,0-2.689-2.7h-10.328a2.7,2.7,0,0,0-2.689,2.7h0a2.7,2.7,0,0,0,2.689,2.7h10.328a2.708,2.708,0,0,0,2.689-2.7Z" transform="translate(294.182 -120.06)" fill="#d3e1f7" fill-rule="evenodd"/>
          </g>
          <g id="Group_3439" data-name="Group 3439" transform="translate(137.175 174.868)">
            <path id="Path_7036" data-name="Path 7036" d="M-312.331,122.757a2.7,2.7,0,0,0-2.689-2.7h-10.327a2.7,2.7,0,0,0-2.689,2.7h0a2.7,2.7,0,0,0,2.689,2.7h10.327a2.708,2.708,0,0,0,2.689-2.7Z" transform="translate(328.037 -120.06)" fill="#d3e1f7" fill-rule="evenodd"/>
          </g>
          <g id="Group_3440" data-name="Group 3440" transform="translate(172.757 174.868)">
            <path id="Path_7037" data-name="Path 7037" d="M-346.192,122.757a2.7,2.7,0,0,0-2.689-2.7h-10.327a2.7,2.7,0,0,0-2.689,2.7h0a2.7,2.7,0,0,0,2.689,2.7h10.327a2.708,2.708,0,0,0,2.689-2.7Z" transform="translate(361.898 -120.06)" fill="#d3e1f7" fill-rule="evenodd"/>
          </g>
          <g id="Group_3441" data-name="Group 3441" transform="translate(208.345 174.868)">
            <path id="Path_7038" data-name="Path 7038" d="M-380.047,122.757a2.7,2.7,0,0,0-2.689-2.7h-10.327a2.7,2.7,0,0,0-2.689,2.7h0a2.7,2.7,0,0,0,2.689,2.7h10.327a2.708,2.708,0,0,0,2.689-2.7Z" transform="translate(395.753 -120.06)" fill="#d3e1f7" fill-rule="evenodd"/>
          </g>
          <g id="Group_3442" data-name="Group 3442" transform="translate(24.951 165.818)">
            <path id="Path_7039" data-name="Path 7039" d="M241.918,253.448c.109.078.172.406.172.406l-.281.187H9.681c-.421-.078-.359-.094-.281-.437l.281-.187H241.793A.482.482,0,0,0,241.918,253.448Z" transform="translate(-9.343 -253.416)" fill="#d3e1f7" fill-rule="evenodd"/>
          </g>
          <g id="Group_3443" data-name="Group 3443" transform="translate(24.951 56.973)">
            <path id="Path_7040" data-name="Path 7040" d="M241.918,357.031c.109.078.172.406.172.406l-.281.187H9.681c-.421-.078-.359-.094-.281-.437L9.681,357H241.793C241.84,357.016,241.887,357.016,241.918,357.031Z" transform="translate(-9.343 -357)" fill="#d3e1f7" fill-rule="evenodd"/>
          </g>
        </g>
        <g id="Group_3445" data-name="Group 3445" transform="translate(299.699 39.741)">
          <path id="Path_7041" data-name="Path 7041" d="M123.3,79.674a12.2,12.2,0,0,0-12.2-12.2H28.012a12.2,12.2,0,0,0-12.2,12.2h0a12.2,12.2,0,0,0,12.2,12.2H111.1a12.2,12.2,0,0,0,12.2-12.2Z" transform="translate(-15.807 -67.469)" fill="#08b9fa" fill-rule="evenodd"/>
        </g>
        <g id="Group_3446" data-name="Group 3446" transform="translate(299.682 457.273)">
          <path id="Path_7042" data-name="Path 7042" d="M207.773,632.152a10.913,10.913,0,0,0-10.921-10.924H-63.887a10.96,10.96,0,0,0-7.729,3.2,10.938,10.938,0,0,0-3.206,7.723v19.163a10.879,10.879,0,0,0,3.206,7.723,10.937,10.937,0,0,0,7.729,3.2H196.852a10.913,10.913,0,0,0,10.921-10.924Z" transform="translate(74.822 -621.228)" fill="#fff" fill-rule="evenodd"/>
        </g>
        <g id="Group_3447" data-name="Group 3447" transform="translate(603.969 457.273)">
          <path id="Path_7043" data-name="Path 7043" d="M-160.954,632.152a10.938,10.938,0,0,0-3.206-7.723,10.935,10.935,0,0,0-7.729-3.2H-322.032a10.96,10.96,0,0,0-7.729,3.2,10.938,10.938,0,0,0-3.206,7.723v19.163a10.878,10.878,0,0,0,3.206,7.723,10.936,10.936,0,0,0,7.729,3.2h150.143a10.962,10.962,0,0,0,7.729-3.2,10.939,10.939,0,0,0,3.206-7.723Z" transform="translate(332.967 -621.228)" fill="#fff" fill-rule="evenodd"/>
        </g>
      </g>
      <g id="Group_3449" data-name="Group 3449" transform="translate(1218.41 375.131)">
        <path id="Path_7044" data-name="Path 7044" d="M458.175,246.361v46.75l-28.859,7.876-4.082,1.115-7.624-22.836s9.53-79.475,6.671-104.307c-1.618-14.2,9.728,11.274,19.725,35.62C451.469,228.793,458.175,246.361,458.175,246.361Z" transform="translate(-417.611 -170.871)" fill="#ffbc00" fill-rule="evenodd"/>
      </g>
      <g id="Group_3450" data-name="Group 3450" transform="translate(1226.426 393.473)">
        <path id="Path_7045" data-name="Path 7045" d="M638.442,318.017v46.75l-28.878,7.89c2.376-22.195-3.677-111.8-3.677-111.8s7.713,8.729,18.34,21.418C631.716,300.435,638.442,318.017,638.442,318.017Z" transform="translate(-605.887 -260.861)" fill="#ff8f00" fill-rule="evenodd"/>
      </g>
      <g id="Group_3451" data-name="Group 3451" transform="translate(1311.011 716.484)">
        <path id="Path_7046" data-name="Path 7046" d="M514.458,333.271s14.331,39.09,16.273,48.656c1.942,9.548-31.538,29.6-36.411,32.9H461.666a14.376,14.376,0,0,1,8.487-10.842c7.732-3.488,19.473-17.459,19.743-22.062.252-4.6-11.472-28.949-11.472-28.949S507.337,334.332,514.458,333.271Z" transform="translate(-461.666 -333.271)" fill="#0e57e6" fill-rule="evenodd"/>
      </g>
      <g id="Group_3452" data-name="Group 3452" transform="translate(1137.568 732.234)">
        <path id="Path_7047" data-name="Path 7047" d="M467.634,344.72l-12.281,61.836h-76.2s1.636-7.984,13.953-13.917S417,380.2,419.121,369.911c2.122-10.3,5.448-29.147,5.448-29.147Z" transform="translate(-379.15 -340.765)" fill="#0e57e6" fill-rule="evenodd"/>
      </g>
      <g id="Group_3453" data-name="Group 3453" transform="translate(1230.725 223.996)">
        <path id="Path_7048" data-name="Path 7048" d="M485.272,167.092c.144,13.647,5.646,31.071,5.646,31.071H443.682s-.018-10.806,0-17.459c.018-3.65-6.815-5.592-12.533-9.853h-.018c-4.711-3.506-8.685-8.577-7.426-17.513,1.636-11.723,7.138-25.335,11.328-34.433,2.877-6.239,5.142-10.375,5.142-10.375,11.616-19.491,50.724-5.736,55.813,10.645,5.071,16.381-5.988,25.91-9.782,39.108A33.8,33.8,0,0,0,485.272,167.092Z" transform="translate(-423.47 -98.968)" fill="#fe715f" fill-rule="evenodd"/>
      </g>
      <g id="Group_3454" data-name="Group 3454" transform="translate(1238.443 223.982)">
        <path id="Path_7049" data-name="Path 7049" d="M664.6,239.534a33.282,33.282,0,0,0-.986,8.822c-22.555,2.625-27.757-3.386-29.73-10.763-2.018-7.378,4.125-3.557,5.336-10.422,1.211-6.849-2.332-10-7.623-9.412-5.291.606-7.489-1.056-8.609-8.107-.673-4.411-5.829-7.673-9.551-9.474,2.87-6.244,5.157-10.391,5.157-10.391,11.614-19.492,50.715-5.731,55.827,10.639C679.445,216.8,668.414,226.332,664.6,239.534Z" transform="translate(-609.583 -180.226)" fill="#1f2a82" fill-rule="evenodd"/>
        <path id="Path_7050" data-name="Path 7050" d="M633.846,229.749c-2.063,2.3-2.018,7.082-1.211,12.006h-8.52V224.282c0-3.65-6.816-5.591-12.511-9.863,1.435.606,12.824,5.172,17.847,4.178C634.7,217.573,639.047,224.034,633.846,229.749Z" transform="translate(-611.604 -142.547)" fill="#e24b38" fill-rule="evenodd"/>
      </g>
      <g id="Group_3455" data-name="Group 3455" transform="translate(1267.335 478.602)">
        <path id="Path_7051" data-name="Path 7051" d="M553.627,470.333s-23.483,12.91-47.415,17.747c0,0-7.822-15.643-17.19-34.451C476.328,428.1,460.81,396.7,458.2,390.606c-4.5-10.573-16.255-31.952-16.992-59.049-.378-14.1-.36-35.656-.27-53.061v-.018c.108-16,.27-28.5.27-28.5s-6.8-44.395,48.8-24.957c0,0,11.724,33.408,11.31,79.4C500.908,350.455,527.663,417.937,553.627,470.333Z" transform="translate(-440.887 -220.098)" fill="#1f2a82" fill-rule="evenodd"/>
      </g>
      <g id="Group_3456" data-name="Group 3456" transform="translate(1267.316 523.965)">
        <path id="Path_7052" data-name="Path 7052" d="M673.774,511.267a1.215,1.215,0,0,0-.314-.171c-12.69-25.534-28.205-56.923-30.806-63.012-4.484-10.577-16.233-31.949-16.995-59.051-.359-14.1-.359-35.645-.269-53.056v-.016c2.511-6.166,5.74-10.282,9.506-11.711,26.142-9.816,14.484,38.177,6.681,58.974-7.847,20.781,6.054,53.227,21.031,76.757C677.586,483.543,673.774,511.267,673.774,511.267Z" transform="translate(-625.341 -322.944)" fill="#181f54" fill-rule="evenodd"/>
      </g>
      <g id="Group_3457" data-name="Group 3457" transform="translate(1180.38 483.543)">
        <path id="Path_7053" data-name="Path 7053" d="M516.933,222.449s-.144.5-.413,1.474c-1.169,4.064-4.675,16.129-9.116,31.556-8.253,28.589-19.887,68.759-26.324,90.839-10.716,36.843-30.208,149.852-30.208,149.852s-22.872,6.257-51.353-10.7c0,0,23.5-199.083,38.03-263.023h79.386Z" transform="translate(-399.518 -222.449)" fill="#1f2a82" fill-rule="evenodd"/>
      </g>
      <g id="Group_3458" data-name="Group 3458" transform="translate(1229.631 483.539)">
        <path id="Path_7054" data-name="Path 7054" d="M682.32,329.9c-3.229,2.8-9.148,5.125-16.322,6.834-23.676,5.638-60.894,4.4-58.473-9.1.762-4.225.986-13.016.807-23.919H674.2c.314.5.628.994.9,1.475C682.41,317.348,685.952,326.744,682.32,329.9Z" transform="translate(-607.412 -303.711)" fill="#181f54" fill-rule="evenodd"/>
      </g>
      <g id="Group_3459" data-name="Group 3459" transform="translate(1062.978 288.174)">
        <path id="Path_7055" data-name="Path 7055" d="M387.7,158.835l-1.223-7.516s-19.635-20.049-33.822-21.595-9.584,5.143,0,14.492c0,0-3.884,5.16-1.079,8.2s-2.068,1.492,0,8.181c2.086,6.689,17.657,14.942,17.657,14.942Z" transform="translate(-343.663 -129.502)" fill="#fe715f" fill-rule="evenodd"/>
      </g>
      <g id="Group_3460" data-name="Group 3460" transform="translate(1084.057 309.668)">
        <path id="Path_7056" data-name="Path 7056" d="M681.519,342.677c.288,19.779-14.96,13.773-23,0,0,0-3.578,19.006-20.013-16.255q-1.267-2.751-2.643-5.934-2.535-5.853-5.143-11.436c-20.031-43.028-41.751-72.714-42.489-73.721l-.018-.018s-4.136,14.942,0,27.583,16.92,52.252,17.316,64.533c0,0-28.7,20.7-84.924,15.248-8.918-1.133-9.278-3.974-10.932-35.854-.521-10.159-2.607-21.973-5.07-34.2-5.233-26.2-12.173-54.266-9.188-71.761,0,0-30.334,7.174-59.337,7.426-29.021.27-80.59-34.739-82.388-42.309,0,0,1.744-12.515,21.649-26.252,0,0,23.735,16.183,60.739,26.252,0,0,60.793-13.432,79.835-17.3,19.06-3.866,60.847-7.8,84.2,20.031,17.819,21.271,55.795,100.1,72.8,144.907C678.193,327.411,681.447,338,681.519,342.677Z" transform="translate(-353.692 -139.728)" fill="#3ab3e7" fill-rule="evenodd"/>
      </g>
      <g id="Group_3461" data-name="Group 3461" transform="translate(1225.042 366.266)">
        <path id="Path_7057" data-name="Path 7057" d="M716.644,332.786c.314,19.772-14.977,13.761-23,0,0,0-3.587,19-20-16.246,7.354-2.811,28.026-10.655,34.438-12.829C713.326,317.518,716.6,328.111,716.644,332.786Z" transform="translate(-529.843 -186.436)" fill="#fe715f" fill-rule="evenodd"/>
        <path id="Path_7058" data-name="Path 7058" d="M692.192,359.595c-20.044-43.023-41.747-72.7-42.465-73.713v-.016s6.1-26.233,5.112-33.906c-.987-7.688,12.242-.994,11.614,20.222s10.852,28.9,17.667,49.189C688.918,335.583,693.223,350.431,692.192,359.595Z" transform="translate(-556.195 -246.855)" fill="#0543bc" fill-rule="evenodd"/>
        <path id="Path_7059" data-name="Path 7059" d="M620.2,271.334c-5.56,5.514-1.48,31.716-1.345,39.637.09,6.616,1.883,14.336-3.722,13.217-5.247-26.186-12.152-54.267-9.192-71.756,0,0,9.551-1.211,14.259-4.225C624.863,245.241,625.76,265.821,620.2,271.334Z" transform="translate(-605.229 -247.917)" fill="#0543bc" fill-rule="evenodd"/>
      </g>
      <g id="Group_3462" data-name="Group 3462" transform="translate(294.636 373.891)">
        <path id="Path_7060" data-name="Path 7060" d="M39.642,234.928c-.018,0-.018.018-.036.018-4.1,2.517-8,4.405-9.188,7.876-.881,2.625-4.945,5.142-10.033,7.084-11.112,4.261-27.205,5.736-26.2-.449a32.411,32.411,0,0,0-.5-12.317h-.018A46.1,46.1,0,0,0-15.559,218.6c-8.307-10.411-9.584-26.719,3.273-40.277s45.851-8.2,42.687,2.967c0,0,19.725,16.2,20.66,32.563C51.779,226.423,45.522,231.314,39.642,234.928Z" transform="translate(21.877 -170.281)" fill="#fe715f" fill-rule="evenodd"/>
      </g>
      <g id="Group_3463" data-name="Group 3463" transform="translate(294.676 373.912)">
        <path id="Path_7061" data-name="Path 7061" d="M214.84,262.558c-7.4,12.146-8.385,13.388-7.085,20.409,1.256,7.036-1.973,6.43-8.7,7.331s-8.968,7.393-4.708,12.146c4.215,4.768,6.233,19.042-16.188,15.951h0a45.954,45.954,0,0,0-9.237-18.545c-8.3-10.406-9.6-26.714,3.273-40.273C185.02,246.048,218.023,251.406,214.84,262.558Z" transform="translate(-162.605 -251.555)" fill="#1f2a82" fill-rule="evenodd"/>
        <path id="Path_7062" data-name="Path 7062" d="M203.211,283.979c-4.081,2.516-8.027,4.411-9.192,7.89-.9,2.625-4.933,5.156-10.044,7.082-1.7-4.892-3.139-10.81-2.152-14.988C183.84,275.53,196.53,286.961,203.211,283.979Z" transform="translate(-141.784 -219.33)" fill="#e24b38" fill-rule="evenodd"/>
      </g>
      <g id="Group_3464" data-name="Group 3464" transform="translate(404.069 320.301)">
        <path id="Path_7063" data-name="Path 7063" d="M66.818,177.505s5.071-20.8-8.721-29.938c-13.791-9.116-18.484,6.1-16.219,18.035,0,0-11.364-1.295-11.688,4.981s15.517,8.289,16.327,12.479C47.291,187.269,66.818,177.505,66.818,177.505Z" transform="translate(-30.186 -144.786)" fill="#fc705e" fill-rule="evenodd"/>
      </g>
      <g id="Group_3465" data-name="Group 3465" transform="translate(212.269 349.814)">
        <path id="Path_7064" data-name="Path 7064" d="M192.974,249.779c-3.057,16.219-38.659,35.027-58.186,42.776s-40.511,14.582-40.511,14.582S73.958,354,65.921,380.158a2.818,2.818,0,0,0-.162.575c-2.284,7.534-3.506,13.234-2.877,15.535,0,0-123.043,42.507-92.655-23.555,0,0-30.46,1.115-31.269-19.941-.288-6.671,2.391-15.535,9.943-27.349,31.395-49.213,42.687-60.164,99.776-66.547,57.089-6.419,99.884-18.9,99.884-18.9s-6.239-61.35-6.491-69.082c-.27-7.732,21.6-14.8,29.722-11.022C171.792,159.857,192.128,218.1,192.974,249.779Z" transform="translate(61.063 -158.827)" fill="#ffbc00" fill-rule="evenodd"/>
      </g>
      <path id="Path_7065" data-name="Path 7065" d="M171.034,316.56c-1.211,11.323-16.322,57.327-16.322,57.327s-30.447,1.118-31.3-19.943c6.771,3.7,24.214-4.6,31.3-18.452C161.752,321.623,172.245,305.222,171.034,316.56Z" transform="translate(88.884 189.811)" fill="#ff8f00" fill-rule="evenodd"/>
      <path id="Path_7066" data-name="Path 7066" d="M186.582,383.671c3.946-11.369-11.21-46.362-2.511-54.749,8.7-8.4,30.851-18.265,30.851-18.265S194.608,357.5,186.582,383.671Z" transform="translate(152.706 187.482)" fill="#ff8f00" fill-rule="evenodd"/>
      <g id="Group_3466" data-name="Group 3466" transform="translate(189.049 728.117)">
        <path id="Path_7067" data-name="Path 7067" d="M-18.7,346.3l-21.775-7.5s-21.343,6.635-27.4,10.3c-6.078,3.668-5.5,17.3,1.007,29.039s17.711,26.666,21.307,27.007c3.6.324,33.157,0,33.157,0s-1.4-7.84-6.293-8.99-14.1-5.25-13.5-16.147l7.57-1.87Z" transform="translate(72.11 -338.806)" fill="#0e57e6" fill-rule="evenodd"/>
      </g>
      <g id="Group_3467" data-name="Group 3467" transform="translate(371.847 746.27)">
        <path id="Path_7068" data-name="Path 7068" d="M207.975,429l-4.658,6.185s-3.72,32.761-3.969,37.886c-.279,5.754,1.366,7.39,8.522,7.39h55.867s.53-13.126-13.685-17.5c-14.2-4.369-12.657-11.687-9.52-24.292C243.687,426.07,207.975,429,207.975,429Z" transform="translate(-199.319 -428.705)" fill="#0e57e6" fill-rule="evenodd"/>
      </g>
      <g id="Group_3468" data-name="Group 3468" transform="translate(220.66 642.516)">
        <path id="Path_7069" data-name="Path 7069" d="M92.287,356.819c-5.556,33.786-8.847,38.479-38.893,45.312-30.028,6.833-94.615,20.894-94.615,20.894s-15.068-11.957-15.823-35.368c-.036-1.277-.036-2.607,0-3.974,0,0,9.961-2.284,14.223-3.848a7.9,7.9,0,0,0,1.6-.7,127.5,127.5,0,0,1,27.637-11.669c1.816-.539,3.812-1.169,5.9-1.852,14.888-4.8,35.476-12.335,36.915-12.892l.09-.018s-8.253-6.131-18.161-13.432c-10.717-7.911-23.375-17.172-29.4-21.415-11.58-8.181,81.507-30.891,97.384-13.2a53.291,53.291,0,0,1,8.613,14.151A66.855,66.855,0,0,1,92.287,356.819Z" transform="translate(57.071 -298.08)" fill="#1f2a82" fill-rule="evenodd"/>
      </g>
      <g id="Group_3469" data-name="Group 3469" transform="translate(220.649 642.533)">
        <path id="Path_7070" data-name="Path 7070" d="M252.4,400.075c-13.452,2.811-52.868,10.95-58.428,11.027-5.157.078-2.2,10.111-18.161,9.443-10.717-7.906-23.362-17.178-29.416-21.418-11.569-8.17,81.521-30.892,97.4-13.2A56.974,56.974,0,0,1,252.4,400.075Z" transform="translate(-107.531 -379.352)" fill="#181f54" fill-rule="evenodd"/>
        <path id="Path_7071" data-name="Path 7071" d="M127.42,422.088s9.955-2.3,14.215-3.852c0,.016,0,.016-.045.047a20.973,20.973,0,0,1-14.17,7.781C127.375,424.79,127.375,423.455,127.42,422.088Z" transform="translate(-127.386 -336.505)" fill="#181f54" fill-rule="evenodd"/>
        <path id="Path_7072" data-name="Path 7072" d="M159.186,416.742c-2.6.373-5.381.9-8.3,1.507,14.887-4.8,35.469-12.332,36.9-12.891l.09-.016s10.9,6.787,12.466,11.4S174.432,414.506,159.186,416.742Z" transform="translate(-101.487 -350.714)" fill="#181f54" fill-rule="evenodd"/>
      </g>
      <g id="Group_3470" data-name="Group 3470" transform="translate(231.828 579.563)">
        <path id="Path_7073" data-name="Path 7073" d="M-44.09,275.824s.342,13.126,60.973,4.711c60.649-8.415,122.234-16.956,132.123-9.62s17.729,75.951-10.249,170.4c0,0-17.262,10.627-45.833,0,0,0,13.108-90.857,8.793-101.3,0,0-107.687,25.784-140.233,5.448C-62.053,330.755-47.795,281.092-44.09,275.824Z" transform="translate(51.758 -268.13)" fill="#1f2a82" fill-rule="evenodd"/>
      </g>
    </g>
  </g>
</svg>
