<?xml version="1.0" encoding="utf-8"?>
<!-- Generator: Adobe Illustrator 16.0.0, SVG Export Plug-In . SVG Version: 6.00 Build 0)  -->
<!DOCTYPE svg PUBLIC "-//W3C//DTD SVG 1.0//EN" "http://www.w3.org/TR/2001/REC-SVG-20010904/DTD/svg10.dtd">
<svg version="1.0" id="Layer_1" xmlns="http://www.w3.org/2000/svg" xmlns:xlink="http://www.w3.org/1999/xlink" x="0px" y="0px"
	 width="1125px" height="732px" viewBox="0 0 1125 732" enable-background="new 0 0 1125 732" xml:space="preserve">
<path fill="#CDCCFF" d="M1094.8,436.2c-16.35-45.58-42.09-59.45-66.58-88.68c-29.9-35.71-50.07-61.66-42.31-107.59
	c12.69-75.05,18.12-262.21-180.56-237.74C734.14,10.96,677.87,65.53,636.93,120c-34.83,46.35-97.49,50.44-147.93,61.24
	c-61.97,13.28-125.09,33.33-182.43,62.72C188.5,304.48,153.23,391.48,158.05,502.8c1.46,33.63,6.21,86.61,63.03,148.59
	c76.68,83.66,188.1,94.87,322.21,56.44c30.7-8.79,59.71-22.59,89.91-32.97c31.37-10.79,64.01-17.88,97.04-21.07
	c77.03-7.45,156.87,6.02,230.76-16.97c39.06-12.16,74.95-34.41,103.21-64.01C1099.5,535.85,1112.05,484.31,1094.8,436.2z"/>
<g>
</g>
<g>
	<g>
	</g>
</g>
<g>
	<g>
		<g>
			<g>
				<g>
					<g>
						<path fill="#71BF9D" d="M912.79,500.38c-3.23-16.62-34.12-19.39-34.12-19.39s18.05-30.1,5.25-43.74
							c-12.8-13.63-42.22,18.39-42.22,18.39s-9.71-20.23-24.16,0c0,0-24.07-18.39-44.89-8.94c-14.87,6.75-12.68,24.57-10.21,34.22
							H353.61c-0.34-0.72-0.77-1.41-1.32-2.06c-13.81-16.67-53.86-8.09-53.86-8.09s16.73-41.31-10.85-53.83
							c-27.59-12.52-59.48,11.84-59.48,11.84c-19.14-26.81-32.01,0-32.01,0s-38.98-42.42-55.94-24.36
							c-16.96,18.06,6.95,57.95,6.95,57.95s-40.93,3.67-45.21,25.69c-4.27,22.02,70.82,44.88,70.82,44.88l686.64,1.31
							C859.35,534.26,916.02,517,912.79,500.38z"/>
						<g>
							
								<path fill="none" stroke="#E57E55" stroke-width="0.9971" stroke-linecap="round" stroke-linejoin="round" stroke-miterlimit="10" d="
								M210.48,526.46c-12.34-34.97-31.09-67.67-55.05-95.97"/>
							
								<path fill="none" stroke="#E57E55" stroke-width="0.9971" stroke-linecap="round" stroke-linejoin="round" stroke-miterlimit="10" d="
								M210.47,527.72c0.95-27.61,3.83-55.15,8.59-82.36"/>
							
								<path fill="none" stroke="#E57E55" stroke-width="0.9971" stroke-linecap="round" stroke-linejoin="round" stroke-miterlimit="10" d="
								M203.06,508.55c-17.81-8.83-36.93-15.01-56.54-18.26"/>
							
								<path fill="none" stroke="#E57E55" stroke-width="0.9971" stroke-linecap="round" stroke-linejoin="round" stroke-miterlimit="10" d="
								M184.88,471.08c3.59-8.35,6.05-17.18,7.28-26.18"/>
						</g>
						<g>
							
								<path fill="none" stroke="#E57E55" stroke-width="0.7983" stroke-linecap="round" stroke-linejoin="round" stroke-miterlimit="10" d="
								M828.32,529.53c9.88-28,24.89-54.18,44.08-76.84"/>
							
								<path fill="none" stroke="#E57E55" stroke-width="0.7983" stroke-linecap="round" stroke-linejoin="round" stroke-miterlimit="10" d="
								M828.33,530.54c-0.76-22.1-3.07-44.15-6.88-65.93"/>
							
								<path fill="none" stroke="#E57E55" stroke-width="0.7983" stroke-linecap="round" stroke-linejoin="round" stroke-miterlimit="10" d="
								M834.27,515.19c14.25-7.07,29.56-12.02,45.26-14.62"/>
							
								<path fill="none" stroke="#E57E55" stroke-width="0.7983" stroke-linecap="round" stroke-linejoin="round" stroke-miterlimit="10" d="
								M848.82,485.19c-2.88-6.68-4.84-13.75-5.83-20.96"/>
						</g>
						<g>
							<g>
								<g>
									<path fill="#FFFFFF" d="M175.51,414.18c0.35,0.07,0.6,0.26,0.86,0.44c0.23,0.21,0.48,0.41,0.62,0.74
										c0.17,0.38,0,0.82-0.38,1c-0.15,0.07-0.32,0.09-0.47,0.06c-0.34-0.07-0.59-0.26-0.85-0.43c-0.23-0.21-0.47-0.41-0.62-0.73
										c-0.17-0.37-0.01-0.82,0.36-1.01C175.19,414.16,175.36,414.14,175.51,414.18z"/>
								</g>
								<g>
									<path fill="#FFFFFF" d="M178.31,416.43c0.34,0.08,0.59,0.28,0.85,0.46c0.23,0.22,0.46,0.43,0.6,0.76
										c0.16,0.38-0.03,0.82-0.41,0.99c-0.16,0.07-0.32,0.08-0.48,0.04c-0.34-0.08-0.59-0.27-0.84-0.46
										c-0.22-0.22-0.46-0.43-0.59-0.75c-0.16-0.37,0.01-0.82,0.39-0.99C177.99,416.41,178.16,416.39,178.31,416.43z"/>
								</g>
								<g>
									<path fill="#FFFFFF" d="M181.04,418.76c0.34,0.08,0.58,0.29,0.84,0.48c0.22,0.22,0.45,0.44,0.58,0.77
										c0.15,0.38-0.04,0.82-0.43,0.98c-0.16,0.06-0.33,0.07-0.48,0.03c-0.34-0.09-0.58-0.29-0.83-0.48
										c-0.22-0.22-0.44-0.44-0.58-0.76c-0.15-0.38,0.03-0.82,0.41-0.98C180.72,418.73,180.89,418.71,181.04,418.76z"/>
								</g>
								<g>
									<path fill="#FFFFFF" d="M185.76,423.03c0.34,0.1,0.57,0.31,0.82,0.51c0.21,0.23,0.43,0.46,0.55,0.79
										c0.14,0.39-0.07,0.82-0.46,0.96c-0.16,0.06-0.33,0.06-0.48,0.01c-0.34-0.1-0.57-0.31-0.81-0.51
										c-0.21-0.23-0.43-0.45-0.55-0.78c-0.14-0.38,0.06-0.82,0.45-0.97C185.44,422.99,185.61,422.99,185.76,423.03z"/>
								</g>
								<g>
									<path fill="#FFFFFF" d="M189.02,426.18c0.25,0.02,0.39,0.15,0.54,0.27c0.12,0.15,0.25,0.29,0.27,0.54
										c0.04,0.48-0.32,0.9-0.79,0.96c-0.06,0.01-0.12,0.01-0.17,0c-0.24-0.02-0.38-0.15-0.53-0.27
										c-0.12-0.15-0.24-0.29-0.27-0.54c-0.04-0.47,0.31-0.9,0.78-0.96C188.9,426.18,188.96,426.18,189.02,426.18z"/>
								</g>
								<g>
									<path fill="#FFFFFF" d="M191.68,428.94c0.25,0.03,0.39,0.16,0.53,0.28c0.12,0.15,0.24,0.3,0.26,0.55
										c0.03,0.48-0.35,0.89-0.82,0.93c-0.06,0-0.12,0-0.17,0c-0.24-0.03-0.38-0.16-0.52-0.28c-0.11-0.15-0.23-0.29-0.25-0.54
										c-0.03-0.47,0.33-0.9,0.81-0.94C191.57,428.93,191.63,428.94,191.68,428.94z"/>
								</g>
							</g>
							<g>
								<g>
									<path fill="#FFFFFF" d="M144.27,404.86c2.35-1.5,5.17-2.04,7.9-2.07c2.78,0.07,5.44,0.81,7.93,1.82
										c2.48,1.04,4.83,2.33,7.09,3.74c2.26,1.42,4.41,2.98,6.48,4.62c0.29,0.23,0.33,0.65,0.09,0.95
										c-0.23,0.28-0.63,0.34-0.91,0.14c-2.13-1.51-4.31-2.96-6.53-4.3c-2.22-1.34-4.51-2.56-6.89-3.53
										c-2.36-0.98-4.84-1.69-7.3-1.78c-2.5-0.02-5.02,0.37-7.17,1.58c-0.3,0.16-0.71,0.03-0.92-0.28
										C143.86,405.44,143.96,405.05,144.27,404.86z"/>
								</g>
								<g>
									<path fill="#FFFFFF" d="M143.48,406.9c-0.08,0.29-0.29,0.42-0.43,0.63c-0.18,0.17-0.35,0.34-0.64,0.42
										c-0.4,0.11-0.86-0.1-1-0.5c-0.04-0.13-0.05-0.27-0.02-0.4c0.07-0.32,0.26-0.54,0.43-0.76c0.19-0.21,0.46-0.35,0.77-0.42
										c0.45-0.08,0.83,0.23,0.9,0.65C143.53,406.65,143.52,406.78,143.48,406.9z"/>
								</g>
								<g>
									<path fill="#FFFFFF" d="M141.58,409.01c-0.01,0.3-0.14,0.51-0.26,0.73c-0.17,0.19-0.28,0.41-0.54,0.56
										c-0.35,0.21-0.84,0.11-1.07-0.26c-0.07-0.11-0.11-0.25-0.12-0.38c-0.01-0.32,0.09-0.58,0.25-0.83
										c0.18-0.22,0.35-0.46,0.63-0.6c0.4-0.2,0.85,0,1.03,0.39C141.55,408.76,141.58,408.89,141.58,409.01z"/>
								</g>
								<g>
									<path fill="#FFFFFF" d="M140.17,411.53c-0.11,0.52-0.26,1.01-0.41,1.5l-0.38,1.5c-0.25,1.01-0.46,2.03-0.74,3.05
										c-0.1,0.35-0.48,0.56-0.84,0.47c-0.31-0.08-0.5-0.34-0.5-0.63c-0.03-1.11,0.17-2.21,0.4-3.3l0.5-1.6
										c0.22-0.52,0.46-1.03,0.74-1.52c0.18-0.34,0.64-0.41,0.95-0.21C140.14,410.97,140.22,411.26,140.17,411.53z"/>
								</g>
								<g>
									<path fill="#FFFFFF" d="M138.41,420.26c0.15,0.16,0.16,0.32,0.17,0.48c-0.03,0.16-0.04,0.31-0.21,0.46
										c-0.38,0.35-0.98,0.36-1.34-0.01l-0.02-0.02c-0.15-0.17-0.16-0.33-0.17-0.49c0.03-0.16,0.04-0.32,0.21-0.48
										c0.38-0.35,0.97-0.32,1.33,0.04L138.41,420.26z"/>
								</g>
								<g>
									<path fill="#FFFFFF" d="M138.42,423.43c0.17,0.15,0.18,0.31,0.21,0.47c-0.02,0.16-0.02,0.32-0.17,0.48
										c-0.35,0.38-0.95,0.42-1.34,0.08l-0.02-0.02c-0.17-0.15-0.18-0.32-0.21-0.48c0.02-0.16,0.02-0.33,0.17-0.49
										c0.35-0.38,0.95-0.4,1.33-0.06L138.42,423.43z"/>
								</g>
							</g>
						</g>
						<g>
							<g>
								<g>
									<path fill="#FFFFFF" d="M882.98,457.54c0.08,0.36,0.02,0.7-0.03,1.04c-0.09,0.33-0.19,0.65-0.42,0.95
										c-0.27,0.34-0.75,0.38-1.07,0.11c-0.13-0.11-0.22-0.27-0.25-0.43c-0.08-0.36,0-0.68,0.05-1.01
										c0.09-0.32,0.17-0.64,0.4-0.93c0.26-0.34,0.74-0.4,1.07-0.14C882.86,457.22,882.95,457.38,882.98,457.54z"/>
								</g>
								<g>
									<path fill="#FFFFFF" d="M882.08,461.29c0.07,0.37-0.01,0.7-0.08,1.03c-0.11,0.32-0.22,0.64-0.46,0.92
										c-0.29,0.33-0.77,0.35-1.07,0.06c-0.13-0.12-0.21-0.27-0.23-0.44c-0.06-0.36,0.02-0.69,0.09-1.01
										c0.1-0.32,0.2-0.63,0.44-0.92c0.28-0.33,0.76-0.37,1.07-0.09C881.97,460.97,882.06,461.13,882.08,461.29z"/>
								</g>
								<g>
									<path fill="#FFFFFF" d="M881.03,464.99c0.05,0.37-0.04,0.7-0.11,1.03c-0.12,0.31-0.24,0.63-0.49,0.91
										c-0.3,0.32-0.78,0.33-1.08,0.03c-0.12-0.12-0.19-0.28-0.21-0.44c-0.05-0.37,0.04-0.69,0.12-1.01
										c0.12-0.31,0.23-0.63,0.47-0.9c0.29-0.32,0.77-0.34,1.07-0.05C880.93,464.67,881.01,464.82,881.03,464.99z"/>
								</g>
								<g>
									<path fill="#FFFFFF" d="M878.88,471.46c0.03,0.37-0.07,0.69-0.17,1.02c-0.13,0.31-0.27,0.62-0.53,0.88
										c-0.31,0.3-0.79,0.29-1.07-0.02c-0.12-0.13-0.18-0.29-0.19-0.45c-0.03-0.37,0.08-0.68,0.17-1.01
										c0.14-0.31,0.26-0.62,0.53-0.88c0.31-0.3,0.79-0.3,1.07,0.01C878.79,471.14,878.86,471.3,878.88,471.46z"/>
								</g>
								<g>
									<path fill="#FFFFFF" d="M877.16,476c0.07,0.25,0.01,0.44-0.05,0.64c-0.1,0.18-0.18,0.37-0.41,0.5
										c-0.43,0.25-0.97,0.09-1.19-0.35c-0.03-0.05-0.05-0.11-0.06-0.16c-0.07-0.25,0-0.44,0.05-0.63c0.1-0.18,0.18-0.36,0.4-0.49
										c0.43-0.25,0.96-0.1,1.19,0.33C877.12,475.89,877.14,475.95,877.16,476z"/>
								</g>
								<g>
									<path fill="#FFFFFF" d="M875.57,479.79c0.07,0.25,0,0.44-0.06,0.64c-0.1,0.18-0.19,0.36-0.42,0.48
										c-0.44,0.24-0.96,0.06-1.18-0.38c-0.02-0.05-0.04-0.11-0.06-0.17c-0.06-0.25,0.01-0.43,0.07-0.63
										c0.1-0.18,0.19-0.36,0.42-0.48c0.43-0.23,0.96-0.08,1.18,0.37C875.53,479.67,875.55,479.73,875.57,479.79z"/>
								</g>
							</g>
							<g>
								<g>
									<path fill="#FFFFFF" d="M863.59,441.58c2.44-1.46,5.01-2.8,7.84-3.56c2.76-0.78,6.04-0.97,8.8,0.65
										c1.38,0.83,2.37,2.19,2.92,3.6c0.55,1.43,0.78,2.9,0.9,4.36c0.14,2.92-0.21,5.78-0.77,8.57c-0.08,0.38-0.45,0.63-0.81,0.55
										c-0.35-0.08-0.58-0.43-0.52-0.79c0.41-2.75,0.64-5.52,0.46-8.22c-0.22-2.63-0.99-5.4-3.09-6.59
										c-2.1-1.28-4.9-1.24-7.47-0.54c-2.62,0.65-5.14,1.84-7.58,3.14c-0.33,0.19-0.76,0.07-0.94-0.25
										C863.15,442.18,863.27,441.78,863.59,441.58z"/>
								</g>
								<g>
									<path fill="#FFFFFF" d="M862.52,443.62c-0.15,0.29-0.38,0.44-0.61,0.61c-0.25,0.13-0.48,0.28-0.81,0.3
										c-0.44,0.03-0.82-0.29-0.84-0.74c-0.01-0.14,0.03-0.28,0.09-0.4c0.15-0.29,0.38-0.46,0.62-0.63
										c0.25-0.13,0.5-0.28,0.83-0.3c0.45-0.03,0.81,0.31,0.82,0.75C862.62,443.36,862.58,443.5,862.52,443.62z"/>
								</g>
								<g>
									<path fill="#FFFFFF" d="M859.85,445.38c-0.14,0.29-0.36,0.46-0.58,0.64c-0.25,0.14-0.47,0.3-0.79,0.34
										c-0.44,0.05-0.83-0.26-0.87-0.7c-0.01-0.14,0.01-0.28,0.07-0.4c0.14-0.3,0.36-0.48,0.58-0.66c0.25-0.14,0.49-0.3,0.82-0.34
										c0.45-0.04,0.82,0.28,0.85,0.71C859.94,445.12,859.91,445.26,859.85,445.38z"/>
								</g>
								<g>
									<path fill="#FFFFFF" d="M857.26,447.26c-0.81,0.81-1.71,1.52-2.57,2.26c-0.9,0.7-1.78,1.43-2.75,2.05
										c-0.33,0.21-0.76,0.13-0.96-0.19c-0.17-0.26-0.13-0.6,0.08-0.84c0.77-0.88,1.65-1.63,2.54-2.38
										c0.91-0.71,1.83-1.42,2.85-1.99c0.34-0.2,0.77-0.08,0.95,0.26C857.54,446.71,857.47,447.04,857.26,447.26z"/>
								</g>
								<g>
									<path fill="#FFFFFF" d="M849.76,453.49c-0.02,0.23-0.14,0.35-0.25,0.48c-0.14,0.1-0.27,0.21-0.5,0.21
										c-0.53,0-0.95-0.43-0.92-0.97v-0.03c0.02-0.23,0.14-0.36,0.25-0.49c0.14-0.1,0.28-0.21,0.51-0.21
										c0.53,0,0.94,0.44,0.91,0.97L849.76,453.49z"/>
								</g>
								<g>
									<path fill="#FFFFFF" d="M847.29,455.86c-0.01,0.23-0.12,0.36-0.23,0.49c-0.14,0.1-0.26,0.21-0.5,0.22
										c-0.53,0.02-0.97-0.39-0.96-0.93l0-0.03c0.01-0.24,0.13-0.37,0.23-0.5c0.14-0.1,0.27-0.22,0.5-0.22
										c0.54-0.01,0.96,0.41,0.95,0.94L847.29,455.86z"/>
								</g>
							</g>
						</g>
					</g>
					<g>
						<path fill="#FFD25A" d="M515.96,350.91c-104.56-1.64-384.22,84.92-418.33,0c-28.11-69.98,77.01-64.62,83.12-122.56
							c6.11-57.94-21.26-82.62,22.38-109.45c43.63-26.83,114.74,10.42,161.7-26.83C411.78,54.84,436.29,27.7,542,14.83
							C647.7,1.95,725.94,121.05,771.16,132.85c45.23,11.8,110.02-18.24,141.8,18.24c31.78,36.48-70.9,117.22-48.9,150.89
							c22,33.67,75.88,51.91,55.05,99.12C898.29,448.32,617.75,352.51,515.96,350.91z"/>
						<g>
							<g>
								<g>
									<path fill="#FFFFFF" d="M98.64,318.51c-0.01-0.48,0.11-0.9,0.27-1.32c0.19-0.41,0.36-0.82,0.67-1.18
										c0.36-0.41,0.88-0.41,1.11-0.03c0.1,0.15,0.15,0.35,0.14,0.56c-0.01,0.46-0.16,0.86-0.29,1.27
										c-0.19,0.39-0.33,0.79-0.61,1.15c-0.33,0.41-0.83,0.48-1.11,0.12C98.7,318.92,98.64,318.72,98.64,318.51z"/>
								</g>
								<g>
									<path fill="#FFFFFF" d="M100.56,313.82c0.05-0.47,0.26-0.87,0.44-1.27c0.23-0.38,0.43-0.78,0.81-1.08
										c0.43-0.35,0.92-0.3,1.12,0.11c0.08,0.17,0.1,0.37,0.06,0.57c-0.09,0.44-0.26,0.84-0.45,1.22
										c-0.22,0.37-0.44,0.74-0.76,1.06c-0.38,0.37-0.88,0.37-1.11-0.02C100.58,314.24,100.54,314.03,100.56,313.82z"/>
								</g>
								<g>
									<path fill="#FFFFFF" d="M103.06,309.43c0.11-0.46,0.35-0.84,0.58-1.22c0.27-0.35,0.55-0.7,0.93-0.97
										c0.45-0.31,0.94-0.2,1.09,0.23c0.06,0.18,0.06,0.38,0.01,0.57c-0.12,0.45-0.37,0.79-0.6,1.16c-0.25,0.34-0.5,0.7-0.87,0.97
										c-0.43,0.32-0.93,0.25-1.11-0.16C103.01,309.83,103.01,309.63,103.06,309.43z"/>
								</g>
								<g>
									<path fill="#FFFFFF" d="M108.6,302.39c0.18-0.44,0.5-0.75,0.79-1.09c0.32-0.31,0.65-0.61,1.08-0.8
										c0.5-0.22,0.96-0.03,1.04,0.41c0.03,0.19-0.01,0.38-0.1,0.57c-0.2,0.41-0.5,0.72-0.78,1.04c-0.31,0.29-0.63,0.59-1.04,0.79
										c-0.47,0.24-0.95,0.09-1.06-0.35C108.49,302.79,108.52,302.58,108.6,302.39z"/>
								</g>
								<g>
									<path fill="#FFFFFF" d="M113.22,298.02c0.1-0.3,0.3-0.47,0.49-0.66c0.22-0.15,0.44-0.31,0.74-0.36
										c0.6-0.08,0.99,0.32,0.9,0.86c-0.01,0.06-0.03,0.14-0.05,0.2c-0.1,0.29-0.3,0.46-0.49,0.64c-0.22,0.15-0.42,0.3-0.72,0.35
										c-0.58,0.09-1-0.27-0.92-0.83C113.18,298.16,113.2,298.08,113.22,298.02z"/>
								</g>
								<g>
									<path fill="#FFFFFF" d="M117.53,294.78c0.13-0.28,0.35-0.44,0.56-0.61c0.24-0.13,0.47-0.27,0.79-0.27
										c0.62-0.02,0.94,0.44,0.79,0.97c-0.02,0.06-0.04,0.13-0.07,0.19c-0.13,0.27-0.34,0.42-0.55,0.58
										c-0.23,0.12-0.45,0.26-0.75,0.27c-0.59,0.03-0.97-0.37-0.84-0.92C117.47,294.91,117.5,294.84,117.53,294.78z"/>
								</g>
							</g>
							<g>
								<g>
									<path fill="#FFFFFF" d="M110.01,362.77c-1.27-1.35-2.33-2.88-3.51-4.32c-1-1.56-2.03-3.11-2.97-4.71
										c-0.82-1.66-1.71-3.3-2.48-4.99l-2.05-5.17c-1.19-3.53-1.97-7.22-2.2-10.95c-0.24-3.73,0.14-7.51,1.12-11.1
										c0.14-0.5,0.54-0.81,0.9-0.7c0.35,0.11,0.53,0.56,0.42,1.02c-0.81,3.5-1.07,7.1-0.79,10.67c0.25,3.57,1.03,7.1,2.2,10.49
										l1.95,5.06c0.74,1.64,1.59,3.24,2.37,4.87c0.89,1.57,1.86,3.09,2.79,4.64c1.1,1.42,2.08,2.95,3.27,4.31
										c0.33,0.37,0.36,0.87,0.08,1.12C110.84,363.23,110.35,363.12,110.01,362.77z"/>
								</g>
								<g>
									<path fill="#FFFFFF" d="M112.63,363.84c0.36,0.15,0.6,0.43,0.88,0.66c0.25,0.26,0.51,0.51,0.67,0.87
										c0.22,0.5,0.02,0.97-0.45,1.04c-0.15,0.02-0.32,0-0.48-0.05c-0.39-0.13-0.67-0.38-0.96-0.62
										c-0.26-0.27-0.49-0.57-0.64-0.95c-0.19-0.53,0.04-0.98,0.52-1.03C112.32,363.75,112.48,363.78,112.63,363.84z"/>
								</g>
								<g>
									<path fill="#FFFFFF" d="M115.63,366.69c0.38,0.12,0.63,0.38,0.94,0.57c0.27,0.24,0.56,0.46,0.74,0.81
										c0.26,0.48,0.11,0.97-0.36,1.08c-0.15,0.04-0.32,0.03-0.48-0.01c-0.4-0.1-0.7-0.32-1.02-0.54
										c-0.29-0.23-0.54-0.52-0.72-0.88c-0.24-0.52-0.05-0.99,0.42-1.07C115.31,366.62,115.48,366.64,115.63,366.69z"/>
								</g>
								<g>
									<path fill="#FFFFFF" d="M118.88,369.26c1.29,0.75,2.55,1.48,3.81,2.21c1.28,0.72,2.54,1.42,3.85,2.15
										c0.43,0.26,0.61,0.72,0.4,1.04c-0.17,0.26-0.57,0.33-0.95,0.21c-1.47-0.45-2.82-1.17-4.16-1.89
										c-1.31-0.78-2.58-1.63-3.74-2.62c-0.38-0.36-0.46-0.85-0.17-1.11C118.15,369.04,118.54,369.05,118.88,369.26z"/>
								</g>
								<g>
									<path fill="#FFFFFF" d="M130.02,375.01c0.26-0.09,0.47-0.03,0.69,0.01c0.2,0.08,0.4,0.16,0.57,0.38
										c0.37,0.5,0.23,1.08-0.36,1.29l-0.03,0.01c-0.26,0.08-0.48,0.03-0.71-0.02c-0.21-0.09-0.43-0.17-0.59-0.39
										c-0.38-0.51-0.18-1.07,0.4-1.27L130.02,375.01z"/>
								</g>
								<g>
									<path fill="#FFFFFF" d="M134.28,376.13c0.24-0.11,0.46-0.07,0.67-0.06c0.21,0.05,0.41,0.1,0.6,0.29
										c0.42,0.42,0.42,1.03-0.16,1.33l-0.03,0.01c-0.25,0.12-0.48,0.1-0.72,0.08c-0.22-0.06-0.44-0.12-0.64-0.32
										c-0.44-0.46-0.31-1.04,0.23-1.31L134.28,376.13z"/>
								</g>
							</g>
						</g>
						<path fill="#FFBE57" d="M519.62,69.04C470.63,77,432.54,99.3,405.32,135.93c-25.4,33.44-19.96,76.44,1.81,109.88
							c19.96,31.85,58.05,43,94.34,50.96c101.59,23.88,194.12,54.14,290.27,84.4c41.73,12.74,90.71,31.85,126.99,3.19
							c0.02-0.02,0.04-0.03,0.06-0.04c3.55-2.82,5.08-7.11,4.23-11.24c-5.77-28.19-41.92-45.01-58.96-71.08
							c-22-33.67,80.68-114.41,48.9-150.89c-31.78-36.48-96.57-6.44-141.8-18.24c-5.36-1.4-11.19-4.32-17.47-8.34
							C672.77,106.56,608.85,55.22,519.62,69.04z"/>
						<path fill="none" stroke="#FFFFFF" stroke-width="0.9735" stroke-miterlimit="10" d="M879.81,406.21
							c-42.74,0-116.14-16.4-187.12-32.26c-69.86-15.61-135.84-30.36-176.56-31c-1.04-0.01-2.11-0.02-3.18-0.02
							c-33.48,0-82.8,8.02-135,16.51c-60.2,9.79-128.43,20.89-181.39,20.89c-52.14,0-81.71-10.49-90.37-32.06
							c-13.39-33.33,6.36-45.23,33.71-61.7c21.94-13.21,46.8-28.19,49.89-57.48c2.19-20.7,0.24-37.48-1.33-50.96
							c-2.92-25.15-4.39-37.78,19.88-52.7c10.46-6.43,23.46-9.17,43.47-9.17c7.63,0,15.41,0.38,23.65,0.77
							c8.34,0.4,16.96,0.82,25.53,0.82c20.9,0,47.73-2.26,69.92-19.86c4.32-3.42,8.45-6.77,12.47-10.02
							c38.69-31.29,66.65-53.9,159.87-65.26c4.88-0.6,9.85-0.9,14.76-0.9c59.21,0,109.54,42.87,149.97,77.32
							c24.14,20.56,43.2,36.81,60.6,41.35c8.43,2.2,18.07,3.27,29.46,3.27c10.62,0,21.58-0.91,32.18-1.79
							c10.56-0.88,20.53-1.71,30.11-1.71c22.27,0,35.85,4.69,45.42,15.67c13.15,15.09-6.99,45.72-24.76,72.75
							c-19.42,29.54-37.76,57.44-24.8,77.27c7.49,11.46,18.05,20.97,28.27,30.16c21.44,19.29,38.37,34.53,26.19,62.13
							C908.39,403.38,897.43,406.21,879.81,406.21z"/>
					</g>
					<g>
						<path fill="#764582" d="M812.8,492.58h-546.1c-3.72,0-6.73-3.01-6.73-6.73V190.33c0-3.72,3.01-6.73,6.73-6.73h546.1
							c3.72,0,6.73,3.01,6.73,6.73v295.52C819.53,489.57,816.52,492.58,812.8,492.58z"/>
						<path fill="#9D68AA" d="M803.02,480.92h-546.1c-3.72,0-6.73-3.02-6.73-6.73V178.67c0-3.72,3.01-6.73,6.73-6.73h546.1
							c3.72,0,6.73,3.01,6.73,6.73v295.52C809.75,477.91,806.73,480.92,803.02,480.92z"/>
						<g>
							<path fill="#FFFFFF" stroke="#764582" stroke-width="0.9736" stroke-miterlimit="10" d="M796.26,469.26H244.11
								c-2.05,0-3.71-1.66-3.71-3.71V163.98c0-2.05,1.66-3.71,3.71-3.71h552.15c2.05,0,3.71,1.66,3.71,3.71v301.57
								C799.96,467.6,798.3,469.26,796.26,469.26z"/>
							<path fill="#764582" d="M271.59,186.76h35.79v-2.11h-35.79V186.76z M263.17,187.81h4.21v-4.21h-4.21V187.81z M271.59,198.34
								h35.79v-2.11h-35.79V198.34z M263.17,199.39h4.21v-4.21h-4.21V199.39z M271.59,209.92h35.79v-2.1h-35.79V209.92z
								 M263.17,210.97h4.21v-4.21h-4.21V210.97z"/>
							<path fill="#FFFFFF" stroke="#764582" stroke-width="1.0244" stroke-miterlimit="10" d="M395.71,383.66H289.56
								c-14.57,0-26.39-11.81-26.39-26.39V255.98c0-14.57,11.81-26.39,26.39-26.39h106.15c14.57,0,26.39,11.81,26.39,26.39v101.29
								C422.09,371.84,410.28,383.66,395.71,383.66z"/>
							<path fill="#FFFFFF" stroke="#764582" stroke-width="1.0244" stroke-miterlimit="10" d="M574.22,383.66H468.07
								c-14.58,0-26.39-11.81-26.39-26.39V255.98c0-14.57,11.81-26.39,26.39-26.39h106.15c14.57,0,26.38,11.81,26.38,26.39v101.29
								C600.6,371.84,588.79,383.66,574.22,383.66z"/>
							<path fill="#FFFFFF" stroke="#764582" stroke-width="1.0244" stroke-miterlimit="10" d="M752.73,383.66H646.58
								c-14.57,0-26.39-11.81-26.39-26.39V255.98c0-14.57,11.82-26.39,26.39-26.39h106.15c14.57,0,26.38,11.81,26.38,26.39v101.29
								C779.11,371.84,767.3,383.66,752.73,383.66z"/>
							<g>
								<g>
									<g>
										<path fill="#764582" d="M740.22,199.36l-2.67-17.8c-0.08-0.49-0.49-0.85-0.98-0.85l-4.78-0.03l0.01-2.21l4.78,0.03
											c1.59,0.01,2.92,1.16,3.15,2.73l0.3,1.98l30.18,0.19l-3.1,14.04L740.22,199.36z M740.37,185.42l1.74,11.58l23.21-1.66
											l2.16-9.76L740.37,185.42z"/>
									</g>
									<g>
										<path fill="#764582" d="M767.53,203.54l-26.09-0.15c-0.56,0-1.09-0.25-1.45-0.68c-0.36-0.43-0.51-0.99-0.43-1.54
											l0.51-3.17l2.18,0.35l-0.46,2.83l25.74,0.15L767.53,203.54z"/>
									</g>
									<path fill="none" stroke="#764582" stroke-width="1.265" stroke-miterlimit="10" d="M748.1,207.91
										c-0.01,1.65-1.35,2.97-3,2.96c-1.65-0.01-2.97-1.35-2.96-3c0.01-1.65,1.35-2.97,3-2.96
										C746.78,204.92,748.11,206.26,748.1,207.91z"/>
									<circle fill="none" stroke="#764582" stroke-width="1.265" stroke-miterlimit="10" cx="760.75" cy="207.99" r="2.98"/>
								</g>
							</g>
							
								<line fill="none" stroke="#764582" stroke-width="1.0244" stroke-linecap="round" stroke-linejoin="round" stroke-miterlimit="10" x1="440.92" y1="394.31" x2="600.6" y2="394.31"/>
						</g>
						<g>
							<ellipse opacity="0.7" fill="#A1ABAD" enable-background="new    " cx="524.65" cy="327.34" rx="58.25" ry="3.95"/>
							<g>
								<g>
									<path fill="#DD4026" d="M478.29,286.17c0,0,1.17-2.94,11.36,0.92c5.53,2.1,12.74,7.17,26.77,1.05
										c0,0,4.27,14.19-13.6,12.95C484.94,299.85,478.29,286.17,478.29,286.17z"/>
									<path fill="#E2E2E2" d="M577.72,309l4.14,1.09c2.35,1.25,2.23,7.51,0.29,9.44c0,0-16.72,9.78-65.69,10.6
										c-28.17-0.54-46.99-5.36-47.86-7.27c-0.87-1.91-0.95-6.19-0.78-9.22l5.31-6.19L577.72,309z"/>
									<path fill="#FD6141" d="M478.29,286.17c0,0-5.52,5.3-6.17,9.66c-0.94,6.27-2,9.38-1.32,15.71c0,0,15.88,6.19,42.34,6.5
										c13.06,0.15,31.79-0.64,45.5-3.08c11.67-2.08,23.23-4.87,23.23-4.87c-3.37-11.79-13.56-7.41-28.08-12.01
										c-9.88-3.13-33.4-22.54-33.4-22.54s-5.45,4.04-5.75,6.13c-0.19,1.31,2.41,4.73,2.41,4.73s-0.65,11.15-11.78,11.89
										C494.42,299,478.29,286.17,478.29,286.17z"/>
									<path fill="none" d="M581.86,310.09c0,0-8.77,5.95-21.6,8.44c-13.11,2.54-34.51,3.39-47.85,2.88
										c-14.74-0.56-44.59-7.76-44.59-7.76"/>
									<path fill="none" stroke="#EFE9DA" stroke-width="1.1573" stroke-linecap="round" stroke-miterlimit="10" d="
										M517.04,286.39c0,0,5.64,0.02,7.64,0.72c4.7,1.64,18.3,12.5,28.49,13.79"/>
									<path fill="#E2E2E2" d="M533.87,285.97l-4.54,7.34c-0.62,0.87-3.34-1.09-2.72-1.96l4.21-7.75
										C531.72,282.44,534.78,284.8,533.87,285.97z"/>
									<path fill="#E2E2E2" d="M540.48,289.88l-4.78,7.78c-0.58,1.31-3.63-0.05-3.05-1.36l4.77-8.79
										C538.34,286.34,541.39,288.7,540.48,289.88z"/>
									<path fill="#E2E2E2" d="M547.1,293.78l-4.84,7.82c-0.52,1.1-3.51-0.29-3-1.4l4.78-8.79
										C544.95,290.24,548,292.6,547.1,293.78z"/>
									<path fill="#E2E2E2" d="M520.07,290.03c0.09-2.15,3.55-2,3.46,0.14l-1.38,13.04c0,1.88-1.98,1.88-1.98,0L520.07,290.03z"/>
									<path fill="none" stroke="#EFE9DA" stroke-width="1.1573" stroke-linecap="round" stroke-miterlimit="10" d="
										M508.01,318.15c0,0,1.59-5.82,7.17-8.45c6.25-2.95,21.11,2.62,29.33-1.94c2.42-1.34,8.65-6.87,8.65-6.87"/>
									<path fill="none" stroke="#EFE9DA" stroke-width="1.1573" stroke-linecap="round" stroke-miterlimit="10" d="
										M473.56,292.39c0,0,8.81,3.95,12.91,9.16c1.84,2.35,4.42,14.96,4.42,14.96"/>
								</g>
							</g>
						</g>
						<g>
							<ellipse opacity="0.7" fill="#A1ABAD" enable-background="new    " cx="341.64" cy="327.34" rx="58.25" ry="3.95"/>
							<g>
								<g>
									<path fill="#DD4026" d="M295.27,286.17c0,0,1.17-2.94,11.36,0.92c5.53,2.1,12.74,7.17,26.77,1.05
										c0,0,4.27,14.19-13.6,12.95C301.92,299.85,295.27,286.17,295.27,286.17z"/>
									<path fill="#E2E2E2" d="M394.71,309l4.14,1.09c2.35,1.25,2.23,7.51,0.29,9.44c0,0-16.72,9.78-65.69,10.6
										c-28.17-0.54-46.99-5.36-47.86-7.27c-0.87-1.91-0.95-6.19-0.77-9.22l5.31-6.19L394.71,309z"/>
									<path fill="#FFD25A" d="M295.27,286.17c0,0-5.52,5.3-6.17,9.66c-0.94,6.27-2,9.38-1.32,15.71c0,0,15.88,6.19,42.34,6.5
										c13.06,0.15,31.8-0.64,45.5-3.08c11.66-2.08,23.23-4.87,23.23-4.87c-3.37-11.79-13.56-7.41-28.08-12.01
										c-9.88-3.13-33.4-22.54-33.4-22.54s-5.45,4.04-5.75,6.13c-0.19,1.31,2.41,4.73,2.41,4.73s-0.65,11.15-11.78,11.89
										C311.41,299,295.27,286.17,295.27,286.17z"/>
									<path fill="none" d="M398.85,310.09c0,0-8.78,5.95-21.6,8.44c-13.1,2.54-34.51,3.39-47.85,2.88
										c-14.74-0.56-44.59-7.76-44.59-7.76"/>
									<path fill="none" stroke="#EFE9DA" stroke-width="1.1573" stroke-miterlimit="10" d="M334.02,286.39
										c0,0,5.64,0.02,7.64,0.72c4.7,1.64,18.3,12.5,28.49,13.79"/>
									<path fill="#E2E2E2" d="M350.86,285.97l-4.54,7.34c-0.62,0.87-3.34-1.09-2.72-1.96l4.21-7.75
										C348.71,282.44,351.77,284.8,350.86,285.97z"/>
									<path fill="#E2E2E2" d="M357.47,289.88l-4.78,7.78c-0.58,1.31-3.63-0.05-3.05-1.36l4.77-8.79
										C355.32,286.34,358.38,288.7,357.47,289.88z"/>
									<path fill="#E2E2E2" d="M364.08,293.78l-4.83,7.82c-0.52,1.1-3.51-0.29-3-1.4l4.77-8.79
										C361.94,290.24,364.99,292.6,364.08,293.78z"/>
									<path fill="#E2E2E2" d="M337.05,290.03c0.09-2.15,3.55-2,3.46,0.14l-1.38,13.04c0,1.88-1.98,1.88-1.98,0L337.05,290.03z"/>
									<path fill="none" stroke="#EFE9DA" stroke-width="1.1573" stroke-miterlimit="10" d="M325,318.15c0,0,1.59-5.82,7.17-8.45
										c6.25-2.95,21.11,2.62,29.33-1.94c2.42-1.34,8.65-6.87,8.65-6.87"/>
									<path fill="none" stroke="#EFE9DA" stroke-width="1.1573" stroke-miterlimit="10" d="M290.54,292.39
										c0,0,8.81,3.95,12.91,9.16c1.85,2.35,4.42,14.96,4.42,14.96"/>
								</g>
							</g>
						</g>
						<g>
							<ellipse opacity="0.7" fill="#A1ABAD" enable-background="new    " cx="699.29" cy="327.34" rx="58.25" ry="3.95"/>
							<g>
								<g>
									<path fill="#3C8460" d="M652.93,286.17c0,0,1.17-2.94,11.36,0.92c5.53,2.1,12.74,7.17,26.77,1.05
										c0,0,4.28,14.19-13.6,12.95C659.58,299.85,652.93,286.17,652.93,286.17z"/>
									<path fill="#E2E2E2" d="M752.36,309l4.14,1.09c2.35,1.25,2.23,7.51,0.29,9.44c0,0-16.72,9.78-65.69,10.6
										c-28.17-0.54-46.99-5.36-47.86-7.27c-0.87-1.91-0.95-6.19-0.77-9.22l5.31-6.19L752.36,309z"/>
									<path fill="#71BF9D" d="M652.93,286.17c0,0-5.52,5.3-6.17,9.66c-0.94,6.27-2,9.38-1.32,15.71c0,0,15.88,6.19,42.34,6.5
										c13.06,0.15,31.8-0.64,45.51-3.08c11.66-2.08,23.23-4.87,23.23-4.87c-3.37-11.79-13.56-7.41-28.08-12.01
										c-9.88-3.13-33.4-22.54-33.4-22.54s-5.45,4.04-5.75,6.13c-0.19,1.31,2.41,4.73,2.41,4.73s-0.65,11.15-11.78,11.89
										C669.07,299,652.93,286.17,652.93,286.17z"/>
									<path fill="none" d="M756.5,310.09c0,0-8.77,5.95-21.6,8.44c-13.1,2.54-34.51,3.39-47.84,2.88
										c-14.74-0.56-44.58-7.76-44.58-7.76"/>
									<path fill="none" stroke="#EFE9DA" stroke-width="1.1573" stroke-miterlimit="10" d="M691.68,286.39
										c0,0,5.63,0.02,7.63,0.72c4.7,1.64,18.3,12.5,28.5,13.79"/>
									<path fill="#E2E2E2" d="M708.52,285.97l-4.54,7.34c-0.62,0.87-3.34-1.09-2.72-1.96l4.21-7.75
										C706.37,282.44,709.43,284.8,708.52,285.97z"/>
									<path fill="#E2E2E2" d="M715.13,289.88l-4.77,7.78c-0.58,1.31-3.63-0.05-3.06-1.36l4.77-8.79
										C712.98,286.34,716.04,288.7,715.13,289.88z"/>
									<path fill="#E2E2E2" d="M721.74,293.78l-4.83,7.82c-0.51,1.1-3.51-0.29-3-1.4l4.77-8.79
										C719.59,290.24,722.65,292.6,721.74,293.78z"/>
									<path fill="#E2E2E2" d="M694.71,290.03c0.09-2.15,3.55-2,3.47,0.14l-1.37,13.04c0,1.88-1.98,1.88-1.98,0L694.71,290.03z"/>
									<path fill="none" stroke="#EFE9DA" stroke-width="1.1573" stroke-miterlimit="10" d="M682.66,318.15
										c0,0,1.59-5.82,7.17-8.45c6.25-2.95,21.11,2.62,29.33-1.94c2.41-1.34,8.65-6.87,8.65-6.87"/>
									<path fill="none" stroke="#EFE9DA" stroke-width="1.1573" stroke-miterlimit="10" d="M648.2,292.39
										c0,0,8.81,3.95,12.91,9.16c1.85,2.35,4.42,14.96,4.42,14.96"/>
								</g>
							</g>
						</g>
						<g>
							<path fill="#764582" d="M458.88,257.95v0.18c0,0.9-0.22,1.29-0.74,1.29h-5.06c-0.52,0-0.74-0.39-0.74-1.29v-0.18
								c0-0.9,0.22-1.29,0.74-1.29h5.06C458.66,256.66,458.88,257.04,458.88,257.95z"/>
							<path fill="#764582" d="M470.61,250.95c0,3.59-1.98,4.34-3.72,4.34c-1.74,0-3.72-0.75-3.72-4.34c0-3.59,1.98-4.34,3.72-4.34
								C468.63,246.6,470.61,247.36,470.61,250.95z M465.7,250.95c0,1.01,0.22,2.22,1.19,2.22s1.17-1.22,1.17-2.22
								c0-1.01-0.2-2.12-1.17-2.12S465.7,249.94,465.7,250.95z M477.52,247.12c0,0.08-0.05,0.21-0.12,0.36l-8.85,16.74
								c-0.25,0.46-0.57,0.73-1.09,0.73h-1.09c-0.35,0-0.52-0.16-0.52-0.34c0-0.1,0.05-0.23,0.12-0.39l8.85-16.74
								c0.25-0.47,0.57-0.73,1.09-0.73H477C477.35,246.76,477.52,246.92,477.52,247.12z M480.2,260.77c0,3.59-1.98,4.34-3.72,4.34
								c-1.74,0-3.72-0.75-3.72-4.34c0-3.59,1.98-4.34,3.72-4.34C478.21,256.42,480.2,257.17,480.2,260.77z M475.29,260.77
								c0,1.01,0.22,2.22,1.19,2.22c0.96,0,1.16-1.21,1.16-2.22c0-1.01-0.2-2.12-1.16-2.12
								C475.51,258.65,475.29,259.76,475.29,260.77z"/>
						</g>
						<g>
							<g>
								<path fill="#FD6141" d="M564.85,342.4v1.71c2.43,0.04,6.73,1.02,6.73,2.43c0,0.64-0.93,2.26-1.36,2.26
									c-0.64,0-2.17-1.53-5.37-1.62v9.93c3.79,1.36,8.14,2.9,8.14,8.78c0,4.85-3.15,7.93-8.14,8.35v2.13
									c0,0.47-0.26,0.68-0.85,0.68c-0.6,0-0.85-0.21-0.85-0.68v-2.09c-4.82-0.13-8.44-1.96-8.44-3.11c0-0.68,1.02-2.3,1.49-2.3
									c0.51,0,2.81,2.21,6.94,2.34v-10.99c-3.75-1.45-7.88-2.94-7.88-8.43c0-4.18,3.06-7.07,7.88-7.58v-1.79
									c0-0.47,0.26-0.68,0.85-0.68C564.59,341.72,564.85,341.93,564.85,342.4z M559.14,351.94c0,2.43,1.75,3.58,4.01,4.51v-9.16
									C560.72,347.72,559.14,349.26,559.14,351.94z M564.85,371.07c2.51-0.47,4.26-2.43,4.26-5.2c0-2.68-1.92-3.96-4.26-4.98
									V371.07z"/>
							</g>
							<path fill="#FD6141" d="M545.67,375.64h-68.13c-3.79,0-6.87-3.08-6.87-6.87v-1.02c0-3.8,3.08-6.87,6.87-6.87h68.13
								c3.79,0,6.87,3.07,6.87,6.87v1.02C552.53,372.57,549.46,375.64,545.67,375.64z"/>
						</g>
					</g>
					<g>
						<path opacity="0.2" fill="#764582" enable-background="new    " d="M1043.28,695.94H9.71c-3.85,0-5.55-4.85-2.54-7.25
							l154.79-123.65c3.32-2.65,7.55-4.11,11.93-4.11H879.1c4.38,0,8.6,1.46,11.92,4.11l154.79,123.65
							C1048.83,691.09,1047.13,695.94,1043.28,695.94z"/>
						<g>
							<path fill="#E4BCE8" d="M1039.32,645.38H13.67l159.04-127.04c3.22-2.57,7.33-3.99,11.57-3.99H868.7
								c4.25,0,8.35,1.42,11.57,3.99L1039.32,645.38z"/>
							<polygon fill="#9D68AA" points="937.65,634.02 115.34,634.02 231.12,525.71 821.88,525.71 							"/>
							<polygon fill="#FFFFFF" points="927.56,634.02 125.43,634.02 238.36,530.36 814.63,530.36 							"/>
							<path fill="#9D68AA" d="M1014.32,679.46H38.67c-13.81,0-25-11.19-25-24.99v-9.09h1025.65v9.09
								C1039.32,668.27,1028.13,679.46,1014.32,679.46z"/>
							
								<line fill="none" stroke="#FFFFFF" stroke-width="0.9734" stroke-miterlimit="10" x1="13.67" y1="658.63" x2="1039.32" y2="658.63"/>
							<path fill="#764582" d="M358.33,668.6h-140.3c-4.61,0-8.34-3.73-8.34-8.34v-1.24c0-4.61,3.73-8.34,8.34-8.34h140.3
								c4.61,0,8.34,3.73,8.34,8.34v1.24C366.67,664.86,362.94,668.6,358.33,668.6z"/>
							<path fill="#E4BCE8" d="M359.27,668.6H217.1c-4.09,0-7.4-3.31-7.4-7.4v-1.1c0-4.09,3.31-7.41,7.4-7.41h142.17
								c4.09,0,7.4,3.31,7.4,7.41v1.1C366.67,665.28,363.36,668.6,359.27,668.6z"/>
							<g>
								<polygon fill="#9D68AA" points="861.77,545.61 920.06,597.14 951.27,597.14 951.27,593.04 861.77,541.51 								"/>
								<polygon fill="#FDEEFF" points="861.77,541.51 920.06,593.04 951.27,593.04 886.49,541.51 								"/>
							</g>
							<ellipse fill="#FFFFFF" cx="149.95" cy="566.11" rx="24.52" ry="10.68"/>
							<ellipse fill="#764582" cx="149.95" cy="565.31" rx="17.17" ry="6.68"/>
							<ellipse fill="#FFFFFF" cx="146.07" cy="563.8" rx="5.92" ry="2.3"/>
						</g>
					</g>
					<g>
						<g>
							<g>
								<g>
									<path fill="#E4BCE8" d="M836.23,133.27H271.26c-12.9,0-23.36-10.46-23.36-23.37v-3.46c0-12.9,10.46-23.37,23.36-23.37
										h564.97c12.9,0,23.37,10.46,23.37,23.37v3.46C859.6,122.81,849.13,133.27,836.23,133.27z"/>
									<circle fill="#E4BCE8" cx="155.99" cy="108.17" r="25.1"/>
									<circle fill="#E4BCE8" cx="214.49" cy="108.17" r="25.1"/>
								</g>
							</g>
							<polygon fill="#E4BCE8" points="894.39,81.81 902.68,99.54 922.1,101.95 907.81,115.31 911.52,134.53 894.39,125.06 
								877.26,134.53 880.97,115.31 866.67,101.95 886.1,99.54 							"/>
							<g>
								<g>
									<path fill="#FFFFFF" stroke="#764582" stroke-width="0.9736" stroke-miterlimit="10" d="M836.23,124.58H271.26
										c-12.9,0-23.36-10.46-23.36-23.37v-3.46c0-12.9,10.46-23.36,23.36-23.36h564.97c12.9,0,23.37,10.46,23.37,23.36v3.46
										C859.6,114.12,849.13,124.58,836.23,124.58z"/>
									<g>
										<path fill="#A1ABAD" d="M395.54,90.25v0.93c2.22,0.08,4.36,0.9,4.36,1.76c0,0.63-0.74,2.06-1.26,2.06
											c-0.39,0-1.26-0.77-3.1-0.82v4.99c2.36,0.96,5.21,2.06,5.21,5.7c0,3.73-2.36,5.51-5.21,5.81v1.26
											c0,0.49-0.22,0.69-0.66,0.69c-0.52,0-0.74-0.19-0.74-0.69v-1.23c-3.54-0.11-5.7-1.4-5.7-2.25c0-0.71,0.96-2.11,1.43-2.11
											c0.44,0,1.95,1.34,4.28,1.37v-5.45c-2.41-0.91-5.32-1.95-5.32-5.73c0-3.26,2.38-4.99,5.32-5.32v-0.96
											c0-0.49,0.22-0.69,0.69-0.69C395.32,89.56,395.54,89.75,395.54,90.25z M392.3,96.33c0,1.07,0.77,1.7,1.83,2.22V94.3
											C392.82,94.6,392.3,95.4,392.3,96.33z M395.54,107.49c1.02-0.3,1.76-1.1,1.76-2.3c0-1.13-0.74-1.81-1.76-2.3V107.49z"/>
										<path fill="#A1ABAD" d="M409.16,103.13v0.22c0,0.82-0.22,1.15-0.71,1.15h-5.46c-0.49,0-0.71-0.33-0.71-1.15v-0.22
											c0-0.82,0.22-1.18,0.71-1.18h5.46C408.94,101.95,409.16,102.31,409.16,103.13z"/>
										<path fill="#A1ABAD" d="M419.47,95.67c0,3.76-2.17,4.55-4,4.55c-1.84,0-3.98-0.8-3.98-4.55c0-3.75,2.11-4.55,3.98-4.55
											C417.31,91.12,419.47,91.92,419.47,95.67z M413.93,95.67c0,1.15,0.22,2.58,1.54,2.58c1.32,0,1.56-1.43,1.56-2.58
											c0-1.15-0.19-2.52-1.56-2.52C414.15,93.15,413.93,94.52,413.93,95.67z M427.07,91.56c0,0.08-0.06,0.19-0.14,0.33
											l-9.95,18.04c-0.22,0.44-0.6,0.69-1.15,0.69H415c-0.38,0-0.6-0.14-0.6-0.33c0-0.08,0.06-0.22,0.14-0.35l9.92-18.04
											c0.25-0.44,0.63-0.66,1.18-0.66h0.82C426.84,91.23,427.07,91.37,427.07,91.56z M429.95,106.14c0,3.78-2.17,4.55-4,4.55
											c-1.84,0-3.97-0.77-3.97-4.55c0-3.75,2.11-4.55,3.97-4.55C427.78,101.59,429.95,102.39,429.95,106.14z M424.41,106.14
											c0,1.15,0.22,2.58,1.54,2.58s1.56-1.43,1.56-2.58c0-1.12-0.19-2.52-1.56-2.52C424.63,103.62,424.41,105.02,424.41,106.14z
											"/>
									</g>
									<path fill="#A1ABAD" d="M370.85,112.61h-49.23c-6.37,0-11.53-5.16-11.53-11.53l0,0c0-6.37,5.16-11.53,11.53-11.53h49.23
										c6.37,0,11.53,5.16,11.53,11.53l0,0C382.38,107.45,377.21,112.61,370.85,112.61z"/>
									<circle fill="#FFFFFF" stroke="#764582" stroke-width="0.9736" stroke-miterlimit="10" cx="155.99" cy="99.49" r="25.1"/>
									<circle fill="#FFFFFF" stroke="#764582" stroke-width="0.9736" stroke-miterlimit="10" cx="214.49" cy="99.49" r="25.1"/>
								</g>
							</g>
							<polygon fill="#FFCC5A" stroke="#764582" stroke-width="0.9736" stroke-miterlimit="10" points="894.39,73.13 902.68,90.86 
								922.1,93.27 907.81,106.63 911.52,125.85 894.39,116.38 877.26,125.85 880.97,106.63 866.67,93.27 886.1,90.86 							"/>
						</g>
						<polygon fill="#764582" points="159.09,84.19 143.21,99.92 159.09,115.96 162.12,112.93 149.26,99.92 162.12,87.22 						"/>
						<polygon fill="#764582" points="212.21,115.96 228.09,100.23 212.21,84.19 209.19,87.22 222.04,100.23 209.19,112.93 						
							"/>
						<path fill="#764582" d="M299.46,113.9l-10.12-10c1.41-2.12,2.18-4.64,2.17-7.18c-0.03-7.18-5.97-13.05-13.23-13.09
							c-3.42-0.01-6.87,1.36-9.32,3.79c-2.46,2.43-3.85,5.79-3.83,9.22c0.03,7.18,5.97,13.05,13.23,13.09c0.02,0,0.04,0,0.06,0
							c2.56,0,5.1-0.77,7.25-2.18l10.11,10L299.46,113.9z M287.57,96.72c0.01,2.4-0.96,4.75-2.68,6.44
							c-1.71,1.69-4.08,2.66-6.5,2.66c-0.01,0-0.02,0-0.04,0c-5.1-0.03-9.27-4.15-9.29-9.18c-0.01-2.4,0.96-4.75,2.68-6.44
							c1.72-1.7,4.09-2.67,6.53-2.66C283.38,87.57,287.55,91.69,287.57,96.72z"/>
						<path fill="#9D68AA" d="M825.61,100.08l-5.69,5.72c-0.67,0.68-0.67,1.77,0,2.45c0.68,0.68,1.77,0.68,2.44,0l5.69-5.72
							l5.69,5.72c0.68,0.68,1.77,0.68,2.44,0c0.68-0.68,0.68-1.77,0-2.45l-5.69-5.72l5.69-5.72c0.68-0.68,0.68-1.78,0-2.45
							c-0.67-0.68-1.76-0.68-2.44,0l-5.69,5.72l-5.69-5.72c-0.67-0.68-1.76-0.68-2.44,0c-0.67,0.68-0.67,1.77,0,2.45L825.61,100.08z
							 M828.04,118.57c-10.16,0-18.4-8.28-18.4-18.5c0-10.22,8.24-18.5,18.4-18.5c10.16,0,18.4,8.28,18.4,18.5
							C846.44,110.29,838.21,118.57,828.04,118.57z"/>
					</g>
					<g>
						<path fill="#FD6141" d="M192.9,216.27c0-18.75-15.2-33.96-33.95-33.96c-18.75,0-33.95,15.2-33.95,33.96l0,0
							c0,7.79-2.34,12.89,33.95,78.05C195.38,228.87,192.86,220.29,192.9,216.27z"/>
						<circle fill="#FFFFFF" cx="158.94" cy="217.07" r="15"/>
					</g>
					<path fill="#FFB072" d="M627.86,366.16"/>
					<g>
						<g>
							<g>
								<path opacity="0.2" fill="#764582" enable-background="new    " d="M431.47,564.64l-13.78,23.86
									c-2.8,4.84,1.02,10.69,6.98,10.69h135.46c5.39,0,9.2-4.85,7.51-9.56l-8.58-23.86c-1.07-2.98-4.1-4.99-7.51-4.99h-113.1
									C435.53,560.78,432.84,562.27,431.47,564.64z"/>
								<g>
									<g>
										<circle fill="#764582" cx="447.17" cy="558.01" r="12.03"/>
										<circle fill="#3E2344" cx="447.17" cy="558.01" r="7.24"/>
										<path fill="#FFDCAE" d="M442.42,556.7l4.13-10.88c0.22-0.58,0.78-0.97,1.4-0.97h14.35c1.31,0,1.99,1.56,1.1,2.52
											l-12.92,13.95c-1.08,1.16-2.73,1.59-4.24,1.1l-1.29-0.42C442.75,561.27,441.6,558.86,442.42,556.7z"/>
										<circle fill="#764582" cx="447.17" cy="558.01" r="2.77"/>
									</g>
									<g>
										<circle fill="#764582" cx="540.94" cy="558.01" r="12.03"/>
										<circle fill="#3E2344" cx="540.94" cy="558.01" r="7.24"/>
										<path fill="#FFDCAE" d="M545.69,556.7l-4.13-10.88c-0.22-0.58-0.78-0.97-1.4-0.97h-14.35c-1.31,0-1.99,1.56-1.1,2.52
											l12.92,13.95c1.08,1.16,2.73,1.59,4.23,1.1l1.29-0.42C545.36,561.27,546.51,558.86,545.69,556.7z"/>
										<circle fill="#764582" cx="540.94" cy="558.01" r="2.77"/>
									</g>
									<g>
										<path fill="#FD6141" d="M415.7,446.22c-0.69,0-1.35-0.4-1.64-1.08c-4.08-9.44-10.87-24.83-12.09-26.75
											c-1.82-1.32-15.56-6.22-27.99-10.25c-0.73-0.24-1.23-0.92-1.23-1.7s0.5-1.46,1.23-1.7l22.1-7.16
											c0.33-0.11,0.68-0.12,1.02-0.03c2.11,0.58,20.77,5.75,24.78,9.48c3.19,2.96,12.59,22.57,14.44,26.47
											c0.42,0.89,0.04,1.95-0.85,2.38c-0.89,0.42-1.95,0.04-2.38-0.85c-4.17-8.79-11.57-23.46-13.64-25.39
											c-2.48-2.31-15.07-6.37-22.79-8.5l-16.39,5.31c11.42,3.79,23.22,8.02,24.49,9.71c1.48,1.97,10.73,23.31,12.57,27.57
											c0.39,0.9-0.02,1.95-0.93,2.34C416.18,446.17,415.94,446.22,415.7,446.22z"/>
									</g>
									
										<polygon fill="#FFFFFF" stroke="#FD6141" stroke-width="1.8544" stroke-linecap="round" stroke-linejoin="round" stroke-miterlimit="10" points="
										410.87,437.19 430.99,424.7 586.15,432.29 589.71,442.02 									"/>
									<path fill="#FD6141" d="M409.4,437.51l23.48,77.44c0.7,2.32,2.88,3.88,5.3,3.81l129.88-4.02c2.41-0.07,4.48-1.75,5.05-4.1
										l16.59-68.62L409.4,437.51z"/>
									<path fill="#FF8976" d="M444.33,469.9c8.39,17.46,26.96,20.98,44.63,20.11c37.95-1.88,71.1-16.7,93.32-48.18
										c0,0-138.13-3.46-138.16-3.46c-2.04-0.03-3.04,13.23-3.15,14.95C440.64,459.05,441.86,464.77,444.33,469.9z"/>
									<path fill="#FD6141" d="M567.75,557.67c-1.59-6.34-4.85-12.69-7.22-15.9c-1.23-1.67-3.24-3.58-7.96-3.58H445.03
										c-1.69,0-4.73-0.28-6.01-2.16c-1.2-1.76-0.52-4.55,0.28-6.58c3.17-8.13,6-13.27,6.03-13.32l-4.2,0.35
										c-0.12,0.22-1.88,3.3-5.15,11.67c-1.6,4.11-1.57,7.44,0.1,9.88c1.66,2.43,4.76,3.72,8.96,3.72h5.76v2.41
										c0,1.5,1.22,2.71,2.71,2.71h2.06c1.5,0,2.71-1.21,2.71-2.71v-2.41h71.11v2.41c0,1.5,1.21,2.71,2.71,2.71h2.06
										c1.5,0,2.71-1.21,2.71-2.71v-2.41h15.72c3.25,0,4.32,1.1,5.08,2.13c2.23,3.03,5.23,9.04,6.63,14.65
										c0.32,1.26,0.23,2.22-0.26,2.86c-0.97,1.28-3.43,1.43-4.16,1.45c-24.92,0.56-78.67,0.25-107.54,0.09
										c-8.58-0.05-15.09-0.09-18.18-0.09c-4.38,0-7.64-1.25-9.18-3.53c-1.48-2.19-1.44-5.41,0.12-9.3
										c3.44-8.57,13.54-34.08,13.54-34.08l-3.31-1.31c0,0-10.1,25.5-13.54,34.07c-2.56,6.37-1.29,10.38,0.23,12.63
										c2.22,3.29,6.53,5.1,12.13,5.1c2.03,0,5.55,0.02,10.14,0.04v2.33c0,1.5,1.21,2.71,2.71,2.71h2.06
										c1.5,0,2.71-1.21,2.71-2.71v-1.75c0.21-0.21,0.32-0.33,0.53-0.54c16.46,0.1,40.98,0.23,63.67,0.23
										c6.16,0,12.17-0.01,17.86-0.04v2.09c0,1.5,1.21,2.71,2.71,2.71h2.06c1.5,0,2.71-1.21,2.71-2.71v-2.13
										c7.12-0.05,13.5-0.13,18.64-0.24c1.8-0.04,5.1-0.46,6.92-2.85C568.05,562.02,568.34,560.04,567.75,557.67z"/>
									<g>
										<path fill="#FFFFFF" d="M584.51,440.57l-16.1,66.38c-0.44,1.83-2.07,3.15-3.94,3.21l-60.65,1.88
											c4.7-5.08,9.37-10.19,14-15.35c0.34-0.38,0.45-0.85,0.24-1.07c-0.22-0.23-0.71-0.1-1.08,0.29
											c-4.99,5.16-9.94,10.35-14.85,15.58l-0.01,0.01c-0.18,0.19-0.29,0.4-0.38,0.6l-53.54,1.65c5-5.39,9.95-10.81,14.87-16.28
											c0.36-0.4,0.48-0.88,0.27-1.11c-0.22-0.23-0.72-0.08-1.11,0.32c-5.23,5.4-10.41,10.85-15.55,16.33l-0.01,0.01
											c-0.23,0.25-0.39,0.53-0.47,0.79l-4.84,0.15c-1.86,0.07-3.59-1.17-4.14-2.98l-10.69-35.24c2.76-2.99,5.49-6.02,8.17-9.1
											c0.19-0.22,0.18-0.57-0.03-0.78c-0.23-0.22-0.59-0.22-0.81,0c-2.66,2.67-5.27,5.38-7.86,8.12l-11.48-37.85l-1.71,0.52
											l22.7,74.86c0.76,2.52,3.1,4.24,5.72,4.24c0.06,0,0.12,0,0.19,0l123.11-3.81c2.68-0.08,4.99-1.96,5.62-4.57l16.1-66.38
											L584.51,440.57z"/>
										<path fill="#FFFFFF" d="M436.1,465.18c0.48-0.3,0.86-0.69,1.25-1.08c0.36-0.41,0.72-0.82,0.99-1.32
											c0.1-0.2,0.1-0.45-0.03-0.65c-0.19-0.3-0.59-0.4-0.89-0.21c-0.48,0.3-0.86,0.69-1.25,1.08c-0.36,0.41-0.72,0.82-0.99,1.32
											c-0.1,0.2-0.1,0.45,0.03,0.65C435.4,465.27,435.8,465.36,436.1,465.18z"/>
										<path fill="#FFFFFF" d="M439.41,461.63c0.21-0.01,0.32-0.11,0.44-0.2c0.09-0.12,0.18-0.24,0.17-0.45c0-0.01,0-0.02,0-0.02
											c-0.03-0.48-0.44-0.86-0.92-0.84c-0.21,0.01-0.32,0.11-0.43,0.21c-0.09,0.13-0.18,0.24-0.18,0.45c0,0.01,0,0.02,0,0.02
											C438.52,461.27,438.93,461.64,439.41,461.63z"/>
										<path fill="#FFFFFF" d="M454.25,445.68c3.62-3.69,7.2-7.41,10.74-11.17l0-0.01c0.3-0.32,0.27-0.83-0.05-1.13
											c-0.33-0.3-0.84-0.29-1.14,0.03c-3.51,3.79-6.97,7.62-10.39,11.49c-0.2,0.22-0.19,0.57,0.03,0.79
											C453.67,445.9,454.03,445.9,454.25,445.68z"/>
										<path fill="#FFFFFF" d="M452.39,447.76c0.21-0.01,0.32-0.11,0.43-0.21c0.09-0.12,0.18-0.24,0.18-0.45
											c0-0.01,0-0.02,0-0.02c-0.03-0.48-0.44-0.86-0.92-0.84c-0.21,0.01-0.32,0.11-0.44,0.21c-0.08,0.12-0.18,0.24-0.17,0.45
											c0,0.01,0,0.01,0,0.02C451.49,447.4,451.9,447.78,452.39,447.76z"/>
										<path fill="#FFFFFF" d="M450.42,449.88c0.21-0.01,0.32-0.11,0.43-0.21c0.09-0.12,0.18-0.24,0.18-0.45
											c0-0.01,0-0.02,0-0.02c-0.03-0.48-0.44-0.86-0.92-0.84c-0.21,0.01-0.32,0.11-0.44,0.21c-0.09,0.12-0.18,0.24-0.17,0.45
											c0,0,0,0.01,0,0.02C449.52,449.52,449.93,449.89,450.42,449.88z"/>
										<path fill="#FFFFFF" d="M448.45,451.99c0.21-0.01,0.32-0.11,0.43-0.21c0.09-0.12,0.18-0.24,0.18-0.45
											c0-0.01,0-0.02,0-0.02c-0.03-0.48-0.44-0.86-0.92-0.84c-0.21,0.01-0.32,0.11-0.44,0.21c-0.09,0.12-0.18,0.24-0.17,0.45
											c0,0,0,0.01,0,0.02C447.55,451.63,447.96,452.01,448.45,451.99z"/>
										<path fill="#FFFFFF" d="M441.68,459.25c0.93-0.78,1.76-1.66,2.6-2.53c0.81-0.9,1.62-1.79,2.34-2.77
											c0.17-0.23,0.16-0.55-0.03-0.78c-0.23-0.27-0.63-0.3-0.89-0.08c-0.93,0.78-1.76,1.66-2.6,2.53
											c-0.81,0.9-1.63,1.79-2.34,2.77c-0.17,0.23-0.16,0.55,0.03,0.78C441.02,459.43,441.42,459.47,441.68,459.25z"/>
										<path fill="#FFFFFF" d="M464.46,494.84c0.15,0.36,0.66,0.33,1.15-0.06c0.78-0.63,1.47-1.34,2.16-2.05
											c0.66-0.74,1.33-1.47,1.9-2.3c0.22-0.32,0.32-0.68,0.22-0.92c-0.14-0.36-0.65-0.33-1.15,0.06
											c-0.78,0.62-1.47,1.34-2.16,2.05c-0.66,0.74-1.33,1.47-1.9,2.29C464.46,494.24,464.36,494.6,464.46,494.84z"/>
										<path fill="#FFFFFF" d="M471.59,488.36c0.29-0.1,0.48-0.29,0.68-0.47c0.17-0.21,0.34-0.41,0.42-0.71
											c0-0.01,0-0.02,0.01-0.02c0.16-0.69-0.26-1.06-0.93-0.84c-0.29,0.1-0.48,0.29-0.68,0.47c-0.17,0.21-0.35,0.41-0.42,0.71
											c0,0.01-0.01,0.02-0.01,0.03C470.51,488.21,470.92,488.58,471.59,488.36z"/>
										<path fill="#FFFFFF" d="M498.48,459.49c6.48-6.75,12.91-13.54,19.3-20.36l0.01-0.01c0.54-0.58,0.72-1.3,0.39-1.6
											c-0.33-0.3-1.03-0.07-1.58,0.51c-6.36,6.86-12.68,13.75-18.96,20.68c-0.36,0.4-0.49,0.89-0.27,1.11
											C497.59,460.05,498.09,459.9,498.48,459.49z"/>
										<path fill="#FFFFFF" d="M495.07,463.24c0.29-0.1,0.48-0.29,0.68-0.47c0.17-0.21,0.35-0.42,0.42-0.71
											c0-0.01,0-0.02,0.01-0.03c0.16-0.68-0.26-1.05-0.93-0.83c-0.29,0.1-0.48,0.29-0.68,0.47c-0.17,0.21-0.35,0.42-0.42,0.71
											c0,0.01,0,0.02,0,0.02C493.98,463.08,494.39,463.46,495.07,463.24z"/>
										<path fill="#FFFFFF" d="M491.5,467.06c0.29-0.1,0.48-0.29,0.68-0.47c0.17-0.21,0.35-0.42,0.42-0.71
											c0-0.01,0.01-0.02,0.01-0.03c0.16-0.68-0.26-1.05-0.93-0.83c-0.29,0.1-0.48,0.29-0.68,0.47
											c-0.17,0.21-0.35,0.41-0.42,0.71c0,0.01,0,0.02-0.01,0.03C490.41,466.91,490.82,467.28,491.5,467.06z"/>
										<path fill="#FFFFFF" d="M487.93,470.89c0.29-0.1,0.48-0.29,0.68-0.47c0.17-0.21,0.35-0.42,0.42-0.71
											c0-0.01,0-0.02,0.01-0.03c0.16-0.68-0.26-1.05-0.93-0.83c-0.29,0.1-0.48,0.29-0.68,0.47c-0.17,0.21-0.35,0.41-0.42,0.71
											c0,0.01,0,0.02-0.01,0.02C486.84,470.74,487.25,471.11,487.93,470.89z"/>
										<path fill="#FFFFFF" d="M475.68,484.02c1.6-1.5,3.1-3.09,4.6-4.67c1.48-1.61,2.96-3.22,4.34-4.92
											c0.32-0.4,0.44-0.85,0.27-1.1c-0.2-0.29-0.74-0.19-1.19,0.24c-1.6,1.5-3.09,3.09-4.6,4.67c-1.48,1.61-2.96,3.22-4.34,4.92
											c-0.32,0.39-0.44,0.85-0.27,1.1C474.69,484.56,475.23,484.45,475.68,484.02z"/>
										<path fill="#FFFFFF" d="M520.25,494.12c0.75-0.59,1.4-1.28,2.07-1.96c0.63-0.71,1.27-1.4,1.8-2.2
											c0.21-0.31,0.3-0.65,0.2-0.89c-0.15-0.35-0.65-0.34-1.12,0.03c-0.75,0.59-1.41,1.28-2.07,1.96
											c-0.63,0.71-1.27,1.41-1.81,2.2c-0.21,0.31-0.3,0.65-0.2,0.89C519.27,494.5,519.78,494.49,520.25,494.12z"/>
										<path fill="#FFFFFF" d="M525.97,487.98c0.28-0.09,0.46-0.27,0.65-0.44c0.16-0.2,0.33-0.39,0.4-0.69c0-0.01,0-0.02,0-0.03
											c0.14-0.66-0.27-1.04-0.93-0.84c-0.28,0.09-0.47,0.27-0.66,0.45c-0.16,0.2-0.33,0.4-0.4,0.69c0,0.01-0.01,0.02-0.01,0.03
											C524.9,487.81,525.31,488.18,525.97,487.98z"/>
										<path fill="#FFFFFF" d="M551.64,460.42c6.19-6.44,12.33-12.91,18.44-19.43l0.01-0.01c0.52-0.56,0.67-1.26,0.34-1.56
											c-0.33-0.3-1.01-0.1-1.53,0.46c-6.07,6.54-12.11,13.13-18.1,19.75c-0.35,0.38-0.45,0.86-0.24,1.08
											C550.78,460.94,551.26,460.81,551.64,460.42z"/>
										<path fill="#FFFFFF" d="M548.38,464c0.29-0.09,0.47-0.27,0.66-0.44c0.16-0.2,0.33-0.4,0.4-0.69
											c0-0.01,0.01-0.02,0.01-0.03c0.14-0.66-0.28-1.03-0.93-0.83c-0.28,0.09-0.47,0.27-0.66,0.44c-0.16,0.2-0.33,0.4-0.4,0.69
											c0,0.01-0.01,0.02-0.01,0.02C547.31,463.82,547.72,464.2,548.38,464z"/>
										<path fill="#FFFFFF" d="M544.97,467.65c0.28-0.09,0.47-0.27,0.66-0.44c0.16-0.2,0.33-0.4,0.4-0.69
											c0-0.01,0.01-0.02,0.01-0.03c0.14-0.66-0.28-1.03-0.93-0.83c-0.28,0.09-0.46,0.27-0.65,0.44c-0.16,0.2-0.33,0.4-0.4,0.69
											c0,0.01,0,0.02,0,0.03C543.9,467.48,544.31,467.85,544.97,467.65z"/>
										<path fill="#FFFFFF" d="M541.56,471.31c0.28-0.09,0.47-0.27,0.66-0.45c0.16-0.2,0.33-0.39,0.4-0.68
											c0-0.01,0-0.02,0.01-0.03c0.14-0.66-0.28-1.03-0.93-0.83c-0.28,0.09-0.46,0.27-0.66,0.44c-0.16,0.2-0.33,0.4-0.4,0.69
											c0,0.01,0,0.02,0,0.03C540.49,471.13,540.91,471.51,541.56,471.31z"/>
										<path fill="#FFFFFF" d="M529.87,483.85c1.53-1.42,2.96-2.94,4.4-4.46c1.41-1.54,2.82-3.07,4.14-4.7
											c0.3-0.38,0.41-0.82,0.24-1.07c-0.21-0.29-0.73-0.2-1.16,0.21c-1.53,1.43-2.96,2.95-4.4,4.46
											c-1.41,1.54-2.82,3.07-4.14,4.7c-0.3,0.38-0.41,0.82-0.24,1.07C528.91,484.34,529.43,484.25,529.87,483.85z"/>
									</g>
									<polygon fill="#FF8976" points="456.57,562.95 462.89,540.57 529.95,540.57 533.6,562.95 									"/>
									<g>
										<circle fill="#764582" cx="439.13" cy="585.05" r="14.14"/>
										<circle fill="#3E2344" cx="439.13" cy="585.05" r="8.5"/>
										<path fill="#FFDCAE" d="M433.55,583.51l4.85-12.79c0.26-0.69,0.92-1.14,1.65-1.14h16.86c1.54,0,2.34,1.83,1.29,2.96
											l-15.18,16.38c-1.26,1.37-3.21,1.87-4.98,1.29l-1.52-0.5C433.94,588.88,432.58,586.05,433.55,583.51z"/>
										<circle fill="#764582" cx="439.13" cy="585.05" r="3.26"/>
									</g>
									<g>
										<circle fill="#764582" cx="547.14" cy="585.05" r="14.14"/>
										<circle fill="#3E2344" cx="547.14" cy="585.05" r="8.5"/>
										<path fill="#FFDCAE" d="M552.73,583.51l-4.85-12.79c-0.26-0.69-0.92-1.14-1.65-1.14h-16.86c-1.54,0-2.34,1.83-1.3,2.96
											l15.18,16.38c1.27,1.37,3.21,1.87,4.98,1.29l1.52-0.5C552.34,588.88,553.69,586.05,552.73,583.51z"/>
										<path fill="#764582" d="M543.88,585.05c0,1.8,1.46,3.25,3.25,3.25c1.8,0,3.26-1.46,3.26-3.25c0-1.8-1.46-3.26-3.26-3.26
											C545.34,581.8,543.88,583.25,543.88,585.05z"/>
									</g>
								</g>
								<g>
									<circle fill="#FFD25A" cx="584.3" cy="435.71" r="31.99"/>
									<g>
										<path fill="#764582" d="M590.24,418.67v28.22h5.36c1.05,0,1.5,0.75,1.5,2.51v0.85c0,1.75-0.45,2.51-1.5,2.51h-19.44
											c-1.05,0-1.5-0.75-1.5-2.51v-0.85c0-1.76,0.45-2.51,1.5-2.51h6.66v-22.5l-6.81,1c-1.31,0-1.61-2.81-1.61-4.21
											c0-0.75,0.45-1.25,1.3-1.4l12.48-2.3C588.99,417.47,590.24,418.07,590.24,418.67z"/>
									</g>
								</g>
							</g>
							<g>
								<polygon fill="#FFBE57" points="456.15,411.63 456.15,436.83 515.65,438.38 515.65,409.05 								"/>
								<polygon fill="#F99441" points="515.65,409.05 515.65,438.38 544.01,439.28 544.01,414.17 								"/>
								<polygon fill="#FFD25A" points="454.41,406.86 517.04,404.3 517.04,412.5 454.41,415.1 								"/>
								<polygon fill="#FFBE57" points="517.04,412.5 546.07,417.47 546.07,409.7 517.04,404.3 								"/>
							</g>
						</g>
						<g>
							<ellipse opacity="0.2" fill="#764582" enable-background="new    " cx="318.6" cy="584.82" rx="86.06" ry="4.95"/>
						</g>
						<g>
							<g>
								<g>
									<path fill="#FFB072" d="M360.16,528c1.39,13.83,13.02,34.07,17.53,45.36c1.33,3.33,7.62,1.47,6.91-2.04
										c-2.42-11.96-4.09-36.17-5.19-48.52C378.1,508.26,358.83,514.83,360.16,528z"/>
									<g>
										<g>
											<path id="SVGID_218_" fill="#ED0C37" d="M377.86,573.31c0,0-1.34,3.8,0.95,8.92c-0.42,0.19-0.1,1.89,0.65,2.25
												c0.88,0.43,7.26,0.32,8.56-0.69c0.29-0.48-0.04-1.15-0.04-1.15s1.6,0.61,6.14-0.25c4.54-0.86,6.97-2.17,8.73-3.29
												c0.54-0.34,0.16-1.55-0.44-1.35c0,0-0.39-3.15-3.02-2.98c-5.4,0.35-9.27-1.85-12.03-3.52c-1.37-0.83-2.74-1.52-3.59-1.56
												C381.58,569.59,378.76,570.87,377.86,573.31z"/>
										</g>
										<g>
											<defs>
												<path id="SVGID_2148_" d="M377.86,573.31c0,0-1.34,3.8,0.95,8.92c-0.42,0.19-0.1,1.89,0.65,2.25
													c0.88,0.43,7.26,0.32,8.56-0.69c0.29-0.48-0.04-1.15-0.04-1.15s1.6,0.61,6.14-0.25c4.54-0.86,6.97-2.17,8.73-3.29
													c0.54-0.34,0.16-1.55-0.44-1.35c0,0-0.39-3.15-3.02-2.98c-5.4,0.35-9.27-1.85-12.03-3.52
													c-1.37-0.83-2.74-1.52-3.59-1.56C381.58,569.59,378.76,570.87,377.86,573.31z"/>
											</defs>
											<clipPath id="SVGID_1_">
												<use xlink:href="#SVGID_2148_"  overflow="visible"/>
											</clipPath>
											<path clip-path="url(#SVGID_1_)" fill="#FFAEC1" d="M378.81,582.24c3.83,0.44,9.18-0.15,9.18-0.15s10.34-0.18,14.41-4.33
												c4.07-4.15,7.59,0.27,7.59,0.27l-16.92,13.48l-11.05-0.87l-4.94-4.17C377.07,586.48,376.67,581.99,378.81,582.24z"/>
										</g>
										<g>
											<defs>
												<path id="SVGID_2150_" d="M377.86,573.31c0,0-1.34,3.8,0.95,8.92c-0.42,0.19-0.1,1.89,0.65,2.25
													c0.88,0.43,7.26,0.32,8.56-0.69c0.29-0.48-0.04-1.15-0.04-1.15s1.6,0.61,6.14-0.25c4.54-0.86,6.97-2.17,8.73-3.29
													c0.54-0.34,0.16-1.55-0.44-1.35c0,0-0.39-3.15-3.02-2.98c-5.4,0.35-9.27-1.85-12.03-3.52
													c-1.37-0.83-2.74-1.52-3.59-1.56C381.58,569.59,378.76,570.87,377.86,573.31z"/>
											</defs>
											<clipPath id="SVGID_2_">
												<use xlink:href="#SVGID_2150_"  overflow="visible"/>
											</clipPath>
											<path clip-path="url(#SVGID_2_)" fill="#FFB072" d="M377.04,573.61c0,0,1.48,2.58,4.53,1.94s3.35-2.52,2.66-5.77
												C383.54,566.53,373.85,568.68,377.04,573.61z"/>
										</g>
									</g>
								</g>
								<g>
									<path fill="#552F5E" d="M314.9,429.01c0,0,19.88,35.77,26.45,50.39c6.57,14.62,14.88,50.72,14.88,50.72
										s16.35,3.44,24.92-4.23c0,0-2.75-38.09-7.41-55.2c-4.66-17.11-22.39-59.1-22.39-59.1
										C344.23,396.51,307.78,413.93,314.9,429.01z"/>
									<path fill="#3E2344" d="M331.17,456.99c0.23-0.23,1.59-6.52,5.62-13.57c3.5-6.13,11.97-10.95,12.9-10.2
										c1.6,1.29-11.03,10.66-13.48,17.44c0,0,14.06-10.23,15.03-8.88C352.15,443.03,336.7,451.46,331.17,456.99z"/>
								</g>
							</g>
							<g>
								<path fill="#DD4026" d="M329.07,340.83c3.28,15.12,8.37,35.27,19.6,45.1c11.22,9.84,35.59,15.29,36.75,15.29
									c2.71,0.63,5.62-13.69,3.47-15.35c-2.15-1.65-21.32-9.39-24.72-12.67c-6.08-5.87-3.49-41.58-10.38-49.38
									C346.9,316.03,325.25,323.21,329.07,340.83z"/>
								<path fill="#F29353" d="M390.32,388.46c0,0,8.54,7.1,9.05,9.03c0.51,1.93,0.3,5.12-0.4,5.93s-5.92,3.42-7.91,2.05
									c-2-1.37-4.74-4.49-4.74-4.49l0.94-3.49c0,0-0.64,2.39-5.82-0.85C376.27,393.39,385.4,383.55,390.32,388.46z"/>
							</g>
							<g>
								<g>
									<path fill="#FFB072" d="M271.29,517.73c-10.3,9.34-19.68,30.71-26.08,41.05c-1.89,3.05,3.35,7,5.75,4.35
										c8.18-9.05,26.67-24.77,35.94-33C297.82,520.44,281.09,508.85,271.29,517.73z"/>
									<g>
										<g>
											<path id="SVGID_220_" fill="#ED0C37" d="M246.36,557.74c0,0-3.92,0.94-6.96,5.66c-0.38-0.25-1.64,0.95-1.54,1.77
												c0.12,0.97,3.69,6.26,5.24,6.8c0.56-0.03,0.94-0.66,0.94-0.66s0.36,1.67,3.56,5.01c3.19,3.34,5.62,4.66,7.52,5.53
												c0.58,0.27,1.39-0.71,0.9-1.1c0,0,2.43-2.04,0.85-4.16c-3.23-4.33-3.5-8.78-3.61-12c-0.05-1.6-0.23-3.13-0.65-3.86
												C251.51,558.83,248.9,557.16,246.36,557.74z"/>
										</g>
										<g>
											<defs>
												<path id="SVGID_2152_" d="M246.36,557.74c0,0-3.92,0.94-6.96,5.66c-0.38-0.25-1.64,0.95-1.54,1.77
													c0.12,0.97,3.69,6.26,5.24,6.8c0.56-0.03,0.94-0.66,0.94-0.66s0.36,1.67,3.56,5.01c3.19,3.34,5.62,4.66,7.52,5.53
													c0.58,0.27,1.39-0.71,0.9-1.1c0,0,2.43-2.04,0.85-4.16c-3.23-4.33-3.5-8.78-3.61-12c-0.05-1.6-0.23-3.13-0.65-3.86
													C251.51,558.83,248.9,557.16,246.36,557.74z"/>
											</defs>
											<clipPath id="SVGID_3_">
												<use xlink:href="#SVGID_2152_"  overflow="visible"/>
											</clipPath>
											<path clip-path="url(#SVGID_3_)" fill="#FFAEC1" d="M239.4,563.4c1.72,3.45,5.12,7.62,5.12,7.62s5.79,8.57,11.49,9.72
												c5.7,1.15,3.91,6.51,3.91,6.51l-20.52-6.84l-5.3-9.74l0.8-6.41C234.9,564.26,238.44,561.47,239.4,563.4z"/>
										</g>
										<g>
											<defs>
												<path id="SVGID_2154_" d="M246.36,557.74c0,0-3.92,0.94-6.96,5.66c-0.38-0.25-1.64,0.95-1.54,1.77
													c0.12,0.97,3.69,6.26,5.24,6.8c0.56-0.03,0.94-0.66,0.94-0.66s0.36,1.67,3.56,5.01c3.19,3.34,5.62,4.66,7.52,5.53
													c0.58,0.27,1.39-0.71,0.9-1.1c0,0,2.43-2.04,0.85-4.16c-3.23-4.33-3.5-8.78-3.61-12c-0.05-1.6-0.23-3.13-0.65-3.86
													C251.51,558.83,248.9,557.16,246.36,557.74z"/>
											</defs>
											<clipPath id="SVGID_4_">
												<use xlink:href="#SVGID_2154_"  overflow="visible"/>
											</clipPath>
											<path clip-path="url(#SVGID_4_)" fill="#FFB072" d="M245.67,557.22c0,0-1.36,2.65,0.84,4.85c2.2,2.2,3.94,1.44,6.29-0.91
												C255.15,558.81,248.06,551.85,245.67,557.22z"/>
										</g>
									</g>
								</g>
								<g>
									<path fill="#764582" d="M293.84,415.58c0,0,2.75,52.45-3.13,66.19c-5.89,13.74-21.19,36.1-21.19,36.1
										s4.2,13.02,19.71,14.88c0,0,23.39-16.47,32.57-41.42c9.18-24.95,16.87-52.41,13.15-72.76
										C332.87,407.14,296.79,398.87,293.84,415.58z"/>
									<path fill="none" stroke="#FFFFFF" stroke-width="0.4986" stroke-miterlimit="10" d="M300.68,415.1
										c0,0,0.33,43.68-1.71,60.57c-1.98,16.4-27.18,46.58-27.18,46.58"/>
								</g>
							</g>
							<g>
								<g>
									<path fill="#FFFFFF" d="M352.56,325.02c4.04,8.04-3.17,38.55-3.17,51.89c0,10.84,1.78,28.97,3.39,35.81
										c0.43,1.82-0.38,3.69-2,4.64c-6.24,3.67-14.54,5.6-19.66,6.09c-19.74,1.9-29.28-1.56-33.77-3.26
										c-2.42-0.92-3.87-3.38-3.49-5.94c1-6.67,3.81-22.97,1.4-37.98c-3.15-19.63-8.29-46.33,0.92-54.57
										c9.21-8.24,26.46-13.37,26.46-13.37S347.57,315.09,352.56,325.02z"/>
									<g>
										<path fill="#3E2344" d="M326.8,299.96c0,0-4.43-0.74-10.5-8.28c-3.98-4.95-9.52-27.33,8.04-30.72
											c17.56-3.39,22.73,8.48,23.53,16.23c0.8,7.76-7.91,14.15-11.85,16.95C332.07,296.95,326.8,299.96,326.8,299.96z"/>
										<path fill="#FFB072" d="M322.52,290.95c0,0-0.53,6.78-2.54,12.07s-4.15,6.91-6.67,9.16s10.09,15.64,21.31,19.04
											c0,0,8.15-9.92,4.41-15.45c-3.74-5.53-6.69-6.02-5.35-13.4c1.17-6.44,1.86-10.01,1.86-10.01L322.52,290.95z"/>
										<g>
											<g>
												<g>
													<path fill="#FFB072" d="M322.52,290.95c0,0-0.56,5.01,1.45,7.16c2.02,2.15,5.64,7.33,13.88,6.73
														c11.01-0.81,6.73-18.28,6.73-18.28s1.15-6.72,0-12.24s-12.05-8.41-20.93-5.71c0,0-2.55,2.43-1.57,13.28
														c0,0-1.64-1.97-4.21-0.57c-1.95,1.06-2.16,3.59-1.5,5.96C317.17,290.13,320.15,292.59,322.52,290.95z"/>
												</g>
												<path fill="#E57E55" d="M321.6,289.9l-0.97-2.58l1.65-0.69c0,0-1.07-4.82-3.76-3.04
													C316.32,285.05,318.84,290.88,321.6,289.9z"/>
											</g>
											<path fill="#3E2344" d="M322.77,286.06c0,0-1.08,6.78-0.92,9.8c0.16,3.02,3.15,12.44,16.94,11.6
												c13.69-0.83,8.79-15.67,6.47-16.69c0.09,0.99-0.4,2.58-1.37,3.27c-0.56-1.39-2.17-2.37-4.42-1.9
												c-1.96-1.11-4.21-0.42-6.57,0.99l-1.7,1.19c-4.26-1.05-6.47-3.85-7.01-8.08L322.77,286.06z"/>
											<g>
												<path fill="#FFFFFF" d="M334.63,294.58c0,0,7.24,0,7.41,0.49s-0.86,1.48-3.71,1.48
													C335.49,296.55,334.63,294.58,334.63,294.58z"/>
												<path fill="#E57E55" d="M334.63,294.45c0,0,1.01,0.03,2.53,0.07c0.76,0.02,1.65,0.05,2.6,0.11
													c0.47,0.03,0.96,0.07,1.46,0.14c0.25,0.04,0.5,0.06,0.75,0.17c0.06,0,0.16,0.14,0.15,0.19c0.01,0.05,0,0.16-0.02,0.22
													c-0.04,0.14-0.13,0.24-0.22,0.34c-0.38,0.37-0.88,0.55-1.36,0.7c-0.49,0.13-0.98,0.2-1.46,0.23
													c-0.24,0.02-0.48,0.02-0.7,0.03c-0.23-0.02-0.46-0.04-0.68-0.05c-0.22-0.01-0.43-0.04-0.63-0.11
													c-0.2-0.06-0.41-0.1-0.59-0.17c-0.35-0.17-0.68-0.31-0.93-0.52c-0.27-0.17-0.45-0.39-0.61-0.55
													c-0.3-0.35-0.42-0.6-0.42-0.6l-0.09-0.2L334.63,294.45z M334.87,294.72c0.06,0.09,0.13,0.21,0.25,0.36
													c0.15,0.15,0.31,0.37,0.56,0.53c0.23,0.2,0.53,0.35,0.87,0.51c0.17,0.07,0.36,0.11,0.55,0.17
													c0.19,0.07,0.39,0.11,0.61,0.11c0.21,0.02,0.44,0.04,0.66,0.06c0.23-0.01,0.46,0,0.69-0.02
													c0.47-0.03,0.96-0.08,1.43-0.21c0.47-0.13,0.96-0.31,1.31-0.64c0.16-0.15,0.3-0.46,0.13-0.53
													c-0.21-0.08-0.47-0.12-0.71-0.15c-0.49-0.06-0.98-0.09-1.45-0.12c-0.95-0.05-1.83-0.07-2.59-0.08
													C336.07,294.7,335.25,294.71,334.87,294.72z"/>
											</g>
											<g>
												<path fill="#3E2344" d="M335.58,285.64c-0.05,0.61-0.85,0.66-1.83,0.58c-0.98-0.08-1.76-0.26-1.71-0.87
													c0.05-0.61,0.89-1.04,1.86-0.96C334.88,284.47,335.63,285.03,335.58,285.64z"/>
												<path fill="#3E2344" d="M329.1,282.72c-0.03,0.09,2.79-0.88,3.68-0.87c0.89,0.01,4.26,0.55,4.54,0.22
													c0.28-0.33,0.5-1.46,0.5-1.46s-4.59-0.45-5.54-0.21C331.34,280.64,329.35,281.94,329.1,282.72z"/>
											</g>
											<g>
												<path fill="#3E2344" d="M344.55,286.39c-0.05,0.61-0.85,0.65-1.83,0.57c-0.98-0.08-1.76-0.26-1.71-0.87
													c0.05-0.61,0.89-1.04,1.86-0.96C343.85,285.22,344.6,285.78,344.55,286.39z"/>
												<path fill="#3E2344" d="M345.8,284.12c0.01,0.09-1.21-1.46-1.81-1.57c-0.61-0.11-3.53,0.13-3.67-0.23
													c-0.15-0.36-0.14-1.51-0.14-1.51s3.9,0.29,4.51,0.66C345.29,281.84,345.73,283.31,345.8,284.12z"/>
											</g>
											<g>
												<path opacity="0.5" fill="#E57E55" enable-background="new    " d="M339.51,291.61c0,0-2.26-0.07-2.21-0.69
													c0.05-0.62,4.79-1.3,5.05-0.85C342.61,290.51,340.53,291.33,339.51,291.61z"/>
												<path fill="#E57E55" d="M339.9,282.21c0,0-0.66,2.83-0.32,3.86c0.34,1.02,2.42,3.32,2.46,3.81
													c0.04,0.49-2.35,1.68-2.53,1.74c-0.18,0.07,3.42-0.48,3.31-1.59c-0.1-1.12-2.77-3.91-2.87-4.46
													C339.85,285.01,339.9,282.21,339.9,282.21z"/>
											</g>
											<path fill="#3E2344" d="M323.76,286.89c0.7-0.48,1.86-4.57,0.63-8.51c-1.1-3.52,1.68-6.13,3.64-6.35
												c2.25-0.25,9.53,1.82,12.41,1.47c6.31-0.77,11.2-2.64,11.19-3.8c-0.01-1.17-4.63,0.05-4.63,0.05s7.04-1.79,6.4-7.68
												c0,0-5.29,0.39-10.02-1.23c-4.73-1.62-16.04-3.5-22.05,0.97c-3.94,2.92-6.73,12.46-1.52,17.3
												C322.19,281.31,322.41,287.8,323.76,286.89z"/>
										</g>
									</g>
									<path opacity="0.7" fill="#A1ABAD" enable-background="new    " d="M340.17,325.15c0,0-3.01,59.73-2.35,65.35
										c0.66,5.62-0.43,27.2,13.2,31.36c0,0-6.09-31.16-5.23-49.88C346.66,353.26,340.17,325.15,340.17,325.15z"/>
								</g>
								<path fill="#FD6141" d="M335.81,311.63c0,0,5.87,18.7,5.54,43.09c-0.33,24.38-1.31,74.4,16.73,73.23
									c0,0-7.6-30.73-7.14-41.89c0.46-11.16,6.51-52.18,4.29-59.21C352.01,316.67,335.81,311.63,335.81,311.63z"/>
								<g>
									<path fill="#FD6141" d="M315.1,310.75c0,0,12.17,19.04,16.06,51.3c1.86,15.38-0.23,39.76-2.55,55.32
										c-2.67,17.92-37.75,17.89-40,13.19c-2.25-4.7,7.8-34.46,4.66-51.37c-3.13-16.91-4.98-44.52-1.24-53.6
										C295.79,316.51,315.1,310.75,315.1,310.75z"/>
									
										<path fill="none" stroke="#FFFFFF" stroke-width="0.4986" stroke-linecap="round" stroke-linejoin="round" stroke-miterlimit="10" d="
										M297.51,343.08c0,0,5.97,28.79,5.21,44.03c-0.76,15.24-5.62,46.03-5.62,46.03"/>
									<path fill="#DD4026" d="M293.31,327.91c-0.75,1.82-1.27,4.42-1.59,7.53c3.29,25.11,17.41,53.25,39.1,63.35
										c0.72-8.15,1.15-16.77,1.03-24.49c-14.53-14.48-25.65-33.29-34.15-51.84C295.72,324.09,294.13,325.92,293.31,327.91z"/>
								</g>
							</g>
							<g>
								<path fill="#FFB072" d="M378.26,393.47c0,0,10.81,2.53,12.13,4.03c1.32,1.5,3.53,6.64,3.27,7.68
									c-0.26,1.03-5.98,3.29-8.37,2.96c-2.4-0.33-5-1.68-5-1.68c0.36-1.28,0.26-2.42-1.07-2.83c-1.4-0.44-2.9,0.32-5.34,1.42
									C368.31,407.55,371.67,391.28,378.26,393.47z"/>
								<path fill="#FF8976" d="M291.56,341.13c2.91,16.11,23.51,40.15,32.33,47.71c7.73,6.63,45.9,17.89,47.58,17.98
									c3.91,0.83,8.89-13.25,5.85-15.06c-3.04-1.82-37.06-17.47-40.74-21.57c-3.69-4.1-17.2-40.48-26.79-48.79
									C300.19,313.09,288.28,322.95,291.56,341.13z"/>
							</g>
						</g>
					</g>
					<g>
						<g>
							<path fill="#FD6141" d="M912.52,315.22c15.64-22.55,31.78-17.65,37.71-8.15c5.93,9.5,1.65,23.62-10.7,35.29
								c-8.86,8.88-26.59,15.06-40.83,18.45c-9.96-10.73-21.28-25.72-23.72-38.01c-3.79-16.56,0.49-30.68,10.7-35.29
								C895.88,282.89,912.02,287.78,912.52,315.22z"/>
						</g>
						<g opacity="0.5">
							<path fill="#DD4026" d="M950.22,307.07c-5.06-8.11-17.57-12.85-30.86-0.03c11.32-8.92,27.54-9.09,28.96,7.23
								c1.49,17.13-12.24,28.84-28.06,25.85c-20.75-3.93-15.65-21.33-25.52-29.85c-7.71-6.49-16.86,3.32-17.27,11.35
								c-0.18,3.65,0.2,7.3,0.82,10.76c4.68,9.92,12.91,20.37,20.4,28.43c14.24-3.39,31.97-9.58,40.83-18.45
								C951.88,330.69,956.16,316.57,950.22,307.07z"/>
						</g>
					</g>
					<g>
						<ellipse opacity="0.2" fill="#764582" enable-background="new    " cx="721.13" cy="583.08" rx="86.06" ry="4.95"/>
						<g>
							<g>
								<g>
									<g>
										<g>
											<g>
												<g>
													<path id="SVGID_222_" fill="#FD6141" d="M736.98,563.7c0,0,3.57,3.13,4.17,4.01c0.59,0.88,2.89,7.37,2.89,7.37
														c-0.49,0.94-2.09,2.3-3.59,2.48l-2.89-3.72c0,0-1.48,6.51-2.98,8.63c-1.81,2.56-12.17,5.5-13.72,4.73
														c0,0-1.91-3.79,1.34-5.88c6-3.85,6.15-11.91,6.15-11.91C727.46,564.66,732.66,561.04,736.98,563.7z"/>
												</g>
												<g>
													<defs>
														<path id="SVGID_2156_" d="M736.98,563.7c0,0,3.57,3.13,4.17,4.01c0.59,0.88,2.89,7.37,2.89,7.37
															c-0.49,0.94-2.09,2.3-3.59,2.48l-2.89-3.72c0,0-1.48,6.51-2.98,8.63c-1.81,2.56-12.17,5.5-13.72,4.73
															c0,0-1.91-3.79,1.34-5.88c6-3.85,6.15-11.91,6.15-11.91C727.46,564.66,732.66,561.04,736.98,563.7z"/>
													</defs>
													<clipPath id="SVGID_5_">
														<use xlink:href="#SVGID_2156_"  overflow="visible"/>
													</clipPath>
													<path clip-path="url(#SVGID_5_)" fill="#DD4026" d="M719.64,586.63c0.18-0.1,13.26-1.86,14.8-5.71
														c1.21-3.02,2.01-8.11,2.71-8.71c0.7-0.6,4-4.49,4-4.49l5.23,9.11l-19.69,16.57L719.64,586.63z"/>
												</g>
											</g>
											<path fill="#F7B614" d="M725.91,577.93l1.78,0.38c0,0,1.27-1.74,1.15-3.31l-1.74-0.61c-0.32-0.11-0.66,0.05-0.78,0.37
												l-0.87,2.36C725.33,577.47,725.54,577.85,725.91,577.93z"/>
										</g>
										<path fill="#FFB072" d="M714,383.29c-0.05-0.63-16.6,73.1-16.01,92.92c0.37,12.35,23.46,69.18,30.35,93.2
											c1.32,4.61,8.49-0.8,7.92-5.58c-2.7-22.99-2.53-35.08-12.68-85.04c-1.58-7.78,26.34-77.52,24.13-93.85
											C745.51,368.59,722.72,359.7,714,383.29z"/>
										<path opacity="0.5" fill="#FFBE57" enable-background="new    " d="M747.72,384.93c-2.21-16.34-25-25.23-33.72-1.64
											c-0.04-0.6-15.03,66.1-15.98,89.66c7.45-5.65,17.35-2.67,25.91,1.83C727.23,457.77,749.71,399.66,747.72,384.93z"/>
									</g>
									<g>
										<g>
											<g>
												<g>
													<path id="SVGID_224_" fill="#FD6141" d="M760.77,568.49c0,0,2.23,4.19,2.47,5.23c0.24,1.03,0.08,7.92,0.08,7.92
														c-0.79,0.7-2.78,1.41-4.24,1.04l-1.38-4.51c0,0-2.13,4.4-4.28,5.85c-2.6,1.75-11.85,3.89-13.4,3.12
														c0,0-2.14-4.13,1.3-5.89c8.59-4.41,9.35-10.5,9.35-10.5C751.53,566.01,757.68,564.47,760.77,568.49z"/>
												</g>
												<g>
													<defs>
														<path id="SVGID_2158_" d="M760.77,568.49c0,0,2.23,4.19,2.47,5.23c0.24,1.03,0.08,7.92,0.08,7.92
															c-0.79,0.7-2.78,1.41-4.24,1.04l-1.38-4.51c0,0-2.13,4.4-4.28,5.85c-2.6,1.75-11.85,3.89-13.4,3.12
															c0,0-2.14-4.13,1.3-5.89c8.59-4.41,9.35-10.5,9.35-10.5C751.53,566.01,757.68,564.47,760.77,568.49z"/>
													</defs>
													<clipPath id="SVGID_6_">
														<use xlink:href="#SVGID_2158_"  overflow="visible"/>
													</clipPath>
													<path clip-path="url(#SVGID_6_)" fill="#DD4026" d="M738.95,586.74c0.2-0.02,10.78-1.03,13.32-3.06
														c2.54-2.03,4.77-6.87,5.63-7.17c0.87-0.31,5.33-2.78,5.33-2.78l1.65,10.38l-24.29,8.49L738.95,586.74z"/>
												</g>
											</g>
											<path fill="#F7B614" d="M745.79,578.49l1.53,0.99c0,0,1.8-1.18,2.25-2.68l-1.41-1.19c-0.26-0.21-0.64-0.18-0.85,0.07
												l-1.65,1.89C745.41,577.86,745.47,578.29,745.79,578.49z"/>
										</g>
										<path fill="#FFB072" d="M730.35,388.05c-0.13,6.42,0.86,74.87,6.79,93.6c3.69,11.67,11.45,67.71,14.07,86.86
											c0.96,6.99,8.54,6.99,9.09,0.31c2.05-24.8,10.06-59.28,0.96-89.58c-2.27-7.57,8.27-85.72,1.73-100.6
											C756.46,363.76,730.83,364.32,730.35,388.05z"/>
										<path opacity="0.5" fill="#FFBE57" enable-background="new    " d="M760.94,474.17c0.21-19.33,7.85-82.32,2.06-95.52
											c-6.53-14.88-32.16-14.33-32.65,9.4c-0.12,5.91,0.71,64.35,5.47,88.22C743.22,472.09,752.58,471.74,760.94,474.17z"/>
									</g>
									<g>
										<path fill="#FD6141" d="M714.74,375.27L714,382c0,0-12.04,30.52-17.22,80.06c12.84-3.56,37.09,8.3,73.06,3.25
											c0,0,14.23-63.44-10.52-91.66C734.56,345.42,716.04,360.33,714.74,375.27z"/>
										<path fill="#DD4026" d="M714.78,381.74c0,0-0.96,9.5,15.48,11.18c16.44,1.68,32.74-10.2,32.33-13.69
											C762.17,375.74,714.78,381.74,714.78,381.74z"/>
										<path fill="none" stroke="#FFFFFF" stroke-width="0.4986" stroke-linecap="round" stroke-miterlimit="10" d="
											M755.35,377.04c0,0,18.82,31.31,7.24,87.19"/>
									</g>
								</g>
								<g>
									<g>
										<path fill="#FFB072" d="M647.83,357.35c-0.13-0.01-6.95-0.42-8.13-0.1c-1.09,0.3-3.88,1.65-4.69,2.06
											c-1.89,0.95-0.05,2.3,1.38,2.17c2.02-0.17,2.77-0.54,3.61-0.41c0.47,0.07,0.86,0.18,1.23,0.31
											c-0.75,0.63-3.85,2.81-6.23,3.73c-1.34,0.52-2.55,0.87-4.48,1.49c-0.87,0.28-0.72,1.42,0.26,1.6
											c0.7,0.13,3.09,0.14,5.19-0.66c0.83-0.31,1.67-0.66,2.44-1.02c0.02,0.08-1.79,1.13-2.66,1.53
											c-1.27,0.58-2.55,0.81-4.41,1.5c-0.85,0.31-0.62,1.31,0.37,1.45c0.27,0.04,0.77,0.08,1.41,0.07
											c-0.35,0.45-0.1,1.16,0.69,1.26c0.37,0.05,1.14-0.02,2.1-0.17c0.12,0.23,0.36,0.48,0.75,0.48
											c6.94,0.02,11.08-3.77,14.88-4.65C657.59,361.89,652.36,358.22,647.83,357.35z"/>
										<path fill="#552F5E" d="M728.55,307.91c-4.72-2.68-12.76-3.56-19.11,5.48c-6.34,9.04-9.14,30.3-15.86,37.49
											c-4.01,4.29-40.43,5.53-43.02,6.83c-1.69,0.85-0.68,8.95-0.13,10.45c1.16,3.15,40.58,4.83,51.31,0.6
											C712.46,364.54,738.67,313.65,728.55,307.91z"/>
									</g>
									<path fill="#3E2344" d="M713.3,267.66c0.29-3.3,0.27-8.78,4.2-13.54c3.93-4.76,19.25-9.52,27.28-3.96
										c9.87,6.83,6.65,13.23,18.95,18.2c12.31,4.96,8.58,10.47,5.07,16.1c-3.52,5.62-2.28,6.55,3.41,12.45
										c5.69,5.9,13.23,20.58,0,28.96c-13.24,8.38-41.9,2.89-53.38-8.17c-11.48-11.06,2.07-18.35-1.12-24.95
										c-3.19-6.59-6.93-5.14-6.93-12.15C710.79,275.22,712.86,272.75,713.3,267.66z"/>
									<path fill="#764582" d="M738.13,300.07c0,0-26.1,4.35-26.98,12.32c-0.37,3.34,4.19,10.07,3.01,13.49
										c-1.72,5-4.45,7.9,0.59,19.77c4.08,9.59-2.92,29.45-2.71,31.81c0.79,8.83,14.81,10.45,20.56,10.31
										c8.19-0.2,31.76-5.47,31.76-10.63c0-4.48-10.91-14.09-11.97-21.76c-1.06-7.67,18.91-38.42,14.94-45.11
										C759.66,297.31,738.13,300.07,738.13,300.07z"/>
									<g>
										<path fill="#FFB072" d="M763.18,382.38c-0.13,0.03-6.74,1.73-7.77,2.4c-0.95,0.62-3.19,2.76-3.84,3.39
											c-1.5,1.48,0.66,2.2,1.98,1.65c1.87-0.79,2.47-1.36,3.31-1.49c0.47-0.08,0.88-0.09,1.26-0.08
											c-0.51,0.83-2.8,3.86-4.79,5.46c-1.11,0.9-2.16,1.61-3.81,2.79c-0.74,0.53-0.25,1.57,0.74,1.45
											c0.7-0.09,2.98-0.81,4.74-2.21c0.7-0.56,1.39-1.14,2.02-1.72c0.04,0.07-1.36,1.62-2.07,2.27
											c-1.03,0.94-2.18,1.55-3.74,2.77c-0.71,0.56-0.19,1.43,0.8,1.27c0.27-0.05,0.76-0.16,1.36-0.36
											c-0.19,0.54,0.26,1.13,1.04,0.99c0.37-0.07,1.08-0.37,1.95-0.81c0.18,0.19,0.48,0.31,0.86,0.23
											c4.11-0.94,11.15-6.85,12.74-8.98C773.85,383.71,767.75,381.82,763.18,382.38z"/>
										<path fill="#764582" d="M757.48,303.85c-4.22,3.41-7.99,10.57-1.91,19.79c6.08,9.22,23.4,18.8,27.63,27.69
											c2.52,5.3-20.88,28.06-20.92,30.96s4.4,9.96,6.1,10.79c3.02,1.46,35.88-30.44,35.88-41.97
											C804.27,339.58,766.54,296.54,757.48,303.85z"/>
									</g>
									<path fill="#FFB072" d="M742.11,279.93c0,0,0.53,6.78,2.53,12.07c2,5.29,4.15,6.91,6.68,9.16
										c2.52,2.25-10.09,15.65-21.32,19.04c0,0-8.14-9.92-4.41-15.45c3.73-5.53,6.69-6.02,5.35-13.4
										c-1.16-6.44-1.86-10.01-1.86-10.01L742.11,279.93z"/>
									<g>
										<g>
											<path fill="#FFFFFF" d="M724.76,283.36c0,3.17-1.3,5.75-2.9,5.75c-1.6,0-2.91-2.58-2.91-5.75c0-2.15,0.6-4,1.49-4.99
												c0.27-0.35-0.08-0.62-0.35-0.27c-0.95,1.08-1.57,3-1.57,5.26c0,3.47,1.47,6.19,3.34,6.19s3.34-2.72,3.34-6.19
												c0-1.82-0.28-3.2-0.93-4.32c-0.07,0.08-0.25,0.23-0.33,0.31C724.47,280.39,724.76,281.77,724.76,283.36z"/>
										</g>
										<g>
											<path fill="#FFB072" d="M742.11,279.93c0,0-1.82,13.79-14.78,12.81c-6.5-0.49-9.83-13.84-7.29-17.2
												c0,0-1.15-6.72,0-12.24c1.15-5.52,12.05-8.42,20.93-5.71c0,0,2.55,2.43,1.57,13.28c0,0,1.64-1.97,4.21-0.56
												c1.95,1.06,2.16,3.59,1.5,5.96C747.46,279.11,744.49,281.57,742.11,279.93z"/>
											<path fill="#E57E55" d="M743.03,278.88l0.97-2.58l-1.65-0.69c0,0,1.07-4.82,3.76-3.04
												C748.32,274.03,745.79,279.86,743.03,278.88z"/>
											<g>
												<path fill="#FFFFFF" d="M747.16,283.36c0,3.17-1.3,5.75-2.9,5.75c-1.6,0-2.9-2.58-2.9-5.75c0-2.15,0.6-4,1.49-4.99
													c0.27-0.35-0.07-0.62-0.35-0.27c-0.95,1.08-1.58,3-1.58,5.26c0,3.47,1.47,6.19,3.34,6.19c1.87,0,3.34-2.72,3.34-6.19
													c0-1.82-0.28-3.2-0.93-4.32c-0.07,0.08-0.25,0.23-0.33,0.31C746.87,280.39,747.16,281.77,747.16,283.36z"/>
											</g>
										</g>
										<g>
											<g>
												<path fill="#FD6141" d="M723.92,284.14c0,0,0.88-2.15,7.68-1.44C730.83,286.29,724.46,288.06,723.92,284.14z"/>
												<g>
													<path fill="#E57E55" d="M723.92,284.14c0,0,4.11,0.02,7.68-1.44"/>
													<path fill="#E57E55" d="M723.92,284.14c0,0,0.49-0.03,1.22-0.12c0.37-0.03,0.79-0.11,1.25-0.16
														c0.45-0.07,0.94-0.13,1.42-0.23c0.48-0.1,0.97-0.16,1.41-0.29c0.44-0.12,0.87-0.19,1.22-0.3
														c0.7-0.21,1.18-0.35,1.18-0.35s-0.45,0.2-1.13,0.48c-0.35,0.14-0.76,0.25-1.21,0.38c-0.44,0.14-0.93,0.21-1.41,0.32
														c-0.97,0.17-1.96,0.27-2.7,0.28C724.41,284.18,723.92,284.14,723.92,284.14z"/>
												</g>
											</g>
											<g>
												<path fill="#3E2344" d="M720.09,275.37c0.05,0.61,0.85,0.65,1.83,0.57c0.98-0.08,1.76-0.26,1.71-0.87
													c-0.05-0.61-0.88-1.04-1.86-0.96C720.79,274.2,720.03,274.76,720.09,275.37z"/>
												<path fill="#3E2344" d="M718.06,272.82c-0.03,0.09,2.27-1.96,2.88-1.93c0.62,0.03,2.91,0.89,3.14,0.57
													c0.23-0.32,0.45-1.02,0.45-1.02s-3.23-0.61-3.91-0.4C719.95,270.27,718.31,272.06,718.06,272.82z"/>
											</g>
											<g>
												<path fill="#3E2344" d="M729.06,274.62c0.05,0.61,0.85,0.65,1.83,0.57c0.98-0.08,1.76-0.26,1.71-0.87
													c-0.05-0.61-0.89-1.04-1.87-0.96C729.76,273.45,729.01,274.01,729.06,274.62z"/>
												<path fill="#3E2344" d="M734.87,270.73c0.05,0.08-3.05-1.19-3.82-0.99c-0.77,0.2-3.24,1.44-3.57,1.19s-0.7-0.9-0.7-0.9
													s3.62-1.23,4.5-1.19C732.16,268.87,734.45,270.03,734.87,270.73z"/>
											</g>
											<g>
												<path opacity="0.5" fill="#E57E55" enable-background="new    " d="M725.12,280.59c0,0,2.27-0.08,2.21-0.69
													c-0.05-0.62-4.79-1.3-5.05-0.86C722.03,279.49,724.11,280.31,725.12,280.59z"/>
												<path fill="#E57E55" d="M724.73,271.19c0,0,0.66,2.83,0.32,3.85c-0.34,1.02-2.42,3.32-2.46,3.81
													c-0.04,0.49,2.35,1.67,2.53,1.75c0.18,0.07-3.41-0.48-3.31-1.6c0.11-1.12,2.78-3.91,2.87-4.46
													C724.78,273.99,724.73,271.19,724.73,271.19z"/>
											</g>
										</g>
									</g>
									<path fill="#3E2344" d="M738.13,258.58c-10.8,1.14-15.58,11.31-23.49,11.31c-4.89-8.51,10.06-30.09,27.7-13.33
										c8.09,7.68,0.79,13.57,0.79,13.57l-1.8,6.21c0,0,0.16-4.67-1.5-6.45C734.95,264.63,738.13,258.58,738.13,258.58z"/>
								</g>
							</g>
						</g>
					</g>
					<g>
						<path opacity="0.3" fill="#764582" enable-background="new    " d="M667.49,201.34l-110.94-27.3l0,0l-14.03-3.45
							c-5.46-1.35-10.98,1.99-12.32,7.46l-11.02,44.78l0,0l-0.63,2.55l-5.04,20.48c-1.34,5.46,1.99,10.98,7.46,12.32l122.99,30.27
							c5.46,1.34,10.98-1.99,12.32-7.45l1.47-5.98l0,0l4.19-17.05l0,0l6.12-24.86l0,0l5.39-21.91
							C674.53,206.83,671.86,202.42,667.49,201.34z"/>
						<g>
							<path fill="#FFBE57" d="M641.96,284.39l-122.99-30.27c-5.46-1.34-8.8-6.86-7.45-12.32l16.69-67.81
								c1.34-5.46,6.86-8.8,12.32-7.46l122.99,30.27c5.46,1.35,8.8,6.86,7.46,12.32l-16.69,67.81
								C652.94,282.4,647.42,285.74,641.96,284.39z"/>
							<path fill="#FFD25A" d="M536.66,190.96c-4.18,11.16-2.79,26.51,8.37,32.08c39.97,23.81,82.53,21.7,121.05,6l5.39-21.91
								c1.07-4.36-1.59-8.77-5.96-9.85l-110.94-27.31C546.25,174.71,540.27,182.82,536.66,190.96z"/>
							
								<rect x="512.94" y="236.09" transform="matrix(-0.971 -0.239 0.239 -0.971 1097.376 622.8155)" fill="#764582" width="147.02" height="17.56"/>
							<path fill="#764582" d="M579.09,195.22l-43.14-10.62c-2.19-0.54-3.53-2.75-2.99-4.95l0.14-0.59
								c0.54-2.19,2.75-3.53,4.94-2.99l43.14,10.61c2.19,0.54,3.53,2.75,2.99,4.95l-0.14,0.59
								C583.5,194.42,581.28,195.76,579.09,195.22z"/>
							<path fill="#764582" d="M616.92,213.57l-85.05-20.93c-1.09-0.27-1.77-1.38-1.5-2.47l0.07-0.29c0.27-1.1,1.38-1.77,2.47-1.5
								l85.05,20.93c1.1,0.27,1.77,1.38,1.5,2.47l-0.07,0.29C619.13,213.17,618.02,213.84,616.92,213.57z"/>
							<g>
								<path fill="#FFFFFF" d="M599.49,229.75l-2.77-0.68c-1.54-0.38-2.48-1.94-2.1-3.48l0.1-0.42c0.38-1.54,1.94-2.48,3.48-2.1
									l2.77,0.68c1.54,0.38,2.48,1.94,2.1,3.48l-0.1,0.42C602.58,229.19,601.03,230.13,599.49,229.75z"/>
								<path fill="#FFFFFF" d="M610.12,232.37l-2.77-0.68c-1.54-0.38-2.48-1.94-2.1-3.48l0.1-0.41c0.38-1.54,1.94-2.48,3.48-2.1
									l2.77,0.68c1.54,0.38,2.48,1.94,2.1,3.48l-0.1,0.41C613.22,231.8,611.66,232.75,610.12,232.37z"/>
								<path fill="#FFFFFF" d="M620.75,234.98l-2.77-0.68c-1.54-0.38-2.48-1.94-2.1-3.48l0.1-0.41c0.38-1.54,1.93-2.48,3.47-2.1
									l2.77,0.68c1.54,0.38,2.48,1.94,2.1,3.48l-0.1,0.42C623.85,234.42,622.29,235.36,620.75,234.98z"/>
							</g>
							<g>
								<path fill="#FD6141" d="M645.87,203.53c-1.25-2.19-3.36-3.89-6.01-4.54c-5.13-1.26-10.31,1.87-11.57,7
									c-1.26,5.13,1.87,10.31,7,11.57c2.65,0.65,5.3,0.12,7.44-1.24c-1.18-2.06-1.6-4.55-0.99-7.03S643.88,204.81,645.87,203.53z"
									/>
								<path fill="#FD6141" d="M653.3,202.3c-2.65-0.65-5.3-0.13-7.43,1.23c1.18,2.06,1.6,4.55,0.99,7.03s-2.15,4.49-4.14,5.76
									c1.25,2.19,3.36,3.9,6.01,4.55c5.13,1.26,10.31-1.87,11.57-7C661.57,208.74,658.43,203.56,653.3,202.3z"/>
							</g>
						</g>
					</g>
				</g>
			</g>
		</g>
	</g>
</g>
</svg>
